SplineFontDB: 3.2
FontName: Emmentaler
FullName: Emmentaler
FamilyName: Emmentaler
Weight: Regular
Copyright: This font is distributed under the GNU General Public License.\nAs a special exception, if you create a document which uses\nthis font, and embed this font or unaltered portions of this\nfont into the document, this font does not by itself cause the\nresulting document to be covered by the GNU General Public License.\n
Version: 2.24.4
ItalicAngle: 0
UnderlinePosition: -100
UnderlineWidth: 50
Ascent: 800
Descent: 200
InvalidEm: 0
sfntRevision: 0x00023d70
LayerCount: 2
Layer: 0 0 "Hinten" 1
Layer: 1 0 "Vorne" 0
XUID: [1021 157 736890902 16041984]
StyleMap: 0x0000
FSType: 0
OS2Version: 4
OS2_WeightWidthSlopeOnly: 0
OS2_UseTypoMetrics: 1
CreationTime: 1721474473
ModificationTime: 1749408984
PfmFamily: 17
TTFWeight: 400
TTFWidth: 5
LineGap: 90
VLineGap: 0
Panose: 2 0 5 3 0 0 0 0 0 0
OS2TypoAscent: 800
OS2TypoAOffset: 0
OS2TypoDescent: -200
OS2TypoDOffset: 0
OS2TypoLinegap: 90
OS2WinAscent: 2128
OS2WinAOffset: 0
OS2WinDescent: 2315
OS2WinDOffset: 0
HheadAscent: 2128
HheadAOffset: 0
HheadDescent: -2315
HheadDOffset: 0
OS2SubXSize: 650
OS2SubYSize: 700
OS2SubXOff: 0
OS2SubYOff: 140
OS2SupXSize: 650
OS2SupYSize: 700
OS2SupXOff: 0
OS2SupYOff: 480
OS2StrikeYSize: 49
OS2StrikeYPos: 258
OS2XHeight: 290
OS2Vendor: 'PfEd'
OS2CodePages: 00000001.00000000
OS2UnicodeRanges: 00000001.12004000.01000000.00000000
Lookup: 4 0 0 "'dlig' Beliegige Ligaturen Nachschlagetabelle 0" { "'dlig' Beliegige Ligaturen Nachschlagetabelle 0 Subtabelle"  } ['dlig' ('DFLT' <'dflt' > ) ]
Lookup: 1 0 0 "'tnum' Tabellenziffern Nachschlagetabelle 1" { "'tnum' Tabellenziffern Nachschlagetabelle 1 Subtabelle"  } ['tnum' ('DFLT' <'dflt' > ) ]
Lookup: 1 0 0 "'cv47' Zeichenvarianten 47 Nachschlagetabelle 2" { "'cv47' Zeichenvarianten 47 Nachschlagetabelle 2 Subtabelle"  } ['cv47' ('DFLT' <'dflt' > ) ]

StartChar: .notdef
Encoding: 1114112 -1 0
Width: 500
GlyphClass: 1
Flags: MW
HStem: 0 50<100 400 100 450> 483 50<100 400 100 100>
VStem: 50 50<50 50 50 483> 400 50<50 483 483 483>
LayerCount: 2
Fore
SplineSet
50 0 m 1
 50 533 l 1
 450 533 l 1
 450 0 l 1
 50 0 l 1
100 50 m 1
 400 50 l 1
 400 483 l 1
 100 483 l 1
 100 50 l 1
EndSplineSet
EndChar

StartChar: plus
Encoding: 43 43 2
Width: 250
GlyphClass: 2
Flags: MW
HStem: 228 44<16 103 22 103 147 228>
VStem: 103 44<147 228 272 353>
LayerCount: 2
Fore
SplineSet
125 125 m 0
 113 125 103 135 103 147 c 2
 103 228 l 1
 22 228 l 2
 10 228 0 238 0 250 c 0
 0 262 10 272 22 272 c 2
 103 272 l 1
 103 353 l 2
 103 365 113 375 125 375 c 0
 137 375 147 365 147 353 c 2
 147 272 l 1
 228 272 l 2
 240 272 250 262 250 250 c 0
 250 238 240 228 228 228 c 2
 147 228 l 1
 147 147 l 2
 147 135 137 125 125 125 c 0
EndSplineSet
EndChar

StartChar: comma
Encoding: 44 44 3
Width: 114
GlyphClass: 2
Flags: MW
HStem: -158 272<41.5 47.5>
VStem: 67 47<-58 73>
LayerCount: 2
Fore
SplineSet
67 -38 m 0
 67 15 0 -5 0 57 c 0
 0 89 25 114 57 114 c 0
 89 114 114 89 114 57 c 0
 114 -16 88 -84 57 -150 c 0
 54 -155 50 -158 45 -158 c 0
 38 -158 32 -153 32 -145 c 0
 32 -136 67 -78 67 -38 c 0
EndSplineSet
EndChar

StartChar: hyphen
Encoding: 45 45 4
Width: 166
GlyphClass: 2
Flags: MW
HStem: 153 27<9.5 153 13 153>
VStem: 0 167<163.5 170.5>
LayerCount: 2
Fore
SplineSet
153 153 m 2
 13 153 l 2
 6 153 0 160 0 167 c 0
 0 174 6 180 13 180 c 2
 153 180 l 2
 160 180 167 174 167 167 c 0
 167 160 160 153 153 153 c 2
EndSplineSet
EndChar

StartChar: period
Encoding: 46 46 5
Width: 114
GlyphClass: 2
Flags: MW
HStem: 0 114<41 73>
VStem: 0 114<41 73>
LayerCount: 2
Fore
SplineSet
0 57 m 0
 0 89 25 114 57 114 c 0
 89 114 114 89 114 57 c 0
 114 25 89 0 57 0 c 0
 25 0 0 25 0 57 c 0
EndSplineSet
EndChar

StartChar: zero
Encoding: 48 48 6
Width: 358
GlyphClass: 2
Flags: MW
HStem: 0 27<146 212 146 236.5> 473 27<146 212>
VStem: 0 109<186.5 210 210 250 250 290 168.5 313.5> 250 109<210 250 250 290 290 313.5 186.5 331.5>
LayerCount: 2
Fore
SplineSet
179 473 m 0
 113 473 109 373 109 290 c 2
 109 250 l 1
 109 210 l 2
 109 127 113 27 179 27 c 0
 245 27 250 127 250 210 c 2
 250 250 l 1
 250 290 l 2
 250 373 245 473 179 473 c 0
179 500 m 0
 294 500 359 377 359 250 c 0
 359 123 294 0 179 0 c 0
 64 0 0 123 0 250 c 0
 0 377 64 500 179 500 c 0
EndSplineSet
Substitution2: "'ss01' Stilgruppe 1 Nachschlagetabelle 3 Subtabelle" fattened.zero
Substitution2: "'tnum' Tabellenziffern Nachschlagetabelle 1 Subtabelle" fixedwidth.zero
EndChar

StartChar: one
Encoding: 49 49 7
Width: 296
GlyphClass: 2
Flags: MW
HStem: 0 21<37.5 61.5 265.5 289.5>
VStem: -1 25<239 245> 109 109<109 367 367 372.5>
LayerCount: 2
Fore
SplineSet
0 250 m 2
 109 500 l 2
 114 512 138 487 164 487 c 0
 178 487 190 494 203 500 c 0
 210 504 218 496 218 485 c 2
 218 109 l 2
 218 64 244 21 286 21 c 0
 293 21 297 16 297 11 c 0
 297 6 293 0 286 0 c 0
 245 0 205 13 164 13 c 0
 123 13 82 0 41 0 c 0
 34 0 30 6 30 11 c 0
 30 16 34 21 41 21 c 0
 83 21 109 64 109 109 c 2
 109 367 l 2
 109 378 101 384 94 384 c 0
 90 384 87 382 85 378 c 2
 24 239 l 2
 22 233 18 231 13 231 c 0
 6 231 -1 236 -1 244 c 0
 -1 246 -1 248 0 250 c 2
EndSplineSet
Substitution2: "'ss01' Stilgruppe 1 Nachschlagetabelle 3 Subtabelle" fattened.one
Substitution2: "'tnum' Tabellenziffern Nachschlagetabelle 1 Subtabelle" fixedwidth.one
EndChar

StartChar: two
Encoding: 50 50 8
Width: 358
GlyphClass: 2
Flags: MW
HStem: 0 73<266 272.5> 65 66<68 165.5> 479 21<149 187>
VStem: 0 21<6.5 87> 13 102<355 453> 232 109<277 385>
LayerCount: 2
Fore
SplineSet
227 0 m 0xac
 140 0 138 65 83 65 c 0x6c
 53 65 24 44 21 10 c 0
 20 3 16 0 11 0 c 0
 6 0 0 3 0 10 c 0xb4
 0 164 232 181 232 355 c 0
 232 415 213 479 161 479 c 0
 137 479 115 464 115 442 c 0
 115 415 150 401 150 374 c 0
 150 336 119 305 81 305 c 0
 43 305 13 336 13 374 c 0
 13 448 83 500 161 500 c 0
 254 500 341 442 341 355 c 0
 341 199 181 195 87 126 c 1
 99 129 112 131 125 131 c 0x6c
 206 131 236 73 296 73 c 0
 342 73 332 109 348 109 c 0
 353 109 359 105 359 99 c 0
 359 78 318 0 227 0 c 0xac
EndSplineSet
Substitution2: "'ss01' Stilgruppe 1 Nachschlagetabelle 3 Subtabelle" fattened.two
Substitution2: "'tnum' Tabellenziffern Nachschlagetabelle 1 Subtabelle" fixedwidth.two
EndChar

StartChar: three
Encoding: 51 51 9
Width: 326
GlyphClass: 2
Flags: MW
HStem: 0 21<136 176 136 200> 250 27<76.5 163 81 163> 479 21<133.5 173>
VStem: 0 90<45 129> 13 79<383 458> 217 95<354.5 413> 217 109<111 171>
LayerCount: 2
Fore
SplineSet
258 264 m 0xec
 258 233 326 245 326 140 c 0
 326 49 249 0 151 0 c 0
 74 0 0 41 0 111 c 0
 0 147 29 176 65 176 c 0
 101 176 130 147 130 111 c 0
 130 86 90 83 90 58 c 0
 90 32 121 21 151 21 c 0
 201 21 217 82 217 140 c 0xf2
 217 202 216 250 163 250 c 2
 81 250 l 2
 72 250 68 257 68 264 c 0
 68 271 72 277 81 277 c 2
 163 277 l 2
 215 277 217 324 217 385 c 0
 217 441 199 479 147 479 c 0
 120 479 92 470 92 446 c 0
 92 424 127 421 127 399 c 0
 127 367 102 342 70 342 c 0
 38 342 13 367 13 399 c 0
 13 462 78 500 147 500 c 0
 237 500 312 465 312 385 c 0
 312 259 258 304 258 264 c 0xec
EndSplineSet
Substitution2: "'ss01' Stilgruppe 1 Nachschlagetabelle 3 Subtabelle" fattened.three
Substitution2: "'tnum' Tabellenziffern Nachschlagetabelle 1 Subtabelle" fixedwidth.three
EndChar

StartChar: four
Encoding: 52 52 10
Width: 391
GlyphClass: 2
Flags: MW
HStem: 0 21<128.5 152.5 357.5 381.5> 125 27<16.5 200 27 200 310 378>
VStem: 200 110<109 125 86.5 125 152 299 299 315> 290 20<86.5 109 109 125 152 408 152 152 485 485>
LayerCount: 2
Fore
SplineSet
-2 146 m 0xe0
 -2 159 146 297 146 485 c 0
 146 495 153 503 161 500 c 0
 183 493 205 487 228 487 c 0
 251 487 273 493 295 500 c 0
 307 504 316 492 310 485 c 2xd0
 27 152 l 1
 200 152 l 1
 200 299 l 2xe0
 200 331 234 323 265 366 c 0
 276 381 283 398 290 415 c 0
 294 424 310 422 310 408 c 2xd0
 310 152 l 1
 378 152 l 2
 387 152 391 145 391 138 c 0
 391 131 387 125 378 125 c 2
 310 125 l 1
 310 109 l 2
 310 64 336 21 378 21 c 0
 385 21 388 16 388 11 c 0
 388 6 385 0 378 0 c 0
 337 0 296 13 255 13 c 0
 214 13 173 0 132 0 c 0
 125 0 122 6 122 11 c 0
 122 16 125 21 132 21 c 0
 174 21 200 64 200 109 c 2
 200 125 l 1
 27 125 l 2
 6 125 -2 138 -2 146 c 0xe0
EndSplineSet
Substitution2: "'ss01' Stilgruppe 1 Nachschlagetabelle 3 Subtabelle" fattened.four
Substitution2: "'cv47' Zeichenvarianten 47 Nachschlagetabelle 2 Subtabelle" four.alt
Substitution2: "'tnum' Tabellenziffern Nachschlagetabelle 1 Subtabelle" fixedwidth.four
EndChar

StartChar: five
Encoding: 53 53 11
Width: 330
GlyphClass: 2
Flags: MW
HStem: 0 21<144.5 190.5 144.5 210> 295 27<139.5 187> 398 89<68 201.5>
VStem: 0 90<43 129> 30 27<275 383 275 485> 232 109<127.5 193.5>
LayerCount: 2
Fore
SplineSet
159 295 m 0xf4
 76 295 58 242 44 242 c 0
 37 242 30 247 30 255 c 2
 30 485 l 2
 30 494 37 501 45 500 c 0
 89 492 134 487 179 487 c 0
 224 487 268 492 312 500 c 0
 325 502 333 491 327 485 c 0
 261 419 166 398 72 398 c 0
 64 398 57 391 57 383 c 2
 57 275 l 1xec
 85 303 120 322 159 322 c 0
 273 322 341 270 341 161 c 0
 341 69 258 0 162 0 c 0
 80 0 0 38 0 111 c 0
 0 147 29 176 65 176 c 0
 101 176 130 147 130 111 c 0
 130 86 90 83 90 58 c 0
 90 28 127 21 162 21 c 0
 219 21 232 94 232 161 c 0
 232 226 215 295 159 295 c 0xf4
EndSplineSet
Substitution2: "'ss01' Stilgruppe 1 Nachschlagetabelle 3 Subtabelle" fattened.five
Substitution2: "'tnum' Tabellenziffern Nachschlagetabelle 1 Subtabelle" fixedwidth.five
EndChar

StartChar: six
Encoding: 54 54 12
Width: 332
GlyphClass: 2
Flags: MW
HStem: 0 21<137.5 195 137.5 215.5> 257 21<155 195> 479 21<151 196.5>
VStem: 0 109<259 270.5 106 314> 228 91<381 457.5> 230 103<105.5 172.5>
LayerCount: 2
Fore
SplineSet
166 257 m 0xf4
 109 257 109 205 109 139 c 0
 109 73 109 21 166 21 c 0
 224 21 230 72 230 139 c 0
 230 206 224 257 166 257 c 0xf4
109 259 m 1
 125 271 144 278 166 278 c 0
 265 278 333 232 333 139 c 0xf4
 333 46 265 0 166 0 c 0
 55 0 0 125 0 250 c 0
 0 378 69 500 186 500 c 0
 254 500 319 462 319 399 c 0
 319 363 290 334 254 334 c 0
 218 334 189 363 189 399 c 0
 189 422 228 425 228 448 c 0xf8
 228 467 207 479 186 479 c 0
 116 479 108 408 108 328 c 0
 108 305 109 282 109 259 c 1
EndSplineSet
Substitution2: "'ss01' Stilgruppe 1 Nachschlagetabelle 3 Subtabelle" fattened.six
Substitution2: "'tnum' Tabellenziffern Nachschlagetabelle 1 Subtabelle" fixedwidth.six
EndChar

StartChar: seven
Encoding: 55 55 13
Width: 332
GlyphClass: 2
Flags: MW
HStem: 367 84<156 278> 419 81<9.5 93>
VStem: 0 27<263 350 468.5 473 473 487>
LayerCount: 2
Fore
SplineSet
352 487 m 0x60
 352 468 183 283 183 87 c 0
 183 63 185 39 190 15 c 0
 192 5 184 -3 175 0 c 0
 153 7 131 13 108 13 c 0
 85 13 64 7 42 0 c 0
 32 -3 23 6 27 15 c 0
 84 149 166 268 251 386 c 1
 229 374 207 367 186 367 c 0xa0
 126 367 117 419 69 419 c 0
 45 419 27 399 27 350 c 2
 27 263 l 2
 27 254 20 250 13 250 c 0
 6 250 0 254 0 263 c 2
 0 487 l 2
 0 496 6 500 13 500 c 0
 20 500 27 496 27 487 c 2
 27 473 l 2
 27 464 37 455 40 459 c 0
 59 486 92 500 125 500 c 0x60
 196 500 197 451 250 451 c 0xa0
 306 451 325 500 338 500 c 0
 345 500 352 494 352 487 c 0x60
EndSplineSet
Substitution2: "'ss01' Stilgruppe 1 Nachschlagetabelle 3 Subtabelle" fattened.seven
Substitution2: "'cv47' Zeichenvarianten 47 Nachschlagetabelle 2 Subtabelle" seven.alt
Substitution2: "'tnum' Tabellenziffern Nachschlagetabelle 1 Subtabelle" fixedwidth.seven
EndChar

StartChar: eight
Encoding: 56 56 14
Width: 358
GlyphClass: 2
Flags: MW
HStem: 0 21<142.5 206.5 142.5 239> 479 21<163 216.5>
VStem: 0 40<103.5 160 103.5 163.5> 16 95<394 401.5> 267 97<106 118.5> 301 40<368 415.5>
LayerCount: 2
Fore
SplineSet
256 283 m 1xd4
 282 314 301 348 301 388 c 0
 301 443 246 479 187 479 c 0
 139 479 111 442 111 405 c 0
 111 383 121 360 144 347 c 2
 256 283 l 1xd4
284 266 m 1
 307 253 364 213 364 142 c 0
 364 70 299 0 179 0 c 0
 87 0 0 53 0 138 c 0xe8
 0 189 37 228 73 264 c 1
 35 292 16 330 16 368 c 0
 16 435 76 500 187 500 c 0
 265 500 341 459 341 388 c 0
 341 341 316 301 284 266 c 1
101 246 m 1
 69 215 40 182 40 138 c 0
 40 69 106 21 179 21 c 0
 234 21 267 64 267 106 c 0
 267 131 256 157 230 172 c 2
 101 246 l 1
EndSplineSet
Substitution2: "'ss01' Stilgruppe 1 Nachschlagetabelle 3 Subtabelle" fattened.eight
Substitution2: "'tnum' Tabellenziffern Nachschlagetabelle 1 Subtabelle" fixedwidth.eight
EndChar

StartChar: nine
Encoding: 57 57 15
Width: 332
GlyphClass: 2
Flags: MW
HStem: 0 21<135.5 181 135.5 204.5> 222 21<137 177> 479 21<137 194.5>
VStem: 0 102<327.5 394.5 327.5 407.5> 13 92<42.5 119> 224 109<186 241 241 241 186 394>
LayerCount: 2
Fore
SplineSet
166 243 m 0xf4
 223 243 224 295 224 361 c 0
 224 427 223 479 166 479 c 0
 108 479 102 428 102 361 c 0
 102 294 108 243 166 243 c 0xf4
224 241 m 1
 208 229 188 222 166 222 c 0
 67 222 0 268 0 361 c 0xf4
 0 454 67 500 166 500 c 0
 277 500 333 375 333 250 c 0
 333 122 263 0 146 0 c 0
 78 0 13 38 13 101 c 0
 13 137 43 166 79 166 c 0
 115 166 144 137 144 101 c 0
 144 78 105 75 105 52 c 0xec
 105 33 125 21 146 21 c 0
 216 21 224 92 224 172 c 2
 224 241 l 1
EndSplineSet
Substitution2: "'ss01' Stilgruppe 1 Nachschlagetabelle 3 Subtabelle" fattened.nine
Substitution2: "'tnum' Tabellenziffern Nachschlagetabelle 1 Subtabelle" fixedwidth.nine
EndChar

StartChar: f
Encoding: 102 102 16
Width: 320
GlyphClass: 2
Flags: MW
HStem: -170 33<-21 -15 -15 10 -21 33.5> 251 34<69.5 136 74 127 263 321> 446 32<356 363>
VStem: -102 58<-125 -112 -132 -85.5> 379 58<420 434 394.5 440>
LayerCount: 2
Fore
SplineSet
254 251 m 1
 203 86 l 2
 173 -13 82 -170 -15 -170 c 0
 -60 -170 -102 -145 -102 -105 c 0
 -102 -66 -85 -28 -50 -28 c 0
 -26 -28 -6 -48 -6 -72 c 0
 -6 -102 -44 -97 -44 -127 c 0
 -44 -137 -33 -137 -21 -137 c 2
 -15 -137 l 2
 35 -137 45 -76 58 -24 c 2
 127 251 l 1
 74 251 l 2
 65 251 58 259 58 268 c 0
 58 277 65 285 74 285 c 2
 136 285 l 1
 167 382 255 478 350 478 c 0
 395 478 437 454 437 414 c 0
 437 375 420 336 385 336 c 0
 361 336 341 356 341 380 c 0
 341 410 379 405 379 435 c 0
 379 445 369 446 357 446 c 0
 355 446 352 445 350 445 c 0
 285 445 280 352 263 285 c 1
 321 285 l 2
 330 285 338 277 338 268 c 0
 338 259 330 251 321 251 c 2
 254 251 l 1
EndSplineSet
EndChar

StartChar: m
Encoding: 109 109 17
Width: 437
GlyphClass: 2
Flags: MW
HStem: -6 59<306 392.5> 233 65<62 63 62 190.5>
VStem: 326 87<212.5 246>
LayerCount: 2
Fore
SplineSet
-38 141 m 0
 -38 152 16 298 108 298 c 0
 131 298 145 277 149 251 c 1
 171 278 200 298 230 298 c 0
 254 298 270 276 275 249 c 1
 296 277 324 298 354 298 c 0
 387 298 413 263 413 229 c 0
 413 224 412 220 411 215 c 2
 376 66 l 2
 376 64 375 62 375 61 c 0
 375 56 377 53 382 53 c 0
 403 53 431 89 442 89 c 0
 447 89 450 86 450 81 c 0
 450 73 376 -6 316 -6 c 0
 296 -6 284 8 284 26 c 0
 284 29 284 32 285 36 c 2
 324 201 l 2
 325 206 326 210 326 215 c 0
 326 225 322 233 312 233 c 0
 296 233 279 217 273 201 c 2
 220 15 l 2
 218 7 208 0 200 0 c 2
 154 0 l 2
 145 0 141 6 143 15 c 2
 196 201 l 2
 198 207 199 212 199 217 c 0
 199 226 195 233 186 233 c 0
 170 233 151 218 145 201 c 2
 82 15 l 2
 79 6 70 0 61 0 c 2
 15 0 l 2
 6 0 2 6 5 15 c 2
 69 201 l 2
 71 206 71 211 71 216 c 0
 71 226 68 233 58 233 c 0
 29 233 4 180 -8 146 c 0
 -11 136 -21 132 -28 132 c 0
 -34 132 -38 135 -38 141 c 0
EndSplineSet
EndChar

StartChar: n
Encoding: 110 110 18
Width: 323
GlyphClass: 2
Flags: MW
HStem: -6 59<193 279.5> 233 65<62 63>
VStem: 212 88<209.5 246>
LayerCount: 2
Fore
SplineSet
-38 141 m 0
 -38 152 16 298 108 298 c 0
 131 298 145 276 149 249 c 1
 173 278 207 298 240 298 c 0
 273 298 300 263 300 229 c 0
 300 224 299 220 298 215 c 2
 263 66 l 2
 263 64 262 62 262 61 c 0
 262 56 264 53 269 53 c 0
 290 53 318 89 329 89 c 0
 334 89 337 86 337 81 c 0
 337 73 263 -6 203 -6 c 0
 183 -6 171 8 171 26 c 0
 171 29 171 32 172 36 c 2
 211 201 l 2
 212 205 212 208 212 211 c 0
 212 223 206 233 194 233 c 0
 175 233 151 219 145 201 c 2
 82 15 l 2
 79 6 70 0 61 0 c 2
 15 0 l 2
 6 0 2 6 5 15 c 2
 69 201 l 2
 71 206 71 211 71 216 c 0
 71 226 68 233 58 233 c 0
 29 233 4 180 -8 146 c 0
 -11 136 -21 132 -28 132 c 0
 -34 132 -38 135 -38 141 c 0
EndSplineSet
EndChar

StartChar: p
Encoding: 112 112 19
Width: 364
GlyphClass: 2
Flags: MW
HStem: -146 21G<-126 -120.5 111.5 117> -7 40<172.5 200.5 150 225.5> 243 49<45 66.5 232 242>
VStem: 258 99<209 210.5 118.5 219>
LayerCount: 2
Fore
SplineSet
161 33 m 0
 240 33 258 208 258 210 c 0
 258 228 251 243 233 243 c 0
 173 243 131 121 131 71 c 0
 131 48 139 33 161 33 c 0
-54 142 m 0
 -54 144 -3 292 79 292 c 0
 115 292 140 271 147 240 c 1
 176 271 214 292 250 292 c 0
 319 292 357 243 357 178 c 0
 357 59 252 -7 199 -7 c 0
 146 -7 128 13 114 13 c 0
 107 13 101 10 99 4 c 2
 66 -91 l 2
 65 -93 65 -95 65 -97 c 0
 65 -129 124 -112 124 -134 c 0
 124 -140 121 -146 113 -146 c 0
 110 -146 63 -141 -4 -141 c 0
 -71 -141 -119 -146 -122 -146 c 0
 -130 -146 -133 -140 -133 -134 c 0
 -133 -106 -47 -136 -34 -99 c 2
 71 209 l 2
 73 215 75 222 75 227 c 0
 75 236 71 243 62 243 c 0
 28 243 -5 184 -21 146 c 0
 -25 136 -34 131 -42 131 c 0
 -49 131 -54 135 -54 142 c 0
EndSplineSet
EndChar

StartChar: r
Encoding: 114 114 20
Width: 218
GlyphClass: 2
Flags: MW
HStem: 0 21G<10.5 15 15 60> 261 44<179.5 229> 271 33<36.5 53.5>
VStem: -26 312<218 283>
LayerCount: 2
Fore
SplineSet
243 216 m 0xd0
 200 216 221 261 190 261 c 0xd0
 169 261 138 239 132 217 c 2
 80 15 l 2
 78 6 69 0 60 0 c 2
 15 0 l 2
 6 0 2 6 4 15 c 2
 62 239 l 2
 63 243 63 247 63 251 c 0
 63 262 59 271 48 271 c 0
 13 271 3 211 -15 211 c 0
 -21 211 -26 215 -26 221 c 0
 -26 233 1 304 72 304 c 0xb0
 100 304 123 291 134 269 c 1
 162 292 195 305 226 305 c 0
 232 305 286 303 286 263 c 0
 286 239 265 216 243 216 c 0xd0
EndSplineSet
EndChar

StartChar: s
Encoding: 115 115 21
Width: 206
GlyphClass: 2
Flags: MW
HStem: 0 23<90 115.5 90 134.5> 272 20<158.5 178>
VStem: 21 42<45.5 52.5 38 75.5> 63 61<201 221.5> 162 61<73 103> 191 51<239 244 220 254.5>
LayerCount: 2
Fore
SplineSet
124 222 m 0xd4
 124 180 223 170 223 103 c 0
 223 43 166 0 103 0 c 0
 60 0 21 26 21 65 c 0
 21 86 33 107 52 107 c 0
 70 107 84 92 84 74 c 0
 84 61 63 59 63 46 c 0
 63 30 81 23 99 23 c 0
 132 23 162 43 162 74 c 0xe8
 162 132 63 139 63 194 c 0
 63 249 109 292 164 292 c 0
 219 292 242 258 242 230 c 0
 242 210 230 193 211 193 c 0
 193 193 179 204 179 215 c 0
 179 223 191 230 191 248 c 0
 191 261 184 272 172 272 c 0
 145 272 124 249 124 222 c 0xd4
EndSplineSet
EndChar

StartChar: z
Encoding: 122 122 22
Width: 285
GlyphClass: 2
Flags: MW
HStem: -24 82<206 224.5> 0 21G<4 17> 10 54<84 93 93 95> 182 85<36.5 115>
VStem: 258 28<44 99>
LayerCount: 2
Fore
SplineSet
44 11 m 0x38
 20 11 22 0 12 0 c 0
 6 0 0 6 0 12 c 0
 0 15 1 18 4 21 c 2x58
 197 203 l 1
 161 195 122 195 85 189 c 0
 70 186 54 182 42 182 c 0
 31 182 24 185 24 197 c 0
 24 230 65 267 99 267 c 0
 131 267 161 248 193 248 c 0
 204 248 215 246 225 246 c 0
 251 246 250 258 260 258 c 0
 266 258 272 252 272 246 c 0
 272 243 271 240 268 237 c 2
 84 64 l 1
 93 64 l 2x38
 139 64 183 58 229 58 c 0
 246 58 258 74 258 93 c 0
 258 105 254 110 254 115 c 0
 254 122 261 126 267 126 c 0
 286 126 286 70 286 69 c 0
 286 19 249 -24 200 -24 c 0x98
 156 -24 117 10 73 10 c 0
 64 10 53 11 44 11 c 0x38
EndSplineSet
EndChar

StartChar: accidentals.sharp
Encoding: 57363 57363 23
Width: 275
GlyphClass: 2
Flags: MW
VStem: 0 94<-206 -196 56 67> 60 34<-358 -208 -208 -208 -97 55 55 55 165 316> 181 34<-316 -165 -165 -165 -55 97 97 97 208 358>
LayerCount: 2
Fore
SplineSet
0 121 m 2xa0
 0 128 5 134 11 136 c 2
 60 153 l 1
 60 316 l 2
 60 325 68 333 77 333 c 0
 86 333 94 325 94 316 c 2
 94 165 l 1x60
 181 196 l 1
 181 358 l 2
 181 367 189 375 198 375 c 0
 207 375 215 367 215 358 c 2
 215 208 l 1
 254 221 l 2
 264 225 275 217 275 206 c 2
 275 142 l 2
 275 135 270 129 264 127 c 2
 215 109 l 1
 215 -55 l 1
 254 -41 l 2
 264 -37 275 -45 275 -56 c 2
 275 -121 l 2
 275 -128 270 -134 264 -136 c 2
 215 -153 l 1
 215 -316 l 2
 215 -325 207 -333 198 -333 c 0
 189 -333 181 -325 181 -316 c 2
 181 -165 l 1
 94 -196 l 1xa0
 94 -358 l 2
 94 -367 86 -375 77 -375 c 0
 68 -375 60 -367 60 -358 c 2
 60 -208 l 1x60
 21 -221 l 2
 11 -225 0 -217 0 -206 c 2
 0 -142 l 2xa0
 0 -135 5 -129 11 -127 c 2
 60 -109 l 1
 60 55 l 1x60
 21 41 l 2
 11 37 0 45 0 56 c 2
 0 121 l 2xa0
181 97 m 1
 94 67 l 1
 94 -97 l 1
 181 -67 l 1
 181 97 l 1
EndSplineSet
EndChar

StartChar: accidentals.sharp.figbass
Encoding: 9839 9839 24
Width: 275
GlyphClass: 2
Flags: MW
VStem: 0 94<57 67 293 304> 60 34<-42 55 55 55 166 292 292 292 402 500> 181 34<0 98 98 98 208 334 334 334 445 542>
LayerCount: 2
Fore
SplineSet
0 358 m 2xa0
 0 365 5 371 11 373 c 2
 60 390 l 1
 60 500 l 2
 60 509 68 517 77 517 c 0
 86 517 94 509 94 500 c 2
 94 402 l 1x60
 181 433 l 1
 181 542 l 2
 181 551 189 559 198 559 c 0
 207 559 215 551 215 542 c 2
 215 445 l 1
 254 458 l 2
 264 462 275 454 275 443 c 2
 275 378 l 2
 275 371 270 365 264 363 c 2
 215 346 l 1
 215 208 l 1
 254 222 l 2
 264 226 275 218 275 207 c 2
 275 142 l 2
 275 135 270 129 264 127 c 2
 215 110 l 1
 215 0 l 2
 215 -9 207 -17 198 -17 c 0
 189 -17 181 -9 181 0 c 2
 181 98 l 1
 94 67 l 1xa0
 94 -42 l 2
 94 -51 86 -59 77 -59 c 0
 68 -59 60 -51 60 -42 c 2
 60 55 l 1x60
 21 42 l 2
 11 38 0 46 0 57 c 2
 0 122 l 2xa0
 0 129 5 135 11 137 c 2
 60 154 l 1
 60 292 l 1x60
 21 278 l 2
 11 274 0 282 0 293 c 2
 0 358 l 2xa0
181 334 m 1
 94 304 l 1
 94 166 l 1
 181 196 l 1
 181 334 l 1
EndSplineSet
EndChar

StartChar: accidentals.sharp.arrowup
Encoding: 57364 57364 25
Width: 275
GlyphClass: 2
Flags: MW
VStem: 0 94<-206 -196 56 67> 60 34<-358 -208 -208 -208 -97 55 55 55 165 316> 181 34<-316 -165 -165 -165 -55 97 97 97 208 358 358 420>
LayerCount: 2
Fore
SplineSet
0 121 m 2xa0
 0 128 5 134 11 136 c 2
 60 153 l 1
 60 316 l 2
 60 325 68 333 77 333 c 0
 86 333 94 325 94 316 c 2
 94 165 l 1x60
 181 196 l 1
 181 358 l 1
 181 420 l 2
 181 433 176 438 167 438 c 0
 150 438 118 417 90 401 c 0
 82 396 73 406 78 414 c 0
 163 535 189 682 204 645 c 0
 236 565 268 485 317 414 c 0
 322 406 313 396 305 401 c 0
 277 417 246 438 229 438 c 0
 220 438 215 433 215 420 c 2
 215 208 l 1
 254 221 l 2
 264 225 275 217 275 206 c 2
 275 142 l 2
 275 135 270 129 264 127 c 2
 215 109 l 1
 215 -55 l 1
 254 -41 l 2
 264 -37 275 -45 275 -56 c 2
 275 -121 l 2
 275 -128 270 -134 264 -136 c 2
 215 -153 l 1
 215 -316 l 2
 215 -325 207 -333 198 -333 c 0
 189 -333 181 -325 181 -316 c 2
 181 -165 l 1
 94 -196 l 1xa0
 94 -358 l 2
 94 -367 86 -375 77 -375 c 0
 68 -375 60 -367 60 -358 c 2
 60 -208 l 1x60
 21 -221 l 2
 11 -225 0 -217 0 -206 c 2
 0 -142 l 2xa0
 0 -135 5 -129 11 -127 c 2
 60 -109 l 1
 60 55 l 1x60
 21 41 l 2
 11 37 0 45 0 56 c 2
 0 121 l 2xa0
181 97 m 1
 94 67 l 1
 94 -97 l 1
 181 -67 l 1
 181 97 l 1
EndSplineSet
EndChar

StartChar: accidentals.sharp.arrowdown
Encoding: 57365 57365 26
Width: 275
GlyphClass: 2
Flags: MW
VStem: 0 94<-206 -196 56 67> 60 34<-420 -358 -358 -208 -208 -208 -97 55 55 55 165 316> 181 34<-316 -165 -165 -165 -55 97 97 97 208 358>
LayerCount: 2
Fore
SplineSet
0 121 m 2xa0
 0 128 5 134 11 136 c 2
 60 153 l 1
 60 316 l 2
 60 325 68 333 77 333 c 0
 86 333 94 325 94 316 c 2
 94 165 l 1x60
 181 196 l 1
 181 358 l 2
 181 367 189 375 198 375 c 0
 207 375 215 367 215 358 c 2
 215 208 l 1
 254 221 l 2
 264 225 275 217 275 206 c 2
 275 142 l 2
 275 135 270 129 264 127 c 2
 215 109 l 1
 215 -55 l 1
 254 -41 l 2
 264 -37 275 -45 275 -56 c 2
 275 -121 l 2
 275 -128 270 -134 264 -136 c 2
 215 -153 l 1
 215 -316 l 2
 215 -325 207 -333 198 -333 c 0
 189 -333 181 -325 181 -316 c 2
 181 -165 l 1
 94 -196 l 1xa0
 94 -358 l 1
 94 -420 l 2
 94 -433 99 -438 108 -438 c 0
 125 -438 157 -417 185 -401 c 0
 193 -396 202 -406 197 -414 c 0
 112 -535 86 -682 71 -645 c 0
 39 -565 7 -485 -42 -414 c 0
 -47 -406 -38 -396 -30 -401 c 0
 -2 -417 29 -438 46 -438 c 0
 55 -438 60 -433 60 -420 c 2
 60 -208 l 1x60
 21 -221 l 2
 11 -225 0 -217 0 -206 c 2
 0 -142 l 2xa0
 0 -135 5 -129 11 -127 c 2
 60 -109 l 1
 60 55 l 1x60
 21 41 l 2
 11 37 0 45 0 56 c 2
 0 121 l 2xa0
181 97 m 1
 94 67 l 1
 94 -97 l 1
 181 -67 l 1
 181 97 l 1
EndSplineSet
EndChar

StartChar: accidentals.sharp.arrowboth
Encoding: 57366 57366 27
Width: 275
GlyphClass: 2
Flags: MW
VStem: 0 94<-206 -196 56 67> 60 34<-420 -358 -358 -208 -208 -208 -97 55 55 55 165 316> 181 34<-316 -165 -165 -165 -55 97 97 97 208 358 358 420>
LayerCount: 2
Fore
SplineSet
0 121 m 2xa0
 0 128 5 134 11 136 c 2
 60 153 l 1
 60 316 l 2
 60 325 68 333 77 333 c 0
 86 333 94 325 94 316 c 2
 94 165 l 1x60
 181 196 l 1
 181 358 l 1
 181 420 l 2
 181 433 176 438 167 438 c 0
 150 438 118 417 90 401 c 0
 82 396 73 406 78 414 c 0
 163 535 189 682 204 645 c 0
 236 565 268 485 317 414 c 0
 322 406 313 396 305 401 c 0
 277 417 246 438 229 438 c 0
 220 438 215 433 215 420 c 2
 215 208 l 1
 254 221 l 2
 264 225 275 217 275 206 c 2
 275 142 l 2
 275 135 270 129 264 127 c 2
 215 109 l 1
 215 -55 l 1
 254 -41 l 2
 264 -37 275 -45 275 -56 c 2
 275 -121 l 2
 275 -128 270 -134 264 -136 c 2
 215 -153 l 1
 215 -316 l 2
 215 -325 207 -333 198 -333 c 0
 189 -333 181 -325 181 -316 c 2
 181 -165 l 1
 94 -196 l 1xa0
 94 -358 l 1
 94 -420 l 2
 94 -433 99 -438 108 -438 c 0
 125 -438 157 -417 185 -401 c 0
 193 -396 202 -406 197 -414 c 0
 112 -535 86 -682 71 -645 c 0
 39 -565 7 -485 -42 -414 c 0
 -47 -406 -38 -396 -30 -401 c 0
 -2 -417 29 -438 46 -438 c 0
 55 -438 60 -433 60 -420 c 2
 60 -208 l 1x60
 21 -221 l 2
 11 -225 0 -217 0 -206 c 2
 0 -142 l 2xa0
 0 -135 5 -129 11 -127 c 2
 60 -109 l 1
 60 55 l 1x60
 21 41 l 2
 11 37 0 45 0 56 c 2
 0 121 l 2xa0
181 97 m 1
 94 67 l 1
 94 -97 l 1
 181 -67 l 1
 181 97 l 1
EndSplineSet
EndChar

StartChar: accidentals.sharp.slashslash.stem
Encoding: 57367 57367 28
Width: 175
GlyphClass: 2
Flags: MW
VStem: 70 35<-315 -191 -191 -191 -71 71 71 71 191 315>
LayerCount: 2
Fore
SplineSet
105 -315 m 2
 105 -324 97 -332 88 -332 c 0
 79 -332 70 -324 70 -315 c 2
 70 -191 l 1
 24 -217 l 2
 22 -218 19 -219 16 -219 c 0
 8 -219 0 -212 0 -203 c 2
 0 -138 l 2
 0 -132 3 -127 8 -124 c 2
 70 -90 l 1
 70 71 l 1
 24 45 l 2
 22 44 19 43 16 43 c 0
 8 43 0 50 0 59 c 2
 0 124 l 2
 0 130 3 135 8 138 c 2
 70 172 l 1
 70 315 l 2
 70 324 79 333 88 333 c 0
 97 333 105 324 105 315 c 2
 105 191 l 1
 151 217 l 2
 153 218 156 219 159 219 c 0
 167 219 175 212 175 203 c 2
 175 138 l 2
 175 132 172 127 167 124 c 2
 105 90 l 1
 105 -71 l 1
 151 -45 l 2
 153 -44 156 -43 159 -43 c 0
 167 -43 175 -50 175 -59 c 2
 175 -124 l 2
 175 -130 172 -135 167 -138 c 2
 105 -172 l 1
 105 -315 l 2
EndSplineSet
EndChar

StartChar: accidentals.sharp.slashslashslash.stemstem
Encoding: 57368 57368 29
Width: 275
GlyphClass: 2
Flags: MW
VStem: 16 78<-206 -203 94 97> 60 34<-358 -214 -214 -214 -125 -69 -69 -69 31 86 86 86 175 320> 181 34<-320 -175 -175 -175 -86 -31 -31 -31 69 125 125 125 214 358>
LayerCount: 2
Fore
SplineSet
215 -320 m 2x60
 215 -329 207 -337 198 -337 c 0
 189 -337 181 -329 181 -320 c 2
 181 -175 l 1
 94 -203 l 1xa0
 94 -358 l 2
 94 -367 86 -375 77 -375 c 0
 68 -375 60 -367 60 -358 c 2
 60 -214 l 1x60
 37 -221 l 2
 27 -224 16 -217 16 -206 c 2
 16 -161 l 2xa0
 16 -154 21 -148 28 -146 c 2
 60 -135 l 1
 60 -69 l 1
 21 -81 l 2
 11 -84 0 -77 0 -66 c 2
 0 -11 l 2
 0 -4 4 2 11 4 c 2
 60 20 l 1
 60 86 l 1x60
 37 79 l 2
 27 76 16 83 16 94 c 2
 16 139 l 2xa0
 16 146 21 152 28 154 c 2
 60 165 l 1
 60 320 l 2
 60 329 68 337 77 337 c 0
 86 337 94 329 94 320 c 2
 94 175 l 1
 181 203 l 1
 181 358 l 2
 181 367 189 375 198 375 c 0
 207 375 215 367 215 358 c 2
 215 214 l 1
 238 221 l 2
 248 224 259 217 259 206 c 2
 259 161 l 2
 259 154 254 148 247 146 c 2
 215 135 l 1
 215 69 l 1
 254 81 l 2
 264 84 275 77 275 66 c 2
 275 11 l 2
 275 4 271 -2 264 -4 c 2
 215 -20 l 1
 215 -86 l 1
 238 -79 l 2
 248 -76 259 -83 259 -94 c 2
 259 -139 l 2
 259 -146 254 -152 247 -154 c 2
 215 -165 l 1
 215 -320 l 2x60
94 -58 m 1x60
 94 -125 l 1
 181 -97 l 1
 181 -31 l 1
 94 -58 l 1x60
94 31 m 1
 181 58 l 1
 181 125 l 1
 94 97 l 1xa0
 94 31 l 1
EndSplineSet
EndChar

StartChar: accidentals.sharp.slashslashslash.stem
Encoding: 57369 57369 30
Width: 237
GlyphClass: 2
Flags: MW
VStem: 102 34<-315 -196 -196 -196 -104 -56 -56 -56 56 104 104 104 196 315>
LayerCount: 2
Fore
SplineSet
136 -315 m 2
 136 -324 128 -333 119 -333 c 0
 110 -333 102 -324 102 -315 c 2
 102 -196 l 1
 46 -219 l 2
 36 -223 24 -215 24 -204 c 2
 24 -159 l 2
 24 -153 28 -147 34 -145 c 2
 102 -117 l 1
 102 -56 l 1
 22 -88 l 2
 12 -92 0 -84 0 -73 c 2
 0 -9 l 2
 0 -3 4 3 10 5 c 2
 102 42 l 1
 102 104 l 1
 46 81 l 2
 36 77 24 85 24 96 c 2
 24 141 l 2
 24 147 28 153 34 155 c 2
 102 183 l 1
 102 315 l 2
 102 324 110 332 119 332 c 0
 128 332 136 324 136 315 c 2
 136 196 l 1
 192 219 l 2
 202 223 214 215 214 204 c 2
 214 159 l 2
 214 153 210 147 204 145 c 2
 136 117 l 1
 136 56 l 1
 216 88 l 2
 226 92 238 84 238 73 c 2
 238 9 l 2
 238 3 234 -3 228 -5 c 2
 136 -42 l 1
 136 -104 l 1
 192 -81 l 2
 202 -77 214 -85 214 -96 c 2
 214 -141 l 2
 214 -147 210 -153 204 -155 c 2
 136 -183 l 1
 136 -315 l 2
EndSplineSet
EndChar

StartChar: accidentals.sharp.slash.stem
Encoding: 57370 57370 31
Width: 237
GlyphClass: 2
Flags: MW
VStem: 102 34<-315 -57 -57 -57 57 315>
LayerCount: 2
Fore
SplineSet
136 -315 m 2
 136 -324 128 -332 119 -332 c 0
 110 -332 102 -324 102 -315 c 2
 102 -57 l 1
 22 -89 l 2
 12 -93 0 -85 0 -74 c 2
 0 -9 l 2
 0 -3 4 3 10 5 c 2
 102 43 l 1
 102 315 l 2
 102 324 110 333 119 333 c 0
 128 333 136 324 136 315 c 2
 136 57 l 1
 216 89 l 2
 226 93 237 85 237 74 c 2
 237 9 l 2
 237 3 234 -3 228 -5 c 2
 136 -43 l 1
 136 -315 l 2
EndSplineSet
EndChar

StartChar: accidentals.sharp.slashslash.stemstemstem
Encoding: 57371 57371 32
Width: 400
GlyphClass: 2
Flags: MW
VStem: 70 35<-358 -211 -211 -211 -106 51 51 51 157 304> 183 34<-331 -184 -184 -184 -78 78 78 78 184 331> 295 35<-304 -157 -157 -157 -51 106 106 106 211 358>
LayerCount: 2
Fore
SplineSet
217 -331 m 2
 217 -340 209 -348 200 -348 c 0
 191 -348 183 -340 183 -331 c 2
 183 -184 l 1
 105 -203 l 1
 105 -358 l 2
 105 -367 97 -375 88 -375 c 0
 79 -375 70 -367 70 -358 c 2
 70 -211 l 1
 20 -224 l 2
 10 -226 0 -218 0 -208 c 2
 0 -143 l 2
 0 -136 5 -130 12 -128 c 2
 70 -114 l 1
 70 51 l 1
 20 39 l 2
 10 37 0 44 0 54 c 2
 0 119 l 2
 0 126 5 133 12 135 c 2
 70 149 l 1
 70 304 l 2
 70 313 79 321 88 321 c 0
 97 321 105 313 105 304 c 2
 105 157 l 1
 183 176 l 1
 183 331 l 2
 183 340 191 348 200 348 c 0
 209 348 217 340 217 331 c 2
 217 184 l 1
 295 203 l 1
 295 358 l 2
 295 367 304 375 313 375 c 0
 322 375 330 367 330 358 c 2
 330 211 l 1
 380 224 l 2
 390 226 400 218 400 208 c 2
 400 143 l 2
 400 136 395 130 388 128 c 2
 330 114 l 1
 330 -51 l 1
 380 -39 l 2
 390 -37 400 -44 400 -54 c 2
 400 -119 l 2
 400 -126 395 -133 388 -135 c 2
 330 -149 l 1
 330 -304 l 2
 330 -313 322 -321 313 -321 c 0
 304 -321 295 -313 295 -304 c 2
 295 -157 l 1
 217 -176 l 1
 217 -331 l 2
105 59 m 1
 105 -106 l 1
 183 -87 l 1
 183 78 l 1
 105 59 l 1
295 106 m 1
 217 87 l 1
 217 -78 l 1
 295 -59 l 1
 295 106 l 1
EndSplineSet
EndChar

StartChar: accidentals.doublesharp
Encoding: 57372 57372 33
Width: 250
GlyphClass: 2
Flags: MW
HStem: -133 105<-2.5 25.5> -124 96<7 91> 28 96<7 91> 28 105<-2.5 25.5>
VStem: -8 105<-127.5 -99.5> 1 96<-118 -34> 153 96<-118 -34> 153 105<-127.5 -99.5>
LayerCount: 2
Fore
SplineSet
150 0 m 1x12
 173 -23 208 -28 241 -28 c 0
 245 -28 249 -32 249 -36 c 2x92
 258 -125 l 2
 258 -130 255 -133 250 -133 c 2x91
 161 -124 l 2
 157 -124 153 -120 153 -116 c 0
 153 -83 148 -48 125 -25 c 1
 102 -48 97 -83 97 -116 c 0
 97 -120 93 -124 89 -124 c 2x49
 0 -133 l 2
 -5 -133 -8 -130 -8 -125 c 2x89
 1 -36 l 2
 1 -32 5 -28 9 -28 c 0
 42 -28 77 -23 100 0 c 1
 77 23 42 28 9 28 c 0
 5 28 1 32 1 36 c 2x94
 -8 125 l 2
 -8 130 -5 133 0 133 c 2x98
 89 124 l 2
 93 124 97 120 97 116 c 0
 97 83 102 48 125 25 c 1
 148 48 153 83 153 116 c 0
 153 120 157 124 161 124 c 2x29
 250 133 l 2
 255 133 258 130 258 125 c 2x19
 249 36 l 2
 249 32 245 28 241 28 c 0
 208 28 173 23 150 0 c 1x12
EndSplineSet
EndChar

StartChar: accidentals.doublesharp.figbass
Encoding: 119082 119082 34
Width: 275
GlyphClass: 2
Flags: MW
HStem: 105 105<-2.5 28.5> 113 97<7 91> 290 97<7 91> 290 105<-2.5 28.5>
VStem: -8 105<109.5 140.5> 1 96<119 204> 178 96<119 204> 178 105<109.5 140.5>
LayerCount: 2
Fore
SplineSet
162 250 m 1x12
 189 223 227 210 266 210 c 0
 270 210 274 206 274 202 c 2x92
 283 112 l 2
 283 107 280 105 275 105 c 2x91
 186 113 l 2
 182 113 178 117 178 121 c 0
 178 160 165 198 138 225 c 1
 111 198 97 160 97 121 c 0
 97 117 93 113 89 113 c 2x49
 0 105 l 2
 -5 105 -8 107 -8 112 c 2x89
 1 202 l 2
 1 206 5 210 9 210 c 0
 48 210 86 223 113 250 c 1
 86 277 48 290 9 290 c 0
 5 290 1 294 1 298 c 2x94
 -8 388 l 2
 -8 393 -5 395 0 395 c 2x98
 89 387 l 2
 93 387 97 383 97 379 c 0
 97 340 111 302 138 275 c 1
 165 302 178 340 178 379 c 0
 178 383 182 387 186 387 c 2x29
 275 395 l 2
 280 395 283 393 283 388 c 2x19
 274 298 l 2
 274 294 270 290 266 290 c 0
 227 290 189 277 162 250 c 1x12
EndSplineSet
EndChar

StartChar: accidentals.natural
Encoding: 57373 57373 35
Width: 166
GlyphClass: 2
Flags: MW
VStem: -7 45 0 37 126 48<-375 -375> 130 37
LayerCount: 2
Fore
SplineSet
-7 375 m 1x80
 0 379 9 381 17 381 c 0
 25 381 33 379 40 375 c 1
 38 198 l 1
 147 216 l 2
 148 216 149 217 150 217 c 0
 159 217 167 209 167 200 c 2x90
 174 -375 l 1
 167 -379 158 -381 150 -381 c 0
 142 -381 133 -379 126 -375 c 1
 128 -198 l 1
 19 -216 l 2
 18 -216 18 -217 17 -217 c 0
 8 -217 0 -209 0 -200 c 2x60
 -7 375 l 1x80
132 114 m 1
 37 99 l 1x50
 34 -114 l 1
 130 -99 l 1
 132 114 l 1
EndSplineSet
EndChar

StartChar: accidentals.natural.figbass
Encoding: 9838 9838 36
Width: 275
GlyphClass: 2
Flags: MW
VStem: 34 46 41 35 196 45 197 37
LayerCount: 2
Fore
SplineSet
34 542 m 1x80
 41 546 50 549 58 549 c 0
 66 549 75 546 82 542 c 1
 80 404 l 1
 215 423 l 2
 216 423 216 424 217 424 c 0
 226 424 234 416 234 407 c 2x90
 241 -42 l 1
 234 -46 225 -49 217 -49 c 0
 209 -49 200 -46 193 -42 c 1
 196 96 l 1
 60 77 l 2
 59 77 59 76 58 76 c 0
 49 76 41 84 41 93 c 2x60
 34 542 l 1x80
199 322 m 1
 78 304 l 1
 76 178 l 1x50
 197 196 l 1
 199 322 l 1
EndSplineSet
EndChar

StartChar: accidentals.natural.arrowup
Encoding: 57374 57374 37
Width: 166
GlyphClass: 2
Flags: MW
VStem: -3 38 126 48<-375 -375> 130 37
LayerCount: 2
Fore
SplineSet
147 216 m 2xc0
 148 216 149 217 150 217 c 0
 159 217 167 209 167 200 c 2xa0
 174 -375 l 1
 167 -379 158 -381 150 -381 c 0
 142 -381 133 -379 126 -375 c 1
 128 -198 l 1
 19 -216 l 2
 18 -216 18 -217 17 -217 c 0
 8 -217 0 -209 0 -200 c 2
 -3 375 l 1
 -3 421 l 2
 -3 434 -9 439 -17 439 c 0
 -34 439 -65 417 -93 401 c 0
 -103 395 -113 407 -107 416 c 0
 -58 486 -23 565 9 645 c 0
 12 652 22 652 25 645 c 0
 57 565 91 486 140 416 c 0
 146 407 137 395 127 401 c 0
 99 417 67 439 50 439 c 0
 42 439 37 434 37 421 c 2
 36 375 l 1
 35 198 l 1
 147 216 l 2xc0
132 114 m 1
 35 98 l 1
 34 -114 l 1
 130 -98 l 1
 132 114 l 1
EndSplineSet
EndChar

StartChar: accidentals.natural.arrowdown
Encoding: 57375 57375 38
Width: 225
GlyphClass: 2
Flags: MW
VStem: 22 45 29 35 159 40<-421 -375>
LayerCount: 2
Fore
SplineSet
22 375 m 1xa0
 29 379 38 381 46 381 c 0
 54 381 63 379 70 375 c 1
 67 198 l 1xa0
 176 216 l 2
 177 216 178 217 179 217 c 0
 188 217 196 209 196 200 c 2
 199 -375 l 1
 199 -421 l 2
 199 -434 205 -439 213 -439 c 0
 230 -439 261 -417 289 -401 c 0
 299 -395 309 -407 303 -416 c 0
 254 -486 219 -565 187 -645 c 0
 184 -652 174 -652 171 -645 c 0
 139 -565 105 -486 56 -416 c 0
 50 -407 59 -395 69 -401 c 0
 97 -417 129 -439 146 -439 c 0
 154 -439 159 -434 159 -421 c 2
 159 -375 l 1
 160 -198 l 1
 49 -216 l 2
 48 -216 47 -217 46 -217 c 0
 37 -217 29 -209 29 -200 c 2x60
 22 375 l 1xa0
162 114 m 1
 66 98 l 1
 64 -114 l 1x60
 161 -98 l 1
 162 114 l 1
EndSplineSet
EndChar

StartChar: accidentals.natural.arrowboth
Encoding: 57376 57376 39
Width: 225
GlyphClass: 2
Flags: MW
VStem: 26 40<375 421 375 427.5> 159 40<-407 -375 -407 -375 -407 -375>
LayerCount: 2
Fore
SplineSet
159 -375 m 1
 160 -198 l 1
 49 -216 l 2
 48 -216 47 -217 46 -217 c 0
 37 -217 29 -209 29 -200 c 2
 26 375 l 1
 26 421 l 2
 26 434 20 439 12 439 c 0
 -5 439 -36 417 -64 401 c 0
 -74 395 -84 407 -78 416 c 0
 -29 486 6 565 38 645 c 0
 41 652 51 652 54 645 c 0
 86 565 120 486 169 416 c 0
 175 407 166 395 156 401 c 0
 128 417 96 439 79 439 c 0
 71 439 66 434 66 421 c 2
 66 375 l 1
 65 198 l 1
 176 216 l 2
 177 216 178 217 179 217 c 0
 188 217 196 209 196 200 c 2
 199 -375 l 2
 199 -439 200 -439 213 -439 c 0
 230 -439 261 -417 289 -401 c 0
 299 -395 309 -407 303 -416 c 0
 254 -486 219 -565 187 -645 c 0
 184 -652 174 -652 171 -645 c 0
 139 -565 105 -486 56 -416 c 0
 50 -407 59 -395 69 -401 c 0
 97 -417 129 -439 146 -439 c 0
 154 -439 159 -434 159 -421 c 2
 159 -375 l 1
162 114 m 1
 64 98 l 1
 63 -114 l 1
 161 -98 l 1
 162 114 l 1
EndSplineSet
EndChar

StartChar: accidentals.flat
Encoding: 57377 57377 40
Width: 200
GlyphClass: 2
Flags: MW
HStem: 106 38<91 94>
VStem: -25 50<463 463> -14 37 123 77<7.5 54>
LayerCount: 2
Fore
SplineSet
25 44 m 2xd0
 24 -25 l 2
 24 -29 23 -32 23 -36 c 0xb0
 23 -58 25 -80 27 -102 c 1
 73 -64 123 -22 123 37 c 0
 123 71 109 106 79 106 c 0
 48 106 26 77 25 44 c 2xd0
-25 463 m 1xd0
 -17 467 -9 470 0 470 c 0
 9 470 17 467 25 463 c 1xd0
 19 114 l 1
 45 133 75 144 107 144 c 0
 160 144 200 98 200 44 c 0
 200 -38 110 -74 47 -125 c 0
 33 -136 25 -157 7 -157 c 0
 -5 -157 -14 -148 -14 -136 c 2xb0
 -25 463 l 1xd0
EndSplineSet
EndChar

StartChar: accidentals.flat.figbass
Encoding: 9837 9837 41
Width: 275
GlyphClass: 2
Flags: MW
HStem: 221 38<141.5 142.5>
VStem: 29 50<542 542> 169 77<124.5 170>
LayerCount: 2
Fore
SplineSet
79 163 m 2
 77 90 l 1
 77 78 l 2
 77 56 79 35 81 14 c 1
 125 52 169 96 169 153 c 0
 169 187 157 221 128 221 c 0
 99 221 80 194 79 163 c 2
29 542 m 1
 37 546 45 549 54 549 c 0
 63 549 71 546 79 542 c 1
 72 229 l 1
 96 248 126 259 157 259 c 0
 208 259 246 212 246 159 c 0
 246 79 160 42 99 -10 c 0
 86 -21 79 -42 61 -42 c 0
 44 -42 40 -20 40 0 c 2
 29 542 l 1
EndSplineSet
EndChar

StartChar: accidentals.flat.arrowup
Encoding: 57378 57378 42
Width: 200
GlyphClass: 2
Flags: MW
HStem: 106 38<91 94>
VStem: -14 31 123 77<7.5 54>
LayerCount: 2
Fore
SplineSet
25 44 m 2
 24 -25 l 2
 24 -29 23 -32 23 -36 c 0
 23 -58 25 -80 27 -102 c 1
 73 -64 123 -22 123 37 c 0
 123 71 109 106 79 106 c 0
 48 106 26 77 25 44 c 2
20 375 m 1
 17 114 l 1
 43 133 75 144 107 144 c 0
 160 144 200 98 200 44 c 0
 200 -38 110 -74 47 -125 c 0
 33 -136 25 -157 7 -157 c 0
 -5 -157 -14 -148 -14 -136 c 2
 -20 375 l 2
 -21 439 -21 439 -34 439 c 0
 -51 439 -83 417 -111 401 c 0
 -121 395 -132 407 -125 416 c 0
 -76 486 -40 565 -8 645 c 0
 -5 652 5 652 8 645 c 0
 40 565 76 486 125 416 c 0
 132 407 121 395 111 401 c 0
 83 417 51 439 34 439 c 0
 26 439 21 434 21 421 c 2
 20 375 l 1
EndSplineSet
EndChar

StartChar: accidentals.flat.arrowdown
Encoding: 57379 57379 43
Width: 200
GlyphClass: 2
Flags: MW
HStem: 106 38<91 94>
VStem: -25 50<463 463> -14 31<-294 -168> 123 77<7.5 54>
LayerCount: 2
Fore
SplineSet
25 44 m 2xd0
 24 -25 l 2
 24 -29 23 -32 23 -36 c 0
 23 -58 25 -80 27 -102 c 1
 73 -64 123 -22 123 37 c 0
 123 71 109 106 79 106 c 0
 48 106 26 77 25 44 c 2xd0
200 44 m 0
 200 -68 17 -108 17 -168 c 2
 17 -294 l 2
 17 -307 22 -312 31 -312 c 0
 49 -312 80 -292 108 -276 c 0
 115 -272 123 -280 118 -287 c 0
 37 -403 9 -555 -5 -520 c 0
 -37 -440 -66 -358 -116 -287 c 0
 -121 -280 -112 -272 -105 -276 c 0
 -77 -292 -46 -312 -28 -312 c 0
 -19 -312 -14 -307 -14 -294 c 2
 -14 -136 l 1xb0
 -25 463 l 1
 -17 467 -9 470 0 470 c 0
 9 470 17 467 25 463 c 1
 19 114 l 1
 45 133 75 144 107 144 c 0
 160 144 200 98 200 44 c 0
EndSplineSet
EndChar

StartChar: accidentals.flat.arrowboth
Encoding: 57380 57380 44
Width: 200
GlyphClass: 2
Flags: MW
HStem: 106 38<91 94>
VStem: -21 42<421 427.5> -14 31<-294 -168> 123 77<7.5 54>
LayerCount: 2
Fore
SplineSet
25 44 m 2x90
 24 -25 l 2
 24 -29 23 -32 23 -36 c 0
 23 -58 25 -80 27 -102 c 1
 73 -64 123 -22 123 37 c 0
 123 71 109 106 79 106 c 0
 48 106 26 77 25 44 c 2x90
200 44 m 0
 200 -68 17 -108 17 -168 c 2
 17 -294 l 2
 17 -307 22 -312 31 -312 c 0
 49 -312 80 -292 108 -276 c 0
 115 -272 123 -280 118 -287 c 0
 37 -403 9 -555 -5 -520 c 0
 -37 -440 -66 -358 -116 -287 c 0
 -121 -280 -112 -272 -105 -276 c 0
 -77 -292 -46 -312 -28 -312 c 0
 -19 -312 -14 -307 -14 -294 c 2
 -14 -136 l 2xb0
 -16 34 -18 205 -20 375 c 2
 -21 421 l 2
 -21 434 -26 439 -34 439 c 0
 -51 439 -83 417 -111 401 c 0
 -121 395 -132 407 -125 416 c 0
 -76 486 -40 565 -8 645 c 0
 -5 652 5 652 8 645 c 0
 40 565 76 486 125 416 c 0
 132 407 121 395 111 401 c 0
 83 417 51 439 34 439 c 0
 26 439 21 434 21 421 c 2xd0
 20 375 l 1
 17 114 l 1xb0
 43 133 75 144 107 144 c 0
 160 144 200 98 200 44 c 0
EndSplineSet
EndChar

StartChar: accidentals.flat.slash
Encoding: 57381 57381 45
Width: 200
GlyphClass: 2
Flags: MW
HStem: 106 38<91 94>
VStem: -21 43<257 279> -14 37 123 77<7.5 54>
LayerCount: 2
Fore
SplineSet
25 44 m 2xb0
 24 -25 l 2
 24 -29 23 -32 23 -36 c 0
 23 -58 25 -80 27 -102 c 1
 73 -64 123 -22 123 37 c 0
 123 71 109 106 79 106 c 0
 48 106 26 77 25 44 c 2xb0
-21 222 m 1xd0
 -93 186 l 2
 -112 177 -126 206 -107 215 c 2
 -21 257 l 1
 -25 463 l 1
 -17 467 -9 470 0 470 c 0
 9 470 17 467 25 463 c 1
 22 279 l 1xd0
 93 315 l 2
 112 324 126 295 107 286 c 2
 21 242 l 1
 19 114 l 1
 45 133 75 144 107 144 c 0
 160 144 200 98 200 44 c 0
 200 -38 110 -74 47 -125 c 0
 33 -136 25 -157 7 -157 c 0
 -5 -157 -14 -148 -14 -136 c 2xb0
 -21 222 l 1xd0
EndSplineSet
EndChar

StartChar: accidentals.flat.slashslash
Encoding: 57382 57382 46
Width: 200
GlyphClass: 2
Flags: MW
HStem: 106 38<91 94>
VStem: -14 37 123 77<7.5 54>
LayerCount: 2
Fore
SplineSet
25 44 m 2
 24 -25 l 2
 24 -29 23 -32 23 -36 c 0
 23 -58 25 -80 27 -102 c 1
 73 -64 123 -22 123 37 c 0
 123 71 109 106 79 106 c 0
 48 106 26 77 25 44 c 2
-19 160 m 1
 -93 123 l 2
 -112 114 -126 143 -107 152 c 2
 -20 196 l 1
 -22 284 l 1
 -93 248 l 2
 -112 239 -126 268 -107 277 c 2
 -22 319 l 1
 -25 463 l 1
 -17 467 -9 470 0 470 c 0
 9 470 17 467 25 463 c 1
 23 342 l 1
 93 377 l 2
 112 386 126 357 107 348 c 2
 22 305 l 1
 20 216 l 1
 93 252 l 2
 112 261 126 232 107 223 c 2
 20 179 l 1
 19 114 l 1
 45 133 75 144 107 144 c 0
 160 144 200 98 200 44 c 0
 200 -38 110 -74 47 -125 c 0
 33 -136 25 -157 7 -157 c 0
 -5 -157 -14 -148 -14 -136 c 2
 -19 160 l 1
EndSplineSet
EndChar

StartChar: accidentals.mirroredflat.flat
Encoding: 57383 57383 47
Width: 400
GlyphClass: 2
Flags: MW
HStem: 106 38<106 110 67.5 136.5 291 294>
VStem: 1 76<7.5 54 7.5 71> 182 37<114 114> 323 77<7.5 54>
LayerCount: 2
Fore
SplineSet
207 -157 m 2
 194 -157 l 2
 176 -157 168 -136 154 -125 c 0
 91 -74 1 -38 1 44 c 0
 1 98 41 144 94 144 c 0
 126 144 156 133 182 114 c 1
 175 463 l 1
 183 467 191 470 200 470 c 0
 209 470 217 467 225 463 c 1
 219 114 l 1
 245 133 275 144 307 144 c 0
 360 144 400 98 400 44 c 0
 400 -38 310 -74 247 -125 c 0
 233 -136 225 -157 207 -157 c 2
175 44 m 2
 174 77 152 106 121 106 c 0
 91 106 77 71 77 37 c 0
 77 -22 127 -64 173 -102 c 1
 175 -80 177 -58 177 -36 c 0
 177 -32 176 -29 176 -25 c 2
 175 44 l 2
225 44 m 2
 224 -25 l 2
 224 -29 223 -32 223 -36 c 0
 223 -58 225 -80 227 -102 c 1
 273 -64 323 -22 323 37 c 0
 323 71 309 106 279 106 c 0
 248 106 226 77 225 44 c 2
EndSplineSet
EndChar

StartChar: accidentals.mirroredflat
Encoding: 57384 57384 48
Width: 200
GlyphClass: 2
Flags: MW
HStem: 106 38<80 83 40.5 110.5>
VStem: -26 77<7.5 54 7.5 71> 149 50<463 463> 151 37
LayerCount: 2
Fore
SplineSet
149 44 m 2xe0
 148 77 126 106 95 106 c 0
 65 106 51 71 51 37 c 0
 51 -22 101 -64 147 -102 c 1
 149 -80 151 -58 151 -36 c 0xd0
 151 -32 150 -29 150 -25 c 2
 149 44 l 2xe0
199 463 m 1
 188 -136 l 2
 188 -148 179 -157 167 -157 c 0
 149 -157 141 -136 127 -125 c 0
 64 -74 -26 -38 -26 44 c 0
 -26 98 14 144 67 144 c 0
 99 144 129 133 155 114 c 1
 149 463 l 1
 157 467 165 470 174 470 c 0
 183 470 191 467 199 463 c 1
EndSplineSet
EndChar

StartChar: accidentals.mirroredflat.backslash
Encoding: 57385 57385 49
Width: 200
GlyphClass: 2
Flags: MW
HStem: 106 38<6 9 -33.5 36.5>
VStem: -100 77<7.5 54 7.5 71> 77 37 79 42<224 239 239 260>
LayerCount: 2
Fore
SplineSet
75 44 m 2xe0
 74 77 52 106 21 106 c 0
 -9 106 -23 71 -23 37 c 0
 -23 -22 27 -64 73 -102 c 1
 75 -80 77 -58 77 -36 c 0
 77 -32 76 -29 76 -25 c 2
 75 44 l 2xe0
120 203 m 1
 114 -136 l 2xe0
 114 -148 105 -157 93 -157 c 0
 75 -157 67 -136 53 -125 c 0
 -10 -74 -100 -38 -100 44 c 0
 -100 98 -60 144 -7 144 c 0
 25 144 55 133 81 114 c 1
 79 224 l 1
 -7 267 l 2
 -26 276 -12 305 7 296 c 2
 79 260 l 1
 75 463 l 1
 83 467 91 470 100 470 c 0
 109 470 117 467 125 463 c 1
 121 239 l 1xd0
 207 196 l 2
 226 187 212 158 193 167 c 2
 120 203 l 1
EndSplineSet
EndChar

StartChar: accidentals.flatflat
Encoding: 57386 57386 50
Width: 362
GlyphClass: 2
Flags: MW
HStem: 106 38<44.5 98 251.5 252.5>
VStem: -25 50<463 463> -14 30 92 94<-47 53.5> 137 51<463 463> 147 39<-30 -30> 279 83<8 54>
LayerCount: 2
Fore
SplineSet
187 44 m 2x86
 186 -25 l 1x92
 186 -36 l 2
 186 -58 188 -80 190 -102 c 1
 235 -65 279 -21 279 37 c 0
 279 71 267 106 238 106 c 0
 208 106 188 76 187 44 c 2x86
147 -30 m 1x86
 119 -65 76 -93 42 -125 c 0
 30 -136 24 -157 7 -157 c 0
 -5 -157 -14 -148 -14 -136 c 2xa6
 -25 463 l 1
 -17 467 -9 470 0 470 c 0
 9 470 17 467 25 463 c 1
 19 114 l 1
 37 133 61 144 87 144 c 0
 109 144 129 135 144 121 c 1
 137 463 l 1
 145 467 153 470 162 470 c 0
 171 470 180 467 188 463 c 1xca
 181 114 l 1
 205 133 236 144 267 144 c 0
 321 144 362 99 362 45 c 0
 362 -37 272 -73 209 -125 c 0
 195 -136 188 -157 170 -157 c 0
 158 -157 149 -148 149 -136 c 2
 147 -30 l 1x86
16 -25 m 1
 16 -36 l 2
 16 -59 17 -81 20 -104 c 1
 60 -66 92 -18 92 37 c 0xb2
 92 70 86 106 58 106 c 0
 31 106 18 75 17 44 c 2
 16 -25 l 1
EndSplineSet
EndChar

StartChar: accidentals.flatflat.figbass
Encoding: 119083 119083 51
Width: 412
GlyphClass: 2
Flags: MW
HStem: 221 38<64.5 129.5 298 300>
VStem: 0 50<542 542> 11 30 181 50<542 542> 190 40<68 107> 329 84<123 170>
LayerCount: 2
Fore
SplineSet
231 163 m 2x94
 230 90 l 1
 230 79 l 2x8c
 230 57 230 34 233 12 c 1
 280 49 329 93 329 153 c 0
 329 187 315 221 285 221 c 0
 254 221 232 195 231 163 c 2x94
231 542 m 1xd4
 225 229 l 1
 251 248 282 259 314 259 c 0
 369 259 413 215 413 160 c 0
 413 77 319 41 254 -10 c 0
 240 -21 232 -42 213 -42 c 0
 196 -42 192 -20 192 0 c 2
 190 107 l 1
 165 61 110 29 68 -10 c 0
 56 -21 49 -42 32 -42 c 0
 15 -42 11 -20 11 0 c 2xac
 0 542 l 1
 8 546 16 549 25 549 c 0
 34 549 42 546 50 542 c 1
 44 229 l 1
 62 248 88 259 114 259 c 0
 145 259 172 241 188 216 c 1
 181 542 l 1
 189 546 197 549 206 549 c 0
 215 549 223 546 231 542 c 1xd4
41 79 m 0
 41 56 42 33 45 10 c 1
 87 48 121 97 121 153 c 0
 121 186 114 221 86 221 c 0
 43 221 41 173 41 79 c 0
EndSplineSet
EndChar

StartChar: accidentals.flatflat.slash
Encoding: 57387 57387 52
Width: 362
GlyphClass: 2
Flags: MW
HStem: 106 38<44.5 98 251.5 252.5>
VStem: -14 30 92 94<-47 53.5> 147 39<-30 -30> 279 83<8 54>
LayerCount: 2
Fore
SplineSet
187 44 m 2xd8
 186 -25 l 1xe8
 186 -36 l 2
 186 -58 188 -80 190 -102 c 1
 235 -65 279 -21 279 37 c 0
 279 71 267 106 238 106 c 0
 208 106 188 76 187 44 c 2xd8
272 384 m 0
 284 384 293 375 293 363 c 0
 293 355 289 348 282 344 c 2
 184 289 l 1
 181 114 l 1
 205 133 236 144 267 144 c 0
 321 144 362 99 362 45 c 0
 362 -37 272 -73 209 -125 c 0
 195 -136 188 -157 170 -157 c 0
 158 -157 149 -148 149 -136 c 2
 147 -30 l 1xd8
 119 -65 76 -93 42 -125 c 0
 30 -136 24 -157 7 -157 c 0
 -5 -157 -14 -148 -14 -136 c 2
 -20 176 l 1
 -122 119 l 2
 -125 117 -128 116 -132 116 c 0
 -144 116 -154 125 -154 137 c 0
 -154 145 -150 152 -143 156 c 2
 -21 224 l 1
 -25 463 l 1
 -17 467 -9 470 0 470 c 0
 9 470 17 467 25 463 c 1
 21 248 l 1
 140 314 l 1
 137 463 l 1
 145 467 153 470 162 470 c 0
 171 470 180 467 188 463 c 1
 185 339 l 1
 261 381 l 2
 264 383 268 384 272 384 c 0
141 265 m 1
 20 198 l 1
 19 114 l 1
 37 133 61 144 87 144 c 0
 109 144 129 135 144 121 c 1
 141 265 l 1
16 -25 m 1
 16 -36 l 2
 16 -59 17 -81 20 -104 c 1
 60 -66 92 -18 92 37 c 0xe8
 92 70 86 106 58 106 c 0
 31 106 18 75 17 44 c 2
 16 -25 l 1
EndSplineSet
EndChar

StartChar: accidentals.sharp.sori
Encoding: 57388 57388 53
Width: 330
GlyphClass: 2
Flags: MW
VStem: 71 34<-320 -181 -181 -181 -72 72 137 285> 191 34<-285 -114 -114 -114 70 320>
LayerCount: 2
Fore
SplineSet
105 -320 m 2
 105 -329 97 -337 88 -337 c 0
 79 -337 71 -329 71 -320 c 2
 71 -181 l 1
 24 -207 l 2
 22 -208 19 -209 16 -209 c 0
 7 -209 0 -202 0 -193 c 2
 0 -140 l 2
 0 -134 3 -129 8 -126 c 2
 71 -91 l 1
 71 91 l 1
 8 126 l 2
 3 129 0 134 0 140 c 2
 0 150 l 2
 0 159 7 166 16 166 c 0
 19 166 22 165 24 164 c 2
 71 137 l 1
 71 285 l 2
 71 294 79 302 88 302 c 0
 97 302 105 294 105 285 c 2
 105 118 l 1
 191 70 l 1
 191 320 l 2
 191 329 199 337 208 337 c 0
 217 337 225 329 225 320 c 2
 225 51 l 1
 322 -3 l 2
 327 -6 330 -11 330 -17 c 2
 330 -27 l 2
 330 -33 327 -37 322 -40 c 2
 225 -94 l 1
 225 -285 l 2
 225 -294 217 -302 208 -302 c 0
 199 -302 191 -294 191 -285 c 2
 191 -114 l 1
 105 -162 l 1
 105 -320 l 2
105 -72 m 1
 234 0 l 1
 105 72 l 1
 105 -72 l 1
EndSplineSet
EndChar

StartChar: accidentals.flat.koron
Encoding: 57389 57389 54
Width: 275
GlyphClass: 2
Flags: MW
VStem: -20 40<-87 117>
LayerCount: 2
Fore
SplineSet
-25 -463 m 1
 -20 -125 l 1
 -20 133 l 2
 -20 145 -10 153 0 153 c 0
 3 153 7 153 10 151 c 2
 265 -11 l 2
 279 -20 278 -40 265 -46 c 2
 20 -161 l 1
 25 -463 l 1
 17 -467 9 -470 0 -470 c 0
 -9 -470 -17 -467 -25 -463 c 1
20 -87 m 1
 205 0 l 1
 20 117 l 1
 20 -87 l 1
EndSplineSet
EndChar

StartChar: accidentals.rightparen
Encoding: 57390 57390 55
Width: 146
GlyphClass: 2
Flags: MW
VStem: 102 46<-46.5 46.5 -46.5 96>
LayerCount: 2
Fore
SplineSet
39 -250 m 0
 39 -234 102 -192 102 0 c 0
 102 192 39 234 39 250 c 0
 39 256 44 261 50 261 c 0
 53 261 57 259 59 256 c 0
 112 180 148 93 148 0 c 0
 148 -93 112 -180 59 -256 c 0
 57 -259 53 -261 50 -261 c 0
 44 -261 39 -256 39 -250 c 0
EndSplineSet
EndChar

StartChar: accidentals.leftparen
Encoding: 57391 57391 56
Width: 0
GlyphClass: 2
Flags: MW
VStem: -148 46<-46.5 46.5>
LayerCount: 2
Fore
SplineSet
-39 -250 m 0
 -39 -256 -44 -261 -50 -261 c 0
 -53 -261 -57 -259 -59 -256 c 0
 -112 -180 -148 -93 -148 0 c 0
 -148 93 -112 180 -59 256 c 0
 -57 259 -53 261 -50 261 c 0
 -44 261 -39 256 -39 250 c 0
 -39 234 -102 192 -102 0 c 0
 -102 -192 -39 -234 -39 -250 c 0
EndSplineSet
EndChar

StartChar: arrowheads.open.01
Encoding: 57392 57392 57
Width: 17
GlyphClass: 2
Flags: MW
HStem: -17 34<-42.5 6>
LayerCount: 2
Fore
SplineSet
0 17 m 0
 12 17 17 9 17 0 c 0
 17 -9 12 -17 0 -17 c 0
 -85 -17 -165 -55 -220 -119 c 0
 -235 -136 -261 -114 -246 -97 c 0
 -208 -53 -159 -19 -104 0 c 1
 -180 26 -271 98 -244 121 c 0
 -237 127 -226 126 -220 119 c 0
 -165 55 -85 17 0 17 c 0
EndSplineSet
EndChar

StartChar: arrowheads.open.0M1
Encoding: 57393 57393 58
Width: 250
GlyphClass: 2
Flags: MW
HStem: -17 34<-6 42.5>
LayerCount: 2
Fore
SplineSet
0 17 m 0
 85 17 165 55 220 119 c 0
 226 126 237 127 244 121 c 0
 271 98 180 26 104 0 c 1
 159 -19 208 -53 246 -97 c 0
 261 -114 235 -136 220 -119 c 0
 165 -55 85 -17 0 -17 c 0
 -12 -17 -17 -9 -17 0 c 0
 -17 9 -12 17 0 17 c 0
EndSplineSet
EndChar

StartChar: arrowheads.open.11
Encoding: 57394 57394 59
Width: 125
GlyphClass: 2
Flags: MW
VStem: -17 34<-42.5 6>
LayerCount: 2
Fore
SplineSet
-17 0 m 0
 -17 12 -9 17 0 17 c 0
 9 17 17 12 17 0 c 0
 17 -85 55 -165 119 -220 c 0
 136 -235 114 -261 97 -246 c 0
 53 -208 19 -159 0 -104 c 1
 -26 -180 -98 -271 -121 -244 c 0
 -127 -237 -126 -226 -119 -220 c 0
 -55 -165 -17 -85 -17 0 c 0
EndSplineSet
EndChar

StartChar: arrowheads.open.1M1
Encoding: 57395 57395 60
Width: 125
GlyphClass: 2
Flags: MW
VStem: -17 34<-6 42.5>
LayerCount: 2
Fore
SplineSet
-17 0 m 0
 -17 85 -55 165 -119 220 c 0
 -126 226 -127 237 -121 244 c 0
 -98 271 -26 180 0 104 c 1
 19 159 53 208 97 246 c 0
 114 261 136 235 119 220 c 0
 55 165 17 85 17 0 c 0
 17 -12 9 -17 0 -17 c 0
 -9 -17 -17 -12 -17 0 c 0
EndSplineSet
EndChar

StartChar: arrowheads.close.01
Encoding: 57396 57396 61
Width: 0
GlyphClass: 2
Flags: MW
HStem: -8 16<-30.5 5.5>
LayerCount: 2
Fore
SplineSet
0 8 m 0
 11 8 11 -8 0 -8 c 0
 -61 -8 -198 -74 -236 -122 c 0
 -241 -128 -252 -124 -250 -116 c 0
 -243 -78 -239 -39 -239 0 c 0
 -239 87 -255 117 -247 123 c 0
 -244 126 -239 125 -236 122 c 0
 -198 74 -61 8 0 8 c 0
EndSplineSet
EndChar

StartChar: arrowheads.close.0M1
Encoding: 57397 57397 62
Width: 250
GlyphClass: 2
Flags: MW
HStem: -8 16<-5.5 30.5>
LayerCount: 2
Fore
SplineSet
0 8 m 0
 61 8 198 74 236 122 c 0
 239 125 244 126 247 123 c 0
 255 117 239 87 239 0 c 0
 239 -39 243 -78 250 -116 c 0
 252 -124 241 -128 236 -122 c 0
 198 -74 61 -8 0 -8 c 0
 -11 -8 -11 8 0 8 c 0
EndSplineSet
EndChar

StartChar: arrowheads.close.11
Encoding: 57398 57398 63
Width: 125
GlyphClass: 2
Flags: MW
VStem: -8 16<-30.5 5.5>
LayerCount: 2
Fore
SplineSet
-8 0 m 0
 -8 11 8 11 8 0 c 0
 8 -61 74 -198 122 -236 c 0
 128 -241 124 -252 116 -250 c 0
 78 -243 39 -239 0 -239 c 0
 -87 -239 -117 -255 -123 -247 c 0
 -126 -244 -125 -239 -122 -236 c 0
 -74 -198 -8 -61 -8 0 c 0
EndSplineSet
EndChar

StartChar: arrowheads.close.1M1
Encoding: 57399 57399 64
Width: 125
GlyphClass: 2
Flags: MW
VStem: -8 16<-5.5 30.5>
LayerCount: 2
Fore
SplineSet
8 0 m 0
 8 -11 -8 -11 -8 0 c 0
 -8 61 -74 198 -122 236 c 0
 -128 241 -124 252 -116 250 c 0
 -78 243 -39 239 0 239 c 0
 87 239 117 255 123 247 c 0
 126 244 125 239 122 236 c 0
 74 198 8 61 8 0 c 0
EndSplineSet
EndChar

StartChar: dots.dot
Encoding: 57400 57400 65
Width: 114
GlyphClass: 2
Flags: MW
HStem: -57 114<41 73>
VStem: 0 114<-16 16>
LayerCount: 2
Fore
SplineSet
0 0 m 0
 0 32 25 57 57 57 c 0
 89 57 114 32 114 0 c 0
 114 -32 89 -57 57 -57 c 0
 25 -57 0 -32 0 0 c 0
EndSplineSet
EndChar

StartChar: scripts.flageolet
Encoding: 57441 57441 66
Width: 100
GlyphClass: 2
Flags: MW
HStem: -100 20<-22 22 -22 27.5> 80 20<-22 22>
VStem: -100 20<-22 22 -22 27.5> 80 20<-22 22>
LayerCount: 2
Fore
SplineSet
0 100 m 0
 55 100 100 55 100 0 c 0
 100 -55 55 -100 0 -100 c 0
 -55 -100 -100 -55 -100 0 c 0
 -100 55 -55 100 0 100 c 0
0 80 m 0
 -44 80 -80 44 -80 0 c 0
 -80 -44 -44 -80 0 -80 c 0
 44 -80 80 -44 80 0 c 0
 80 44 44 80 0 80 c 0
EndSplineSet
EndChar

StartChar: scripts.rcomma
Encoding: 57446 57446 67
Width: 120
GlyphClass: 2
Flags: MW
HStem: 38 108<41.5 51 51 74.5 41.5 76>
VStem: 0 120<-79.5 63 75 82 12.5 104.5>
LayerCount: 2
Fore
SplineSet
57 146 m 0
 92 146 120 117 120 82 c 2
 120 63 l 2
 120 -38 25 -89 13 -89 c 0
 6 -89 0 -83 0 -76 c 0
 0 -59 63 -52 76 38 c 1
 51 38 l 2
 23 38 0 61 0 89 c 0
 0 120 26 146 57 146 c 0
EndSplineSet
EndChar

StartChar: scripts.lcomma
Encoding: 57447 57447 68
Width: 0
GlyphClass: 2
Flags: MW
HStem: -146 108<-74.5 -51 -51 -41.5>
VStem: -120 120<-82 -75 -104.5 -63 -104.5 -12.5>
LayerCount: 2
Fore
SplineSet
-57 -146 m 0
 -92 -146 -120 -117 -120 -82 c 2
 -120 -63 l 2
 -120 38 -25 89 -13 89 c 0
 -6 89 0 83 0 76 c 0
 0 59 -63 52 -76 -38 c 1
 -51 -38 l 2
 -23 -38 0 -61 0 -89 c 0
 0 -120 -26 -146 -57 -146 c 0
EndSplineSet
EndChar

StartChar: scripts.rvarcomma
Encoding: 57448 57448 69
Width: 62
GlyphClass: 2
Flags: MW
VStem: 33 62<148 162>
LayerCount: 2
Fore
SplineSet
62 183 m 0
 80 183 95 167 95 150 c 0
 95 146 94 142 92 138 c 2
 -51 -155 l 2
 -58 -170 -80 -161 -74 -145 c 2
 33 162 l 2
 37 175 49 183 62 183 c 0
EndSplineSet
EndChar

StartChar: scripts.lvarcomma
Encoding: 57449 57449 70
Width: 62
GlyphClass: 2
Flags: MW
VStem: -95 62<-162 -148>
LayerCount: 2
Fore
SplineSet
-62 -183 m 0
 -80 -183 -95 -167 -95 -150 c 0
 -95 -146 -94 -142 -92 -138 c 2
 51 155 l 2
 58 170 80 161 74 145 c 2
 -33 -162 l 2
 -37 -175 -49 -183 -62 -183 c 0
EndSplineSet
EndChar

StartChar: scripts.raltcomma
Encoding: 57450 57450 71
Width: 125
GlyphClass: 2
Flags: MW
VStem: 50 52<19.5 46.5>
LayerCount: 2
Fore
SplineSet
50 12 m 0
 50 81 15 101 15 123 c 0
 15 141 30 156 48 156 c 0
 82 156 102 95 102 53 c 0
 102 -14 64 -85 21 -147 c 0
 11 -161 -10 -146 0 -132 c 0
 30 -89 50 -37 50 12 c 0
EndSplineSet
EndChar

StartChar: scripts.laltcomma
Encoding: 57451 57451 72
Width: 0
GlyphClass: 2
Flags: MW
VStem: -102 52<-46.5 -19.5>
LayerCount: 2
Fore
SplineSet
-50 -12 m 0
 -50 -81 -15 -101 -15 -123 c 0
 -15 -141 -30 -156 -48 -156 c 0
 -82 -156 -102 -95 -102 -53 c 0
 -102 14 -64 85 -21 147 c 0
 -11 161 10 146 0 132 c 0
 -30 89 -50 37 -50 -12 c 0
EndSplineSet
EndChar

StartChar: scripts.arpeggio
Encoding: 57452 57452 73
Width: 200
GlyphClass: 2
Flags: MW
VStem: -1 110<70.5 76.5 34.5 95> 91 110<173.5 179.5 155 215.5>
LayerCount: 2
Fore
SplineSet
-1 74 m 0x80
 -1 116 91 140 91 207 c 0
 91 224 85 240 74 254 c 2
 43 279 l 2
 39 282 37 286 37 290 c 0
 37 298 44 306 52 306 c 0
 55 306 59 304 62 301 c 2
 190 196 l 2
 198 189 201 183 201 176 c 0x40
 201 134 109 110 109 43 c 0
 109 26 115 10 126 -4 c 2
 157 -29 l 2
 161 -32 163 -36 163 -40 c 0
 163 -48 156 -55 148 -55 c 0
 145 -55 141 -54 138 -51 c 2
 10 54 l 2
 2 61 -1 67 -1 74 c 0x80
EndSplineSet
EndChar

StartChar: scripts.trill_element
Encoding: 57453 57453 74
Width: 250
GlyphClass: 2
Flags: MW
HStem: -1 110<173.5 179.5> 91 110<70.5 76.5>
LayerCount: 2
Fore
SplineSet
176 -1 m 0x80
 134 -1 110 91 43 91 c 0
 26 91 10 85 -4 74 c 2
 -29 43 l 2
 -32 39 -36 37 -40 37 c 0
 -48 37 -56 44 -56 52 c 0
 -56 55 -54 59 -51 62 c 2
 54 190 l 2
 61 198 67 201 74 201 c 0x40
 116 201 140 109 207 109 c 0
 224 109 240 115 254 126 c 2
 279 157 l 2
 282 161 286 163 290 163 c 0
 298 163 305 156 305 148 c 0
 305 145 304 141 301 138 c 2
 196 10 l 2
 189 2 183 -1 176 -1 c 0x80
EndSplineSet
EndChar

StartChar: scripts.arpeggio.arrow.M1
Encoding: 57454 57454 75
Width: 200
GlyphClass: 2
Flags: MW
HStem: 3 303
VStem: -60 318
LayerCount: 2
Fore
SplineSet
43 279 m 2
 38 283 36 287 36 291 c 0
 36 299 43 306 51 306 c 0
 54 306 59 304 62 301 c 2
 148 210 l 2
 159 198 165 183 168 167 c 1
 247 205 l 2
 264 213 260 198 258 195 c 0
 205 132 134 81 106 3 c 0
 105 0 96 -1 95 2 c 0
 61 96 -59 180 -60 200 c 1
 -60 200 -60 212 -48 206 c 2
 46 161 l 1
 64 184 90 205 90 227 c 0
 90 236 86 245 74 254 c 2
 43 279 l 2
EndSplineSet
EndChar

StartChar: scripts.arpeggio.arrow.1
Encoding: 57455 57455 76
Width: 200
GlyphClass: 2
Flags: MW
HStem: -56 303
VStem: -58 318
LayerCount: 2
Fore
SplineSet
157 -29 m 2
 162 -33 164 -37 164 -41 c 0
 164 -49 157 -56 149 -56 c 0
 146 -56 141 -54 138 -51 c 2
 52 40 l 2
 41 52 35 67 32 83 c 1
 -47 45 l 2
 -64 37 -60 52 -58 55 c 0
 -5 118 66 169 94 247 c 0
 95 250 104 251 105 248 c 0
 139 154 259 70 260 50 c 1
 260 50 260 38 248 44 c 2
 154 89 l 1
 136 66 110 45 110 23 c 0
 110 14 114 5 126 -4 c 2
 157 -29 l 2
EndSplineSet
EndChar

StartChar: scripts.snappizzicato
Encoding: 57470 57470 77
Width: 133
GlyphClass: 2
Flags: MW
HStem: -133 28<-29 29 -29 37> 104 29<-14 -14 -14 14>
VStem: -133 28<-29 26.5 -29 34.5> -14 28<0 104 133 200> 105 28<-29 26.5>
LayerCount: 2
Fore
SplineSet
14 0 m 2
 14 -8 8 -14 0 -14 c 0
 -8 -14 -14 -8 -14 0 c 2
 -14 104 l 1
 -65 97 -105 53 -105 0 c 0
 -105 -58 -58 -105 0 -105 c 0
 58 -105 105 -58 105 0 c 0
 105 53 65 97 14 104 c 1
 14 0 l 2
-14 133 m 1
 -14 200 l 2
 -14 208 -8 214 0 214 c 0
 8 214 14 208 14 200 c 2
 14 133 l 1
 81 126 133 69 133 0 c 0
 133 -74 74 -133 0 -133 c 0
 -74 -133 -133 -74 -133 0 c 0
 -133 69 -81 126 -14 133 c 1
EndSplineSet
EndChar

StartChar: clefs.C
Encoding: 57471 57471 78
Width: 676
GlyphClass: 2
Flags: MW
HStem: -500 26<395 466.5 395 495> -236 162<309 372.5> -70 25<430.5 491.5> 45 25<430.5 491.5 409 507.5> 74 162<309 372.5> 474 26<395 466.5>
VStem: 0 138<-492 492> 177 38<-492 -18 18 492> 254 103<-446 -336> 299 25<-227.5 -184.5 184.5 227.5> 549 128<-316.5 -197.5 197.5 316.5>
LayerCount: 2
Fore
SplineSet
312 0 m 0xffa0
 312 -37 321 -74 358 -74 c 0
 387 -74 415 -45 446 -45 c 0
 569 -45 677 -132 677 -250 c 0
 677 -420 582 -500 408 -500 c 0
 325 -500 254 -438 254 -357 c 0
 254 -315 289 -280 331 -280 c 0
 373 -280 408 -315 408 -357 c 0
 408 -397 357 -394 357 -434 c 0xffa0
 357 -458 382 -474 408 -474 c 0
 525 -474 549 -383 549 -250 c 0
 549 -145 537 -70 446 -70 c 0
 372 -70 324 -144 324 -223 c 0
 324 -232 318 -236 312 -236 c 0
 306 -236 299 -232 299 -223 c 0
 299 -146 268 -73 215 -18 c 1
 215 -492 l 2
 215 -496 211 -500 207 -500 c 2
 185 -500 l 2
 181 -500 177 -496 177 -492 c 2
 177 492 l 2
 177 496 181 500 185 500 c 2
 207 500 l 2
 211 500 215 496 215 492 c 2
 215 18 l 1
 268 73 299 146 299 223 c 0
 299 232 306 236 312 236 c 0
 318 236 324 232 324 223 c 0xff60
 324 144 372 70 446 70 c 0
 537 70 549 145 549 250 c 0
 549 383 525 474 408 474 c 0
 382 474 357 458 357 434 c 0
 357 394 408 397 408 357 c 0
 408 315 373 280 331 280 c 0
 289 280 254 315 254 357 c 0
 254 438 325 500 408 500 c 0
 582 500 677 420 677 250 c 0
 677 132 569 45 446 45 c 0
 415 45 387 74 358 74 c 0
 335 74 312 59 312 0 c 0xffa0
130 -500 m 2
 8 -500 l 2
 4 -500 0 -496 0 -492 c 2
 0 492 l 2
 0 496 4 500 8 500 c 2
 130 500 l 2
 134 500 138 496 138 492 c 2
 138 -492 l 2
 138 -496 134 -500 130 -500 c 2
EndSplineSet
EndChar

StartChar: clefs.C_change
Encoding: 57472 57472 79
Width: 545
GlyphClass: 2
Flags: MW
HStem: -400 23<326 382 326 404.5> -185 127<255 305> -55 23<350.5 400> 32 23<350.5 400 334.5 412> 58 127<255 305> 377 23<326 382>
VStem: 0 111<-392 392> 146 34<-392 -15 15 392> 214 84<-357 -270> 246 23<-178 -144 144 178> 446 100<-252.5 -157.5 157.5 252.5>
LayerCount: 2
Fore
SplineSet
258 0 m 0xffa0
 258 -13 258 -58 293 -58 c 0
 317 -58 338 -32 363 -32 c 0
 461 -32 546 -105 546 -200 c 0
 546 -335 473 -400 336 -400 c 0
 270 -400 214 -351 214 -287 c 0
 214 -253 241 -226 275 -226 c 0
 309 -226 336 -253 336 -287 c 0
 336 -318 298 -317 298 -348 c 0xffa0
 298 -366 316 -377 336 -377 c 0
 428 -377 446 -305 446 -200 c 0
 446 -115 437 -55 363 -55 c 0
 306 -55 269 -113 269 -174 c 0
 269 -182 264 -185 258 -185 c 0
 252 -185 246 -182 246 -174 c 0
 246 -114 222 -57 180 -15 c 1
 180 -392 l 2
 180 -396 176 -400 172 -400 c 2
 154 -400 l 2
 150 -400 146 -396 146 -392 c 2
 146 392 l 2
 146 396 150 400 154 400 c 2
 172 400 l 2
 176 400 180 396 180 392 c 2
 180 15 l 1
 222 57 246 114 246 174 c 0
 246 182 252 185 258 185 c 0
 264 185 269 182 269 174 c 0xff60
 269 113 306 55 363 55 c 0
 437 55 446 115 446 200 c 0
 446 305 428 377 336 377 c 0
 316 377 298 366 298 348 c 0
 298 317 336 318 336 287 c 0
 336 253 309 226 275 226 c 0
 241 226 214 253 214 287 c 0
 214 351 270 400 336 400 c 0
 473 400 546 335 546 200 c 0
 546 105 461 32 363 32 c 0
 338 32 317 58 293 58 c 0
 285 58 258 58 258 0 c 0xffa0
103 -400 m 2
 8 -400 l 2
 4 -400 0 -396 0 -392 c 2
 0 392 l 2
 0 396 4 400 8 400 c 2
 103 400 l 2
 107 400 111 396 111 392 c 2
 111 -392 l 2
 111 -396 107 -400 103 -400 c 2
EndSplineSet
EndChar

StartChar: clefs.varC
Encoding: 57473 57473 80
Width: 562
GlyphClass: 2
Flags: MW
HStem: -650 170<490.5 523 490.5 523.5> -188 125<215 407 215 433> 62 125<215 407 215 433 215 407> 480 170<490.5 523>
VStem: 0 138<-492 492> 177 38<-492 -188 -63 62 187 492> 407 39<-503 -188 -188 -188 187 338 338 503> 407 175<-563 -540 -586.5 -188 539 562 562 585.5>
LayerCount: 2
Fore
SplineSet
207 -500 m 2xfe
 185 -500 l 2
 181 -500 177 -496 177 -492 c 2
 177 492 l 2
 177 496 181 500 185 500 c 2
 207 500 l 2
 211 500 215 496 215 492 c 2
 215 187 l 1
 407 187 l 1xfe
 407 562 l 2
 407 610 451 650 500 650 c 0
 547 650 582 609 582 562 c 0xfd
 582 516 546 480 500 480 c 0
 481 480 461 489 446 503 c 1
 446 338 l 1
 446 75 l 2
 446 68 440 62 433 62 c 2
 215 62 l 1
 215 -63 l 1
 433 -63 l 2
 440 -63 446 -68 446 -75 c 2
 446 -503 l 1xfe
 461 -489 481 -480 500 -480 c 0
 546 -480 582 -517 582 -563 c 0
 582 -610 547 -650 500 -650 c 0
 451 -650 407 -611 407 -563 c 2xfd
 407 -188 l 1
 215 -188 l 1
 215 -492 l 2
 215 -496 211 -500 207 -500 c 2xfe
130 -500 m 2
 8 -500 l 2
 4 -500 0 -496 0 -492 c 2
 0 492 l 2
 0 496 4 500 8 500 c 2
 130 500 l 2
 134 500 138 496 138 492 c 2
 138 -492 l 2
 138 -496 134 -500 130 -500 c 2
EndSplineSet
EndChar

StartChar: clefs.varC_change
Encoding: 57474 57474 81
Width: 450
GlyphClass: 2
Flags: MW
HStem: -520 136<396 421 396 421.5> -150 100<180 329 180 351> 50 100<180 329 180 351 180 329> 384 136<396 421>
VStem: 0 111<-392 392> 146 34<-392 -150 -50 50 150 392> 329 34<-399 -150 -150 -150 150 270 270 399> 329 140<-450 -432 -469 -150 432 450 450 469>
LayerCount: 2
Fore
SplineSet
172 -400 m 2xfe
 154 -400 l 2
 150 -400 146 -396 146 -392 c 2
 146 392 l 2
 146 396 150 400 154 400 c 2
 172 400 l 2
 176 400 180 396 180 392 c 2
 180 150 l 1
 329 150 l 1xfe
 329 450 l 2
 329 489 364 520 403 520 c 0
 440 520 469 488 469 450 c 0xfd
 469 414 439 384 403 384 c 0
 389 384 375 390 363 399 c 1
 363 270 l 1
 363 61 l 2
 363 55 357 50 351 50 c 2
 180 50 l 1
 180 -50 l 1
 351 -50 l 2
 357 -50 363 -55 363 -61 c 2
 363 -399 l 1xfe
 375 -390 389 -384 403 -384 c 0
 439 -384 469 -414 469 -450 c 0
 469 -488 440 -520 403 -520 c 0
 364 -520 329 -489 329 -450 c 2xfd
 329 -150 l 1
 180 -150 l 1
 180 -392 l 2
 180 -396 176 -400 172 -400 c 2xfe
103 -400 m 2
 8 -400 l 2
 4 -400 0 -396 0 -392 c 2
 0 392 l 2
 0 396 4 400 8 400 c 2
 103 400 l 2
 107 400 111 396 111 392 c 2
 111 -392 l 2
 111 -396 107 -400 103 -400 c 2
EndSplineSet
EndChar

StartChar: clefs.F
Encoding: 57475 57475 82
Width: 670
GlyphClass: 2
Flags: MW
HStem: -177 104<593.5 622.5> -88 207<104.5 139.5 104.5 140> 73 104<593.5 622.5> 239 22<193.5 288>
VStem: 0 212<-10 46.5 -10 85> 407 118<-112.5 62.5> 556 104<-139.5 -110.5 110.5 139.5>
LayerCount: 2
Fore
SplineSet
556 -125 m 0x9e
 556 -96 579 -73 608 -73 c 0
 637 -73 660 -96 660 -125 c 0
 660 -154 637 -177 608 -177 c 0
 579 -177 556 -154 556 -125 c 0x9e
556 125 m 0
 556 154 579 177 608 177 c 0
 637 177 660 154 660 125 c 0
 660 96 637 73 608 73 c 0x3e
 579 73 556 96 556 125 c 0
233 261 m 0
 404 261 525 175 525 13 c 0
 525 -250 261 -402 8 -508 c 0
 6 -510 3 -511 0 -511 c 0
 -6 -511 -11 -506 -11 -500 c 0
 -11 -497 -10 -494 -8 -492 c 0
 195 -374 407 -227 407 2 c 0
 407 123 343 239 233 239 c 0
 154 239 95 182 69 106 c 1
 83 114 97 119 112 119 c 0
 167 119 212 74 212 19 c 0
 212 -39 168 -88 112 -88 c 0x5e
 52 -88 0 -40 0 19 c 0
 0 151 103 261 233 261 c 0
EndSplineSet
EndChar

StartChar: clefs.F_change
Encoding: 57476 57476 83
Width: 536
GlyphClass: 2
Flags: MW
HStem: -142 84<475.5 498.5> -66 165<86 112 86 112.5> 58 84<475.5 498.5> 189 22<152.5 221>
VStem: 0 170<-4 41 -4 71> 302 118<-93.5 48.5> 445 83<-111.5 -88.5 88.5 111.5>
LayerCount: 2
Fore
SplineSet
445 -100 m 0x9e
 445 -77 464 -58 487 -58 c 0
 510 -58 528 -77 528 -100 c 0
 528 -123 510 -142 487 -142 c 0
 464 -142 445 -123 445 -100 c 0x9e
445 100 m 0
 445 123 464 142 487 142 c 0
 510 142 528 123 528 100 c 0
 528 77 510 58 487 58 c 0x3e
 464 58 445 77 445 100 c 0
-11 -400 m 0
 -11 -376 302 -244 302 2 c 0
 302 95 262 189 180 189 c 0
 125 189 85 148 66 94 c 1
 74 97 82 99 90 99 c 0
 134 99 170 63 170 19 c 0
 170 -27 135 -66 90 -66 c 0x5e
 42 -66 0 -28 0 19 c 0
 0 123 78 211 180 211 c 0
 319 211 420 143 420 12 c 0
 420 -199 210 -321 8 -408 c 0
 6 -410 3 -411 0 -411 c 0
 -6 -411 -11 -406 -11 -400 c 0
EndSplineSet
EndChar

StartChar: clefs.G
Encoding: 57477 57477 84
Width: 641
GlyphClass: 2
Flags: MW
HStem: -633 39<238.5 287.5 238.5 319.5> -533 199<172 204> -260 40<275.5 338.5 275.5 357.5> 154 107
VStem: 2 69<15 111 -42 201> 66 207<-464 -410 -464 -409> 175 56<10 61.5 10 103> 204 46<809.5 843.5 758.5 955> 429 39<-360.5 -333 -360.5 -332> 432 70<849.5 889.5 761 930.5> 576 67<-54 7>
LayerCount: 2
Fore
SplineSet
264 -594 m 0xf4a0
 311 -594 429 -568 429 -348 c 0xf4a0
 429 -316 427 -284 424 -252 c 1
 419 -253 380 -260 335 -260 c 0
 142 -260 2 -82 2 112 c 0
 2 290 135 418 253 552 c 1
 226 645 204 722 204 897 c 0
 204 1013 259 1123 354 1192 c 0
 359 1196 365 1196 370 1192 c 0
 437 1111 502 946 502 833 c 0xf960
 502 689 415 577 319 468 c 1
 339 399 358 330 374 260 c 0
 376 260 381 261 389 261 c 0
 543 261 643 134 643 2 c 0
 643 -110 570 -210 463 -243 c 1
 466 -279 468 -315 468 -351 c 0
 468 -370 468 -388 467 -407 c 0
 460 -527 378 -633 261 -633 c 0
 153 -633 66 -546 66 -438 c 0
 66 -380 119 -334 178 -334 c 0
 232 -334 273 -382 273 -438 c 0
 273 -490 230 -533 178 -533 c 0
 166 -533 154 -529 143 -524 c 1
 169 -565 213 -594 264 -594 c 0xf4a0
459 -205 m 1
 530 -181 576 -113 576 -39 c 0
 576 53 507 145 397 154 c 1
 398 149 442 -58 459 -205 c 1
71 31 m 0xfa20
 71 -115 213 -220 338 -220 c 0
 339 -220 384 -220 420 -214 c 1
 413 -151 392 -13 356 153 c 1
 277 144 231 91 231 32 c 0
 231 -12 257 -60 313 -92 c 0
 317 -96 320 -101 320 -106 c 0
 320 -117 311 -127 300 -127 c 0
 286 -127 175 -65 175 59 c 0
 175 147 232 232 333 255 c 1
 319 315 303 374 287 433 c 1
 179 312 71 191 71 31 c 0xfa20
411 1050 m 1
 312 1000 250 899 250 788 c 0
 250 729 261 665 283 588 c 1
 365 685 432 786 432 913 c 0xf160
 432 948 432 982 411 1050 c 1
EndSplineSet
EndChar

StartChar: clefs.G_change
Encoding: 57478 57478 85
Width: 513
GlyphClass: 2
Flags: MW
HStem: -511 40<163.5 212 209 211 211 211> -427 159<136.5 160> -210 40<223.5 271.5 223.5 285>
VStem: 2 58<11.5 86.5 -36 162> 49 163<-471 -328> 137 52<8.5 48.5 8.5 81.5> 156 43<669.5 694 630 790> 336 59<706 734.5 630.5 769> 339 40<-364 -265> 456 60<-44.5 6>
LayerCount: 2
Fore
SplineSet
211 -511 m 1xe840
 207 -511 l 2
 120 -511 49 -439 49 -351 c 0
 49 -305 91 -268 139 -268 c 0
 182 -268 215 -306 215 -351 c 0
 215 -393 181 -427 139 -427 c 0
 134 -427 129 -426 124 -425 c 1
 143 -452 174 -471 209 -471 c 2
 212 -471 l 1
 211 -511 l 1xe840
371 -156 m 1
 419 -137 456 -88 456 -29 c 0
 456 41 405 110 323 120 c 1
 326 108 358 -44 371 -156 c 1
60 22 m 0xf440
 60 -94 176 -170 271 -170 c 0
 272 -170 305 -170 332 -166 c 1
 326 -116 309 -9 282 120 c 1
 222 112 189 71 189 26 c 0
 189 -9 209 -45 253 -70 c 0
 257 -74 259 -79 259 -84 c 0
 259 -95 250 -105 239 -105 c 0
 225 -105 137 -54 137 46 c 0
 137 117 182 185 263 205 c 1
 251 254 239 303 225 352 c 1
 142 251 60 151 60 22 c 0xf440
196 455 m 1
 170 544 156 596 156 743 c 0
 156 837 199 926 273 985 c 0
 278 989 285 988 289 984 c 0
 343 917 395 781 395 688 c 0xf340
 395 573 329 480 256 390 c 1
 273 331 289 271 303 211 c 1
 312 211 l 2
 437 211 516 108 516 1 c 0
 516 -90 457 -168 375 -195 c 1
 377 -223 379 -251 379 -279 c 0
 379 -492 246 -510 211 -511 c 1
 212 -471 l 1
 247 -470 339 -451 339 -277 c 0xe8c0
 339 -253 338 -229 336 -205 c 1xe140
 332 -206 302 -210 268 -210 c 0
 114 -210 2 -67 2 90 c 0
 2 234 105 342 196 455 c 1
199 650 m 0
 199 610 208 559 226 494 c 1
 287 573 336 656 336 756 c 0
 336 782 336 810 322 865 c 1
 246 820 199 738 199 650 c 0
EndSplineSet
EndChar

StartChar: clefs.GG
Encoding: 57479 57479 86
Width: 1016
GlyphClass: 2
Flags: MW
HStem: -633 39<238.5 287.5 238.5 305.5 613.5 658> -533 199<172 204 547 579> -260 40<275.5 338.5 275.5 357.5 688 713.5> 154 107
VStem: 2 69<15 111 -42 201> 66 207<-464 -410 -464 -409> 175 56<10 61.5 10 103> 204 46<809.5 843.5 758.5 955> 429 39<-371 -351 -371 -332> 432 70<849.5 889.5 761 930.5> 576 67<-58.5 18> 579 46<809.5 843.5 758.5 955> 804 39<-360.5 -333 -360.5 -332> 807 70<849.5 889.5 761 930.5> 951 67<-54 7>
LayerCount: 2
Fore
SplineSet
264 -594 m 0xf40a
 311 -594 429 -568 429 -348 c 0xf48a
 429 -316 427 -284 424 -252 c 1
 419 -253 380 -260 335 -260 c 0
 142 -260 2 -82 2 112 c 0
 2 290 135 418 253 552 c 1
 226 645 204 722 204 897 c 0
 204 1013 259 1123 354 1192 c 0
 359 1196 365 1196 370 1192 c 0
 437 1111 502 946 502 833 c 0
 502 689 415 577 319 468 c 1
 339 399 358 330 374 260 c 1
 381 260 393 261 409 260 c 1
 455 367 546 458 628 552 c 1
 601 645 579 722 579 897 c 0
 579 1013 634 1123 729 1192 c 0
 734 1196 740 1196 745 1192 c 0
 812 1111 877 946 877 833 c 0xf956
 877 689 790 577 694 468 c 1
 714 399 733 330 749 260 c 0
 751 260 756 261 764 261 c 0
 918 261 1018 134 1018 2 c 0
 1018 -110 945 -210 838 -243 c 1
 841 -279 843 -315 843 -351 c 0
 843 -370 843 -388 842 -407 c 0
 835 -527 753 -633 636 -633 c 0
 547 -633 471 -573 448 -491 c 1
 417 -571 350 -633 261 -633 c 0
 153 -633 66 -546 66 -438 c 0
 66 -380 119 -334 178 -334 c 0
 232 -334 273 -382 273 -438 c 0
 273 -490 230 -533 178 -533 c 0
 166 -533 154 -529 143 -524 c 1
 169 -565 213 -594 264 -594 c 0xf40a
639 -594 m 0
 677 -594 804 -576 804 -348 c 0
 804 -316 802 -284 799 -252 c 1
 794 -253 755 -260 710 -260 c 0
 646 -260 587 -240 537 -206 c 1
 521 -218 498 -232 463 -243 c 1
 466 -279 468 -315 468 -351 c 2
 468 -371 l 1
 489 -348 520 -334 553 -334 c 0
 607 -334 648 -382 648 -438 c 0
 648 -490 605 -533 553 -533 c 0
 541 -533 529 -529 518 -524 c 1
 544 -565 588 -594 639 -594 c 0
834 -205 m 1
 905 -181 951 -113 951 -39 c 0
 951 53 882 145 772 154 c 1
 773 149 817 -58 834 -205 c 1
675 -127 m 0
 661 -127 623 -96 623 -96 c 1
 611 -125 594 -153 570 -177 c 1
 613 -204 663 -220 713 -220 c 0
 714 -220 759 -220 795 -214 c 1
 788 -151 767 -13 731 153 c 1
 682 148 646 126 626 96 c 1
 637 66 643 34 643 2 c 0xf022
 643 -15 642 -33 638 -50 c 1
 670 -89 695 -86 695 -106 c 0
 695 -117 686 -127 675 -127 c 0
662 433 m 1
 604 369 547 304 506 233 c 1
 536 217 562 196 583 170 c 1
 610 210 653 242 708 255 c 1
 694 315 678 374 662 433 c 1
786 1050 m 1
 687 1000 625 899 625 788 c 0
 625 729 636 665 658 588 c 1
 740 685 807 786 807 913 c 0xf016
 807 948 807 982 786 1050 c 1
447 -115 m 1
 452 -145 456 -175 459 -205 c 1
 475 -199 491 -192 505 -181 c 1
 483 -162 464 -139 447 -115 c 1
550 57 m 1
 531 91 501 120 463 137 c 1
 453 103 446 68 446 31 c 0
 446 -15 461 -87 535 -151 c 1
 562 -118 576 -78 576 -39 c 1xf022
 559 -9 550 24 550 57 c 1
71 31 m 0xfa02
 71 -115 213 -220 338 -220 c 0
 339 -220 384 -220 420 -214 c 1
 413 -151 392 -13 356 153 c 1
 277 144 231 91 231 32 c 0
 231 -12 257 -60 313 -92 c 0
 317 -96 320 -101 320 -106 c 0
 320 -117 311 -127 300 -127 c 0
 286 -127 175 -65 175 59 c 0
 175 147 232 232 333 255 c 1
 319 315 303 374 287 433 c 1
 179 312 71 191 71 31 c 0xfa02
411 1050 m 1
 312 1000 250 899 250 788 c 0
 250 729 261 665 283 588 c 1
 365 685 432 786 432 913 c 0xf142
 432 948 432 982 411 1050 c 1
EndSplineSet
EndChar

StartChar: clefs.GG_change
Encoding: 57480 57480 87
Width: 813
GlyphClass: 2
Flags: MW
HStem: -511 40<163.5 212 209 211 211 211 509 511 511 511> -427 159<136.5 160 436.5 460> -210 40<223.5 271.5 223.5 285 552 571.5>
VStem: 2 58<11.5 86.5 -36 162> 49 166<-372 -328.5 -372 -328> 137 52<8.5 48.5 8.5 81.5> 156 43<669.5 694 630 790> 336 59<706 734.5 630.5 769> 339 40<-290 -279 -290 -265> 456 43<669.5 694 630 790> 456 60<-45 13.5> 636 59<706 734.5 630.5 769> 639 40<-364 -265> 756 60<-44.5 6>
LayerCount: 2
Fore
SplineSet
636 -205 m 1xe014
 632 -206 602 -210 568 -210 c 0
 517 -210 470 -194 430 -167 c 1
 413 -180 395 -189 375 -195 c 1
 377 -223 379 -251 379 -279 c 2
 379 -290 l 1
 395 -276 417 -268 439 -268 c 0
 482 -268 515 -306 515 -351 c 0
 515 -393 481 -427 439 -427 c 0
 434 -427 429 -426 424 -425 c 1
 443 -452 474 -471 509 -471 c 2
 512 -471 l 1
 511 -511 l 1
 507 -511 l 2
 439 -511 380 -467 358 -405 c 1
 331 -465 278 -509 211 -511 c 1
 212 -471 l 1
 247 -470 339 -451 339 -277 c 0xe094
 339 -253 338 -229 336 -205 c 1
 332 -206 302 -210 268 -210 c 0
 114 -210 2 -67 2 90 c 0
 2 234 105 342 196 455 c 1
 170 544 156 596 156 743 c 0
 156 837 199 926 273 985 c 0
 278 989 285 988 289 984 c 0
 343 917 395 781 395 688 c 0
 395 573 329 480 256 390 c 1
 273 331 289 271 303 211 c 1
 310 211 318 211 326 210 c 1
 362 299 432 376 496 455 c 1
 470 544 456 596 456 743 c 0
 456 837 499 926 573 985 c 0
 578 989 585 988 589 984 c 0
 643 917 695 781 695 688 c 0xf354
 695 573 629 480 556 390 c 1
 573 331 589 271 603 211 c 1
 612 211 l 2
 737 211 816 108 816 1 c 0
 816 -90 757 -168 675 -195 c 1
 677 -223 679 -251 679 -279 c 0
 679 -492 546 -510 511 -511 c 1
 512 -471 l 1
 547 -470 639 -451 639 -277 c 0xe00c
 639 -253 638 -229 636 -205 c 1xe014
211 -511 m 1
 207 -511 l 2
 120 -511 49 -439 49 -351 c 0
 49 -305 91 -268 139 -268 c 0
 182 -268 215 -306 215 -351 c 0xe804
 215 -393 181 -427 139 -427 c 0
 134 -427 129 -426 124 -425 c 1
 143 -452 174 -471 209 -471 c 2
 212 -471 l 1
 211 -511 l 1
671 -156 m 1
 719 -137 756 -88 756 -29 c 0
 756 41 705 110 623 120 c 1
 626 108 658 -44 671 -156 c 1
539 -105 m 0
 527 -105 503 -85 499 -82 c 1xe044
 490 -102 477 -121 461 -139 c 1
 494 -158 533 -170 571 -170 c 0
 572 -170 605 -170 632 -166 c 1
 626 -116 609 -9 582 120 c 1
 545 115 518 98 503 75 c 1
 512 52 516 26 516 1 c 0xe024
 516 -12 515 -25 513 -38 c 1
 539 -69 559 -65 559 -84 c 0
 559 -95 550 -105 539 -105 c 0
525 352 m 1
 481 299 437 246 406 188 c 1
 429 176 450 159 466 140 c 1
 488 171 520 195 563 205 c 1
 551 254 539 303 525 352 c 1
499 650 m 0
 499 610 508 559 526 494 c 1
 587 573 636 656 636 756 c 0xe054
 636 782 636 810 622 865 c 1
 546 820 499 738 499 650 c 0
364 -102 m 1
 367 -120 369 -138 371 -156 c 1
 381 -152 389 -147 398 -141 c 1
 385 -129 374 -116 364 -102 c 1
437 44 m 1
 423 70 400 92 372 106 c 1
 364 79 360 51 360 22 c 0
 360 -20 375 -70 426 -115 c 1
 446 -90 456 -60 456 -30 c 1xe024
 443 -6 437 19 437 44 c 1
60 22 m 0xf404
 60 -94 176 -170 271 -170 c 0
 272 -170 305 -170 332 -166 c 1
 326 -116 309 -9 282 120 c 1
 222 112 189 71 189 26 c 0
 189 -9 209 -45 253 -70 c 0
 257 -74 259 -79 259 -84 c 0
 259 -95 250 -105 239 -105 c 0
 225 -105 137 -54 137 46 c 0
 137 117 182 185 263 205 c 1
 251 254 239 303 225 352 c 1
 142 251 60 151 60 22 c 0xf404
199 650 m 0xe304
 199 610 208 559 226 494 c 1
 287 573 336 656 336 756 c 0
 336 782 336 810 322 865 c 1
 246 820 199 738 199 650 c 0xe304
EndSplineSet
EndChar

StartChar: clefs.tenorG
Encoding: 57481 57481 88
Width: 828
GlyphClass: 2
Flags: MW
HStem: -633 39<238.5 283 238.5 319.5> -533 199<172 204> -260 40<275.5 338.5 275.5 357.5> -196 126<766.5 790 766.5 792> 154 107 311 128<184 716 361 688 361 361> 561 128<80 219 169 219 169 250 472 688> 1070 126<766.5 790>
VStem: 2 69<15 84.5 -42 201> 66 207<-464 -410 -464 -409> 175 56<10 61.5 10 103> 204 46<838.5 843.5> 429 39<-360.5 -333 -360.5 -332> 432 70<871 889.5 807 930.5> 576 67<-54 7> 688 42<-96 311 311 311 689 1096> 688 142<-125 -110 -143.5 311 1110 1125 1125 1143.5>
LayerCount: 2
Fore
SplineSet
335 -260 m 0xff4b
 142 -260 2 -82 2 112 c 0
 2 290 135 418 253 552 c 1
 250 561 l 1
 84 561 l 2
 76 561 70 568 70 575 c 0
 70 578 71 582 73 585 c 2
 158 684 l 2
 161 687 165 689 169 689 c 2
 219 689 l 1
 214 715 204 780 204 897 c 0
 204 1013 259 1123 354 1192 c 0
 359 1196 365 1196 370 1192 c 0
 437 1111 502 946 502 833 c 0
 502 781 491 734 472 689 c 1
 688 689 l 1xff97
 688 1125 l 2
 688 1167 730 1196 775 1196 c 0
 809 1196 830 1162 830 1125 c 0xff0280
 830 1095 805 1070 775 1070 c 0
 758 1070 740 1081 730 1096 c 1
 730 575 l 2
 730 567 724 561 716 561 c 2
 396 561 l 1
 372 529 346 499 319 468 c 1
 322 458 324 449 327 439 c 1
 716 439 l 2
 724 439 730 433 730 425 c 2
 730 -96 l 1xff03
 740 -81 758 -70 775 -70 c 0
 805 -70 830 -95 830 -125 c 0
 830 -162 809 -196 775 -196 c 0
 730 -196 688 -167 688 -125 c 2xff0280
 688 311 l 1
 361 311 l 1
 365 294 370 277 374 260 c 0
 376 260 381 261 389 261 c 0
 543 261 643 134 643 2 c 0
 643 -110 570 -210 463 -243 c 1
 466 -279 468 -315 468 -351 c 0
 468 -370 468 -388 467 -407 c 0
 460 -527 378 -633 261 -633 c 0
 153 -633 66 -546 66 -438 c 0
 66 -380 119 -334 178 -334 c 0
 232 -334 273 -382 273 -438 c 0
 273 -490 230 -533 178 -533 c 0
 166 -533 154 -529 143 -524 c 1
 169 -565 213 -594 264 -594 c 0
 302 -594 429 -576 429 -348 c 0
 429 -316 427 -284 424 -252 c 1
 419 -253 380 -260 335 -260 c 0xff4b
300 -127 m 0
 286 -127 175 -65 175 59 c 0
 175 147 232 232 333 255 c 1
 329 274 324 292 319 311 c 1
 184 311 l 1
 120 227 71 138 71 31 c 0
 71 -115 213 -220 338 -220 c 0
 339 -220 384 -220 420 -214 c 1
 413 -151 392 -13 356 153 c 1
 277 144 231 91 231 32 c 0xffa2
 231 -12 257 -60 313 -92 c 0
 317 -96 320 -101 320 -106 c 0
 320 -117 311 -127 300 -127 c 0
250 788 m 0xff16
 250 769 251 733 259 689 c 1
 359 689 l 1
 403 757 432 829 432 913 c 0
 432 948 432 982 411 1050 c 1
 312 1000 250 899 250 788 c 0xff16
459 -205 m 1
 530 -181 576 -113 576 -39 c 0
 576 53 507 145 397 154 c 1
 398 149 442 -58 459 -205 c 1
EndSplineSet
EndChar

StartChar: clefs.tenorG_change
Encoding: 57482 57482 89
Width: 663
GlyphClass: 2
Flags: MW
HStem: -511 40<163.5 212 209 211 211 211> -427 159<136.5 160> -210 40<223.5 271.5 223.5 285> 43 101<613 632 613 633.5> 324 102<169 233 169 202 285 550> 574 102<38 157 111 157 111 167 207 281 207 207 395 550> 856 101<613 632>
VStem: 2 58<11.5 80.5 -36 152.5> 49 166<-372 -328.5 -372 -328> 137 52<8.5 48.5 8.5 81.5> 156 44 336 59 339 40<-364 -265> 456 60<-44.5 6> 550 34<123 324 324 324 676 877> 550 114<100 112 85.5 324 888 900 900 914.5>
LayerCount: 2
Fore
SplineSet
268 -210 m 0xfe14
 114 -210 2 -67 2 90 c 0
 2 215 79 314 159 411 c 1
 169 426 l 1
 172 426 l 1
 180 436 188 445 196 455 c 1
 185 494 174 534 167 574 c 1
 43 574 l 2
 33 574 28 586 34 593 c 2
 102 672 l 2
 104 675 108 676 111 676 c 2
 157 676 l 1
 157 686 156 742 156 743 c 0
 156 837 199 926 273 985 c 0
 278 989 285 988 289 984 c 0
 341 919 399 778 395 676 c 1
 550 676 l 1xff36
 550 900 l 2
 550 933 584 957 620 957 c 0
 647 957 664 929 664 900 c 0xfe05
 664 876 644 856 620 856 c 0
 606 856 592 865 584 877 c 1
 584 585 l 2
 584 579 579 574 573 574 c 2
 373 574 l 1
 353 521 321 473 285 426 c 1
 573 426 l 2
 579 426 584 421 584 415 c 2
 584 123 l 1xfe06
 592 135 606 144 620 144 c 0
 644 144 664 124 664 100 c 0
 664 71 647 43 620 43 c 0
 584 43 550 67 550 100 c 2xfe05
 550 324 l 1
 275 324 l 1
 285 286 294 249 303 211 c 1
 312 211 l 2
 437 211 516 108 516 1 c 0
 516 -90 457 -168 375 -195 c 1
 377 -223 379 -251 379 -279 c 0
 379 -492 246 -510 211 -511 c 1
 212 -471 l 1
 247 -470 339 -451 339 -277 c 0xfe0e
 339 -253 338 -229 336 -205 c 1
 332 -206 302 -210 268 -210 c 0xfe14
211 -511 m 1
 207 -511 l 2
 120 -511 49 -439 49 -351 c 0
 49 -305 91 -268 139 -268 c 0
 182 -268 215 -306 215 -351 c 0xfe84
 215 -393 181 -427 139 -427 c 0
 134 -427 129 -426 124 -425 c 1
 143 -452 174 -471 209 -471 c 2
 212 -471 l 1
 211 -511 l 1
239 -105 m 0
 225 -105 137 -54 137 46 c 0
 137 117 182 185 263 205 c 1
 254 245 244 285 233 324 c 1
 202 324 l 1
 128 233 60 139 60 22 c 0
 60 -94 176 -170 271 -170 c 0
 272 -170 305 -170 332 -166 c 1
 326 -116 309 -9 282 120 c 1
 222 112 189 71 189 26 c 0xff44
 189 -9 209 -45 253 -70 c 0
 257 -74 259 -79 259 -84 c 0
 259 -95 250 -105 239 -105 c 0
207 574 m 1
 212 547 219 520 226 494 c 1
 246 520 265 547 281 574 c 1
 207 574 l 1
200 676 m 1xfe34
 326 676 l 1
 333 702 336 728 336 756 c 0
 336 782 336 810 322 865 c 1
 253 825 208 754 200 676 c 1xfe34
371 -156 m 1
 419 -137 456 -88 456 -29 c 0
 456 41 405 110 323 120 c 1
 326 108 358 -44 371 -156 c 1
EndSplineSet
EndChar

StartChar: clefs.percussion
Encoding: 57483 57483 90
Width: 500
GlyphClass: 2
Flags: MW
VStem: 168 112<-242 242> 388 112<-242 242>
LayerCount: 2
Fore
SplineSet
492 -250 m 2
 395 -250 l 2
 391 -250 388 -246 388 -242 c 2
 388 242 l 2
 388 246 391 250 395 250 c 2
 492 250 l 2
 496 250 500 246 500 242 c 2
 500 -242 l 2
 500 -246 496 -250 492 -250 c 2
272 -250 m 2
 175 -250 l 2
 171 -250 168 -246 168 -242 c 2
 168 242 l 2
 168 246 171 250 175 250 c 2
 272 250 l 2
 276 250 280 246 280 242 c 2
 280 -242 l 2
 280 -246 276 -250 272 -250 c 2
EndSplineSet
EndChar

StartChar: clefs.percussion_change
Encoding: 57484 57484 91
Width: 400
GlyphClass: 2
Flags: MW
VStem: 134 90<-192 192> 310 90<-192 192>
LayerCount: 2
Fore
SplineSet
392 -200 m 2
 318 -200 l 2
 314 -200 310 -196 310 -192 c 2
 310 192 l 2
 310 196 314 200 318 200 c 2
 392 200 l 2
 396 200 400 196 400 192 c 2
 400 -192 l 2
 400 -196 396 -200 392 -200 c 2
216 -200 m 2
 142 -200 l 2
 138 -200 134 -196 134 -192 c 2
 134 192 l 2
 134 196 138 200 142 200 c 2
 216 200 l 2
 220 200 224 196 224 192 c 2
 224 -192 l 2
 224 -196 220 -200 216 -200 c 2
EndSplineSet
EndChar

StartChar: clefs.varpercussion
Encoding: 57485 57485 92
Width: 437
GlyphClass: 2
Flags: MW
HStem: -419 88<173 394 211 394 211 430> 331 88<211 394 211 211>
VStem: 168 43<-331 331 -331 411> 394 43<-331 331 331 331>
LayerCount: 2
Fore
SplineSet
175 419 m 2
 430 419 l 2
 434 419 437 415 437 411 c 2
 437 -411 l 2
 437 -415 434 -419 430 -419 c 2
 175 -419 l 2
 171 -419 168 -415 168 -411 c 2
 168 411 l 2
 168 415 171 419 175 419 c 2
394 331 m 1
 211 331 l 1
 211 -331 l 1
 394 -331 l 1
 394 331 l 1
EndSplineSet
EndChar

StartChar: clefs.varpercussion_change
Encoding: 57486 57486 93
Width: 350
GlyphClass: 2
Flags: MW
HStem: -335 70<140 315 169 315 169 342> 265 70<169 315 169 169>
VStem: 134 35<-265 265 -265 327> 315 35<-265 265 265 265>
LayerCount: 2
Fore
SplineSet
342 335 m 2
 346 335 350 331 350 327 c 2
 350 -327 l 2
 350 -331 346 -335 342 -335 c 2
 142 -335 l 2
 138 -335 134 -331 134 -327 c 2
 134 327 l 2
 134 331 138 335 142 335 c 2
 152 335 l 1
 333 335 l 1
 342 335 l 2
315 265 m 1
 169 265 l 1
 169 -265 l 1
 315 -265 l 1
 315 265 l 1
EndSplineSet
EndChar

StartChar: clefs.tab
Encoding: 57487 57487 94
Width: 700
GlyphClass: 2
Flags: HMW
HStem: -722 51<185 236.5 185 245.5> -709 60<406.5 436 395.5 487.5> -493 40<405 436 408 436> -188 50<498 558> -116 43<387 399> 257 51<305 322 274.5 345.5> 629 50<541.5 592.5 532.5 593.5> 671 49<338 373.5>
VStem: 140 101<-391 -360 -391 -336> 155 101<581.5 615> 432 114 487 102<-359 -358.5> 509 113<-582 -533>
LayerCount: 2
Fore
SplineSet
208 -392 m 4xbc10
 159 -392 108 -333 108 -330 c 4
 108 -319 120 -304 132 -304 c 4
 148 -304 166 -341 204 -341 c 4
 269 -341 293 -242 293 -146 c 6
 293 -138 l 6
 293 -103 302 -29 311 25 c 5
 272 12 241 -15 241 -45 c 4
 241 -77 267 -72 267 -95 c 4
 267 -104 266 -122 224 -122 c 4
 183 -122 140 -94 140 -47 c 4
 140 35 258 83 374 83 c 4
 445 83 589 72 589 -20 c 4xbc90
 589 -38 583 -90 520 -130 c 5
 578 -141 622 -166 622 -221 c 4
 622 -306 532 -379 443 -379 c 4
 370 -379 332 -328 332 -319 c 4
 332 -307 348 -294 360 -294 c 4
 373 -294 377 -319 414 -319 c 4
 458 -319 509 -278 509 -226 c 4x7c08
 509 -180 460 -163 409 -163 c 6
 408 -163 l 6
 402 -163 400 -155 400 -147 c 4
 400 -136 405 -123 418 -123 c 4
 454 -123 487 -84 487 -46 c 4
 487 -11 464 20 407 30 c 5
 396 -32 376 -143 367 -190 c 4
 347 -292 283 -392 208 -392 c 4xbc10
70 211 m 4
 83 211 101 191 127 191 c 4
 198 191 370 394 432 581 c 4
 441 608 465 618 489 618 c 4
 518 618 546 603 546 587 c 4x3c20
 546 579 528 226 528 222 c 4
 528 212 528 192 549 192 c 4
 567 192 596 212 604 212 c 4
 609 212 613 204 613 195 c 4
 613 187 610 179 601 176 c 4
 571 167 544 142 514 142 c 4
 482 142 469 171 461 200 c 4
 445 261 435 325 430 391 c 5
 403 356 374 323 343 290 c 5
 349 280 367 257 407 257 c 4
 414 257 418 258 419 258 c 4
 424 258 427 251 427 243 c 4
 427 237 427 214 371 214 c 4
 354 214 320 218 301 247 c 5
 234 184 178 142 128 142 c 6
 125 142 l 6
 94 143 75 163 50 174 c 4
 47 175 45 179 45 183 c 4
 45 194 56 211 70 211 c 4
288 870 m 4
 288 861 287 846 246 846 c 4
 197 846 155 882 155 930 c 4
 155 960 172 1050 387 1050 c 4x3d40
 433 1050 507 1009 558 1009 c 4
 627 1009 666 1053 677 1053 c 4
 688 1053 700 1042 700 1034 c 4
 700 1027 637 959 550 959 c 4x3e40
 533 959 520 961 506 965 c 5
 497 906 480 814 471 772 c 4
 449 676 383 587 308 587 c 4
 302 587 296 588 289 589 c 4
 253 597 222 632 193 651 c 4
 190 653 189 656 189 660 c 4
 189 671 201 686 212 686 c 4
 229 686 255 638 294 638 c 4
 350 638 376 715 379 788 c 4
 381 833 392 938 401 996 c 5
 389 999 378 1001 369 1001 c 4
 307 1001 256 973 256 931 c 4x3d40
 256 892 288 895 288 870 c 4
EndSplineSet
EndChar

StartChar: clefs.tab_change
Encoding: 57488 57488 95
Width: 560
GlyphClass: 2
Flags: MW
HStem: -577 40<148.5 190 148.5 197> -567 48<324.5 349.5 317 389.5> -394 32<330 347.5> -361 163<163.5 327.5> -150 39<91.5 122> -93 35<289.5 337> 205 41<224.5 257.5 219.5 277> 503 40<433.5 473.5 425.5 475> 537 39<270 298.5>
VStem: 112 81<-312.5 -288 -312.5 -269> 124 81<465.5 492> 345 91 390 82<-287 -286> 408 90<-466 -426.5>
LayerCount: 2
Fore
SplineSet
167 -577 m 0xbe08
 128 -577 86 -530 86 -528 c 0
 86 -519 96 -507 105 -507 c 0
 118 -507 133 -537 164 -537 c 0
 216 -537 235 -458 235 -381 c 2
 235 -374 l 2
 235 -346 242 -287 249 -244 c 1
 217 -255 193 -276 193 -300 c 0
 193 -325 213 -321 213 -340 c 0
 213 -347 214 -361 180 -361 c 0
 147 -361 112 -339 112 -302 c 0
 112 -236 206 -198 299 -198 c 0
 356 -198 472 -207 472 -280 c 0xbe48
 472 -294 467 -336 416 -368 c 1
 462 -377 498 -397 498 -441 c 0
 498 -509 425 -567 354 -567 c 0
 295 -567 266 -526 266 -519 c 0
 266 -509 278 -499 288 -499 c 0
 299 -499 302 -519 332 -519 c 0
 367 -519 408 -487 408 -445 c 0x7e04
 408 -408 368 -394 327 -394 c 0
 323 -394 320 -389 320 -382 c 0
 320 -373 325 -362 335 -362 c 0
 364 -362 390 -331 390 -300 c 0
 390 -272 371 -248 326 -240 c 1
 317 -290 301 -378 294 -416 c 0
 278 -498 227 -577 167 -577 c 0xbe08
102 -150 m 0
 77 -150 36 -124 36 -118 c 0
 36 -109 45 -95 56 -95 c 0
 67 -95 81 -111 102 -111 c 0
 159 -111 295 51 345 201 c 0
 352 223 372 230 391 230 c 0
 414 230 436 219 436 206 c 0x3e10
 436 200 422 -83 422 -86 c 0
 422 -94 423 -111 439 -111 c 0
 453 -111 477 -95 483 -95 c 0
 487 -95 490 -101 490 -108 c 0
 490 -114 488 -121 481 -123 c 0
 457 -131 435 -151 411 -151 c 0
 385 -151 375 -127 369 -104 c 0
 356 -55 348 -4 344 49 c 1
 323 21 300 -6 275 -32 c 1
 290 -58 314 -58 335 -58 c 0
 339 -58 341 -64 341 -70 c 0
 341 -75 341 -93 296 -93 c 0
 283 -93 256 -89 241 -66 c 1
 187 -117 142 -150 102 -150 c 0
247 205 m 0
 202 205 151 263 151 264 c 0
 151 273 160 285 169 285 c 0
 183 285 204 246 235 246 c 0
 280 246 301 308 303 367 c 0
 304 403 314 487 321 533 c 1
 311 535 302 537 295 537 c 0
 245 537 205 515 205 481 c 0
 205 450 230 452 230 432 c 0
 230 425 230 413 197 413 c 0
 158 413 124 442 124 480 c 0
 124 504 138 576 310 576 c 0x3ea0
 347 576 405 543 446 543 c 0
 501 543 532 578 541 578 c 0
 550 578 560 569 560 563 c 0
 560 558 510 503 440 503 c 0x3f20
 427 503 416 505 405 508 c 1
 398 461 385 386 377 353 c 0
 360 276 307 205 247 205 c 0
EndSplineSet
EndChar

StartChar: timesig.C44
Encoding: 57489 57489 96
Width: 428
GlyphClass: 2
Flags: MW
HStem: -261 22<220.5 291 197 317> 25 155<344.5 359 335 379> 239 22<197 275>
VStem: 0 137<-110 -54 -54 0 0 31> 284 146<79 121.5> 414 21
LayerCount: 2
Fore
SplineSet
250 261 m 0xf4
 367 261 430 159 430 99 c 0
 430 59 398 25 360 25 c 0
 329 25 284 50 284 102 c 0xf8
 284 141 312 180 358 180 c 0
 360 180 368 181 376 179 c 1
 347 216 300 239 250 239 c 0
 144 239 137 166 137 54 c 2
 137 0 l 1
 137 -54 l 2
 137 -166 144 -239 250 -239 c 0
 332 -239 395 -171 414 -88 c 0
 415 -82 420 -79 424 -79 c 0
 430 -79 435 -83 435 -90 c 0
 435 -113 384 -261 250 -261 c 0
 191 -261 0 -242 0 0 c 0
 0 62 18 261 250 261 c 0xf4
EndSplineSet
EndChar

StartChar: timesig.C22
Encoding: 57490 57490 97
Width: 428
GlyphClass: 2
Flags: MW
HStem: -261 22<240 250 240 250> 25 155<344.5 359 335 379> 239 22<240 250 240 250>
VStem: 0 137<-101 -54 -54 0 0 36.5> 206 34<-342 -261 -234 234 234 234 261 342> 284 146<79 121.5> 414 21
LayerCount: 2
Fore
SplineSet
360 25 m 0xfc
 329 25 284 50 284 102 c 0xfc
 284 141 312 180 358 180 c 0
 360 180 368 181 376 179 c 1
 347 216 300 239 250 239 c 2
 240 239 l 1
 240 -239 l 1
 250 -239 l 2
 332 -239 395 -171 414 -88 c 0
 415 -82 420 -79 424 -79 c 0
 430 -79 435 -83 435 -90 c 0xfa
 435 -113 384 -261 250 -261 c 2
 240 -261 l 1
 240 -342 l 2
 240 -346 236 -350 232 -350 c 2
 214 -350 l 2
 210 -350 206 -346 206 -342 c 2
 206 -258 l 1
 141 -249 0 -206 0 0 c 0
 0 73 21 233 206 258 c 1
 206 342 l 2
 206 346 210 350 214 350 c 2
 232 350 l 2
 236 350 240 346 240 342 c 2
 240 261 l 1
 250 261 l 2
 367 261 430 159 430 99 c 0
 430 59 398 25 360 25 c 0xfc
206 -234 m 1
 206 234 l 1
 142 215 137 148 137 54 c 2
 137 0 l 1
 137 -54 l 2
 137 -148 142 -215 206 -234 c 1
EndSplineSet
EndChar

StartChar: brackettips.up
Encoding: 57498 57498 98
Width: 474
GlyphClass: 2
Flags: MW
HStem: -56 112<0 65 22 65 22 65>
LayerCount: 2
Fore
SplineSet
0 -56 m 1
 0 35 l 2
 0 47 10 56 22 56 c 2
 65 56 l 2
 229 56 346 192 442 328 c 0
 452 342 474 327 464 313 c 0
 361 168 242 -56 65 -56 c 2
 0 -56 l 1
EndSplineSet
EndChar

StartChar: brackettips.down
Encoding: 57499 57499 99
Width: 474
GlyphClass: 2
Flags: MW
HStem: -56 112<16 22 22 65>
LayerCount: 2
Fore
SplineSet
0 56 m 1
 65 56 l 2
 242 56 361 -168 464 -313 c 0
 474 -327 452 -342 442 -328 c 0
 346 -192 229 -56 65 -56 c 2
 22 -56 l 2
 10 -56 0 -47 0 -35 c 2
 0 56 l 1
EndSplineSet
EndChar

StartChar: accordion.discant
Encoding: 57500 57500 100
Width: 389
GlyphClass: 2
Flags: MW
HStem: -10 20<-76.5 76.5 -76.5 107> 240 20<-336 336 -336 -336> 490 20<-336 336 -336 343 -343 336> 740 20<-76.5 76.5>
VStem: -389 28<355 395 355 481.5> 361 28<355 395>
LayerCount: 2
Fore
SplineSet
389 375 m 0
 389 162 214 -10 0 -10 c 0
 -214 -10 -389 162 -389 375 c 0
 -389 588 -214 760 0 760 c 0
 214 760 389 588 389 375 c 0
343 260 m 1
 355 296 361 335 361 375 c 0
 361 415 355 454 343 490 c 1
 -343 490 l 1
 -355 454 -361 415 -361 375 c 0
 -361 335 -355 296 -343 260 c 1
 343 260 l 1
336 240 m 1
 -336 240 l 1
 -283 105 -153 10 0 10 c 0
 153 10 283 105 336 240 c 1
-336 510 m 1
 336 510 l 1
 283 645 153 740 0 740 c 0
 -153 740 -283 645 -336 510 c 1
EndSplineSet
EndChar

StartChar: accordion.dot
Encoding: 57501 57501 101
Width: 62
GlyphClass: 2
Flags: MW
HStem: -62 124<-17.5 17.5>
VStem: -62 124<-17.5 17.5>
LayerCount: 2
Fore
SplineSet
-62 0 m 0
 -62 35 -35 62 0 62 c 0
 35 62 62 35 62 0 c 0
 62 -35 35 -62 0 -62 c 0
 -35 -62 -62 -35 -62 0 c 0
EndSplineSet
EndChar

StartChar: accordion.freebass
Encoding: 57502 57502 102
Width: 264
GlyphClass: 2
Flags: MW
HStem: -10 20<-64 64 -64 72.5> 240 20<-236 236 -236 236> 490 20<-64 64>
VStem: -264 28<240 240 240 260 240 322> 236 28<240 240 260 260>
LayerCount: 2
Fore
SplineSet
264 250 m 0
 264 106 145 -10 0 -10 c 0
 -145 -10 -264 106 -264 250 c 0
 -264 394 -145 510 0 510 c 0
 145 510 264 394 264 250 c 0
236 240 m 1
 -236 240 l 1
 -231 113 -128 10 0 10 c 0
 128 10 231 113 236 240 c 1
-236 260 m 1
 236 260 l 1
 231 387 128 490 0 490 c 0
 -128 490 -231 387 -236 260 c 1
EndSplineSet
EndChar

StartChar: accordion.stdbass
Encoding: 57503 57503 103
Width: 514
GlyphClass: 2
Flags: MW
HStem: -10 20<-87 87 -87 141.5> 240 20<-412 412 -412 -412> 490 20<-486 486 -486 486> 740 20<-412 412 -412 424 -424 412> 990 20<-87 87>
VStem: -514 28<490 490 490 510 490 641> 486 28<490 490 510 510>
LayerCount: 2
Fore
SplineSet
514 500 m 0
 514 218 283 -10 0 -10 c 0
 -283 -10 -514 218 -514 500 c 0
 -514 782 -283 1010 0 1010 c 0
 283 1010 514 782 514 500 c 0
486 490 m 1
 -486 490 l 1
 -484 407 -462 328 -424 260 c 1
 424 260 l 1
 462 328 484 407 486 490 c 1
412 240 m 1
 -412 240 l 1
 -326 102 -174 10 0 10 c 0
 174 10 326 102 412 240 c 1
-486 510 m 1
 486 510 l 1
 484 593 462 672 424 740 c 1
 -424 740 l 1
 -462 672 -484 593 -486 510 c 1
-412 760 m 1
 412 760 l 1
 326 898 174 990 0 990 c 0
 -174 990 -326 898 -412 760 c 1
EndSplineSet
EndChar

StartChar: accordion.bayanbass
Encoding: 57504 57504 104
Width: 264
GlyphClass: 2
Flags: MW
HStem: 0 28<-254 236 -236 236 -236 250> 250 28<-236 236 -236 236> 500 28<-236 236 -236 236> 750 28<-236 236 -236 -236>
VStem: -264 28<28 250 278 500 528 750> 236 28<28 250 250 250 278 500 500 500 528 750 750 750>
LayerCount: 2
Fore
SplineSet
250 778 m 2
 258 778 264 772 264 764 c 2
 264 14 l 2
 264 6 258 0 250 0 c 2
 -250 0 l 2
 -258 0 -264 6 -264 14 c 2
 -264 764 l 2
 -264 772 -258 778 -250 778 c 2
 250 778 l 2
236 28 m 1
 236 250 l 1
 -236 250 l 1
 -236 28 l 1
 236 28 l 1
236 278 m 1
 236 500 l 1
 -236 500 l 1
 -236 278 l 1
 236 278 l 1
236 528 m 1
 236 750 l 1
 -236 750 l 1
 -236 528 l 1
 236 528 l 1
EndSplineSet
EndChar

StartChar: accordion.oldEE
Encoding: 57505 57505 105
Width: 264
GlyphClass: 2
Flags: MW
HStem: 0 20<-65.5 65.5 -65.5 72.5> 107 94<-119 -102.5 -119 -93 102.5 119> 213 94<-163 -140 140 163> 319 94<-119 -102.5 102.5 119> 500 20<-65.5 65.5>
VStem: -264 28<194 326 194 332> -153 94<141 157.5 141 167 362.5 379> -47 94<97 120 400 423> 59 94<141 157.5 362.5 379> 236 28<194 326>
LayerCount: 2
Fore
SplineSet
236 260 m 0
 236 392 131 500 0 500 c 0
 -131 500 -236 392 -236 260 c 0
 -236 128 -131 20 0 20 c 0
 131 20 236 128 236 260 c 0
264 260 m 0
 264 116 145 0 0 0 c 0
 -145 0 -264 116 -264 260 c 0
 -264 404 -145 520 0 520 c 0
 145 520 264 404 264 260 c 0
59 366 m 0
 59 392 80 413 106 413 c 0
 132 413 153 392 153 366 c 0
 153 340 132 319 106 319 c 0
 99 319 92 320 86 323 c 1
 34 279 l 2
 35 276 37 274 38 271 c 2
 106 276 l 1
 113 294 130 307 150 307 c 0
 176 307 197 286 197 260 c 0
 197 234 176 213 150 213 c 0
 130 213 113 226 106 244 c 1
 38 249 l 2
 37 246 35 244 34 241 c 2
 86 197 l 1
 92 200 99 201 106 201 c 0
 132 201 153 180 153 154 c 0
 153 128 132 107 106 107 c 0
 80 107 59 128 59 154 c 0
 59 161 60 168 63 174 c 1
 19 226 l 2
 16 225 14 223 11 222 c 2
 16 154 l 1
 34 147 47 130 47 110 c 0
 47 84 26 63 0 63 c 0
 -26 63 -47 84 -47 110 c 0
 -47 130 -34 147 -16 154 c 1
 -11 222 l 2
 -14 223 -16 225 -19 226 c 2
 -63 174 l 1
 -60 168 -59 161 -59 154 c 0
 -59 128 -80 107 -106 107 c 0
 -132 107 -153 128 -153 154 c 0
 -153 180 -132 201 -106 201 c 0
 -99 201 -92 200 -86 197 c 1
 -34 241 l 2
 -35 244 -37 246 -38 249 c 2
 -106 244 l 1
 -113 226 -130 213 -150 213 c 0
 -176 213 -197 234 -197 260 c 0
 -197 286 -176 307 -150 307 c 0
 -130 307 -113 294 -106 276 c 1
 -38 271 l 2
 -37 274 -35 276 -34 279 c 2
 -86 323 l 1
 -92 320 -99 319 -106 319 c 0
 -132 319 -153 340 -153 366 c 0
 -153 392 -132 413 -106 413 c 0
 -80 413 -59 392 -59 366 c 0
 -59 359 -60 352 -63 346 c 1
 -19 294 l 2
 -16 295 -14 297 -11 298 c 2
 -16 366 l 1
 -34 373 -47 390 -47 410 c 0
 -47 436 -26 457 0 457 c 0
 26 457 47 436 47 410 c 0
 47 390 34 373 16 366 c 1
 11 298 l 2
 14 297 16 295 19 294 c 2
 63 346 l 1
 60 352 59 359 59 366 c 0
EndSplineSet
EndChar

StartChar: accordion.push
Encoding: 57506 57506 106
Width: 0
GlyphClass: 2
Flags: MW
VStem: -223 220
LayerCount: 2
Fore
SplineSet
-195 558 m 2
 -3 292 l 2
 -1 289 0 286 0 282 c 0
 0 278 -1 275 -3 272 c 2
 -195 7 l 2
 -208 -11 -236 9 -223 27 c 2
 -38 282 l 1
 -223 538 l 2
 -236 556 -208 576 -195 558 c 2
EndSplineSet
EndChar

StartChar: accordion.pull
Encoding: 57507 57507 107
Width: 34
GlyphClass: 2
Flags: MW
HStem: 0 21G<12.5 21.5> 497 68<-179.5 17 -175 0>
VStem: 0 34<17 497 497 497>
LayerCount: 2
Fore
SplineSet
34 17 m 2
 34 8 26 0 17 0 c 0
 8 0 0 8 0 17 c 2
 0 497 l 1
 -175 497 l 2
 -184 497 -192 505 -192 514 c 2
 -192 548 l 2
 -192 557 -184 565 -175 565 c 2
 17 565 l 2
 26 565 34 557 34 548 c 2
 34 17 l 2
EndSplineSet
EndChar

StartChar: ties.lyric.short
Encoding: 57508 57508 108
Width: 0
GlyphClass: 2
Flags: MW
HStem: -180 43<-56.5 56.5>
LayerCount: 2
Fore
SplineSet
169 -100 m 0
 169 -111 113 -180 0 -180 c 0
 -113 -180 -169 -111 -169 -100 c 0
 -169 -93 -163 -87 -156 -87 c 0
 -129 -87 -154 -137 0 -137 c 0
 154 -137 129 -87 156 -87 c 0
 163 -87 169 -93 169 -100 c 0
EndSplineSet
EndChar

StartChar: ties.lyric.default
Encoding: 57509 57509 109
Width: 0
GlyphClass: 2
Flags: MW
HStem: -186 44<-37.5 37.5 -37.5 75>
LayerCount: 2
Fore
SplineSet
232 -100 m 0
 232 -111 150 -186 0 -186 c 0
 -150 -186 -232 -111 -232 -100 c 0
 -232 -93 -226 -87 -219 -87 c 0
 -216 -87 -213 -88 -210 -90 c 0
 -153 -139 -75 -142 0 -142 c 0
 75 -142 153 -139 210 -90 c 0
 213 -88 216 -87 219 -87 c 0
 226 -87 232 -93 232 -100 c 0
EndSplineSet
EndChar

StartChar: four.alt
Encoding: 57510 57510 110
Width: 391
GlyphClass: 2
Flags: MW
HStem: 0 21<128.5 152.5 357.5 381.5> 125 27<16.5 200 27 200 310 378>
VStem: 200 110<109 125 86.5 125 152 153 153 169> 290 20<86.5 109 109 125 152 263 152 152 485 485>
LayerCount: 2
Fore
SplineSet
-2 146 m 0xe0
 -2 159 146 297 146 485 c 0
 146 495 153 503 161 500 c 0
 183 493 205 487 228 487 c 0
 251 487 273 493 295 500 c 0
 307 504 316 492 310 485 c 2xd0
 27 152 l 1
 200 152 l 1
 200 153 l 2xe0
 200 185 234 177 265 220 c 0
 276 235 283 253 290 270 c 0
 294 279 310 277 310 263 c 2xd0
 310 152 l 1
 378 152 l 2
 387 152 391 145 391 138 c 0
 391 131 387 125 378 125 c 2
 310 125 l 1
 310 109 l 2
 310 64 336 21 378 21 c 0
 385 21 388 16 388 11 c 0
 388 6 385 0 378 0 c 0
 337 0 296 13 255 13 c 0
 214 13 173 0 132 0 c 0
 125 0 122 6 122 11 c 0
 122 16 125 21 132 21 c 0
 174 21 200 64 200 109 c 2
 200 125 l 1
 27 125 l 2
 6 125 -2 138 -2 146 c 0xe0
EndSplineSet
Substitution2: "'ss01' Stilgruppe 1 Nachschlagetabelle 3 Subtabelle" fattened.four.alt
Substitution2: "'tnum' Tabellenziffern Nachschlagetabelle 1 Subtabelle" fixedwidth.four.alt
EndChar

StartChar: seven.alt
Encoding: 57511 57511 111
Width: 332
GlyphClass: 2
Flags: MW
HStem: 367 84<156 278> 419 81<9.5 93>
VStem: 0 27<350 374.5 468.5 473 473 487>
LayerCount: 2
Fore
SplineSet
352 487 m 0x60
 352 468 183 283 183 87 c 0
 183 63 185 39 190 15 c 0
 192 5 184 -3 175 0 c 0
 153 7 131 13 108 13 c 0
 85 13 64 7 42 0 c 0
 32 -3 23 6 27 15 c 0
 84 149 166 268 251 386 c 1
 229 374 207 367 186 367 c 0xa0
 126 367 117 419 69 419 c 0
 45 419 27 399 27 350 c 0
 27 341 20 337 13 337 c 0
 6 337 0 341 0 350 c 2
 0 487 l 2
 0 496 6 500 13 500 c 0
 20 500 27 496 27 487 c 2
 27 473 l 2
 27 464 37 455 40 459 c 0
 59 486 92 500 125 500 c 0x60
 196 500 197 451 250 451 c 0xa0
 306 451 325 500 338 500 c 0
 345 500 352 494 352 487 c 0x60
EndSplineSet
Substitution2: "'ss01' Stilgruppe 1 Nachschlagetabelle 3 Subtabelle" fattened.seven.alt
Substitution2: "'tnum' Tabellenziffern Nachschlagetabelle 1 Subtabelle" fixedwidth.seven.alt
EndChar

StartChar: fixedwidth.zero
Encoding: 57512 57512 112
Width: 391
GlyphClass: 2
Flags: MW
HStem: 0 27<163 229 163 253.5> 473 27<163 229>
VStem: 16 109<186.5 210 210 250 250 290 168.5 313.5> 266 109<210 250 250 290 290 313.5 186.5 331.5>
LayerCount: 2
Fore
SplineSet
196 473 m 0
 130 473 125 373 125 290 c 2
 125 250 l 1
 125 210 l 2
 125 127 130 27 196 27 c 0
 262 27 266 127 266 210 c 2
 266 250 l 1
 266 290 l 2
 266 373 262 473 196 473 c 0
196 500 m 0
 311 500 375 377 375 250 c 0
 375 123 311 0 196 0 c 0
 81 0 16 123 16 250 c 0
 16 377 81 500 196 500 c 0
EndSplineSet
Substitution2: "'ss01' Stilgruppe 1 Nachschlagetabelle 3 Subtabelle" fattened.fixedwidth.zero
EndChar

StartChar: fixedwidth.one
Encoding: 57513 57513 113
Width: 391
GlyphClass: 2
Flags: MW
HStem: 0 21<94.5 118.5 322.5 346.5>
VStem: 55 26<239 245> 166 109<109 367 367 372.5>
LayerCount: 2
Fore
SplineSet
57 250 m 2
 166 500 l 2
 171 512 194 487 220 487 c 0
 234 487 247 494 260 500 c 0
 267 504 275 496 275 485 c 2
 275 109 l 2
 275 64 301 21 343 21 c 0
 350 21 354 16 354 11 c 0
 354 6 350 0 343 0 c 0
 302 0 261 13 220 13 c 0
 179 13 139 0 98 0 c 0
 91 0 87 6 87 11 c 0
 87 16 91 21 98 21 c 0
 140 21 166 64 166 109 c 2
 166 367 l 2
 166 378 158 384 151 384 c 0
 147 384 143 382 141 378 c 2
 81 239 l 2
 79 233 74 231 69 231 c 0
 62 231 55 236 55 244 c 0
 55 246 56 248 57 250 c 2
EndSplineSet
Substitution2: "'ss01' Stilgruppe 1 Nachschlagetabelle 3 Subtabelle" fattened.fixedwidth.one
EndChar

StartChar: fixedwidth.two
Encoding: 57514 57514 114
Width: 391
GlyphClass: 2
Flags: MW
HStem: 0 73<282 288.5> 65 66<84 181.5> 479 21<166 204>
VStem: 16 21<6.5 87> 31 101<355 453> 248 109<277 385>
LayerCount: 2
Fore
SplineSet
243 0 m 0xac
 156 0 154 65 99 65 c 0x6c
 69 65 40 44 37 10 c 0
 36 3 32 0 27 0 c 0
 22 0 16 3 16 10 c 0xb4
 16 164 248 181 248 355 c 0
 248 415 230 479 178 479 c 0
 154 479 132 464 132 442 c 0
 132 415 167 401 167 374 c 0
 167 336 137 305 99 305 c 0
 61 305 31 336 31 374 c 0
 31 448 100 500 178 500 c 0
 271 500 357 442 357 355 c 0
 357 199 198 195 104 126 c 1
 116 129 128 131 141 131 c 0x6c
 222 131 252 73 312 73 c 0
 358 73 348 109 364 109 c 0
 369 109 375 105 375 99 c 0
 375 78 334 0 243 0 c 0xac
EndSplineSet
Substitution2: "'ss01' Stilgruppe 1 Nachschlagetabelle 3 Subtabelle" fattened.fixedwidth.two
EndChar

StartChar: fixedwidth.three
Encoding: 57515 57515 115
Width: 391
GlyphClass: 2
Flags: MW
HStem: 0 21<168 208 168 232> 250 27<109.5 196 114 196> 479 21<166 205>
VStem: 33 90<45 129> 49 79<383 457.5> 250 95<354.5 413> 250 109<111 171>
LayerCount: 2
Fore
SplineSet
291 264 m 0xec
 291 233 359 245 359 140 c 0
 359 49 281 0 183 0 c 0
 106 0 33 41 33 111 c 0
 33 147 62 176 98 176 c 0
 134 176 163 147 163 111 c 0
 163 86 123 83 123 58 c 0
 123 32 153 21 183 21 c 0
 233 21 250 82 250 140 c 0xf2
 250 202 249 250 196 250 c 2
 114 250 l 2
 105 250 101 257 101 264 c 0
 101 271 105 277 114 277 c 2
 196 277 l 2
 248 277 250 324 250 385 c 0
 250 441 231 479 179 479 c 0
 153 479 128 469 128 446 c 0
 128 424 163 421 163 399 c 0
 163 367 138 342 106 342 c 0
 74 342 49 367 49 399 c 0
 49 461 112 500 179 500 c 0
 269 500 345 465 345 385 c 0
 345 259 291 304 291 264 c 0xec
EndSplineSet
Substitution2: "'ss01' Stilgruppe 1 Nachschlagetabelle 3 Subtabelle" fattened.fixedwidth.three
EndChar

StartChar: fixedwidth.four
Encoding: 57516 57516 116
Width: 391
GlyphClass: 2
Flags: MW
HStem: 0 21<128.5 152.5 357.5 381.5> 125 27<16.5 200 27 200 310 378>
VStem: 200 110<109 125 86.5 125 152 299 299 315> 290 20<86.5 109 109 125 152 408 152 152 485 485>
LayerCount: 2
Fore
SplineSet
-2 146 m 0xe0
 -2 159 146 297 146 485 c 0
 146 495 153 503 161 500 c 0
 183 493 205 487 228 487 c 0
 251 487 273 493 295 500 c 0
 307 504 316 492 310 485 c 2xd0
 27 152 l 1
 200 152 l 1
 200 299 l 2xe0
 200 331 234 323 265 366 c 0
 276 381 283 398 290 415 c 0
 294 424 310 422 310 408 c 2xd0
 310 152 l 1
 378 152 l 2
 387 152 391 145 391 138 c 0
 391 131 387 125 378 125 c 2
 310 125 l 1
 310 109 l 2
 310 64 336 21 378 21 c 0
 385 21 388 16 388 11 c 0
 388 6 385 0 378 0 c 0
 337 0 296 13 255 13 c 0
 214 13 173 0 132 0 c 0
 125 0 122 6 122 11 c 0
 122 16 125 21 132 21 c 0
 174 21 200 64 200 109 c 2
 200 125 l 1
 27 125 l 2
 6 125 -2 138 -2 146 c 0xe0
EndSplineSet
Substitution2: "'ss01' Stilgruppe 1 Nachschlagetabelle 3 Subtabelle" fattened.fixedwidth.four
Substitution2: "'cv47' Zeichenvarianten 47 Nachschlagetabelle 2 Subtabelle" fixedwidth.four.alt
EndChar

StartChar: fixedwidth.four.alt
Encoding: 57517 57517 117
Width: 391
GlyphClass: 2
Flags: MW
HStem: 0 21<128.5 152.5 357.5 381.5> 125 27<16.5 200 27 200 310 378>
VStem: 200 110<109 125 86.5 125 152 153 153 169> 290 20<86.5 109 109 125 152 263 152 152 485 485>
LayerCount: 2
Fore
SplineSet
-2 146 m 0xe0
 -2 159 146 297 146 485 c 0
 146 495 153 503 161 500 c 0
 183 493 205 487 228 487 c 0
 251 487 273 493 295 500 c 0
 307 504 316 492 310 485 c 2xd0
 27 152 l 1
 200 152 l 1
 200 153 l 2xe0
 200 185 234 177 265 220 c 0
 276 235 283 253 290 270 c 0
 294 279 310 277 310 263 c 2xd0
 310 152 l 1
 378 152 l 2
 387 152 391 145 391 138 c 0
 391 131 387 125 378 125 c 2
 310 125 l 1
 310 109 l 2
 310 64 336 21 378 21 c 0
 385 21 388 16 388 11 c 0
 388 6 385 0 378 0 c 0
 337 0 296 13 255 13 c 0
 214 13 173 0 132 0 c 0
 125 0 122 6 122 11 c 0
 122 16 125 21 132 21 c 0
 174 21 200 64 200 109 c 2
 200 125 l 1
 27 125 l 2
 6 125 -2 138 -2 146 c 0xe0
EndSplineSet
Substitution2: "'ss01' Stilgruppe 1 Nachschlagetabelle 3 Subtabelle" fattened.fixedwidth.four.alt
EndChar

StartChar: fixedwidth.five
Encoding: 57518 57518 118
Width: 391
GlyphClass: 2
Flags: MW
HStem: 0 21<166.5 212.5 166.5 232> 295 27<160.5 208> 398 89<89 222.5>
VStem: 21 90<43 129> 52 26<275 383 275 485> 253 109<127.5 193.5>
LayerCount: 2
Fore
SplineSet
180 295 m 0xf4
 97 295 79 242 65 242 c 0
 58 242 52 247 52 255 c 2
 52 485 l 2
 52 494 59 501 67 500 c 0
 111 492 155 487 200 487 c 0
 245 487 290 492 334 500 c 0
 347 502 355 491 349 485 c 0
 283 419 187 398 93 398 c 0
 85 398 78 391 78 383 c 2
 78 275 l 1xec
 106 303 141 322 180 322 c 0
 294 322 362 270 362 161 c 0
 362 69 280 0 184 0 c 0
 102 0 21 38 21 111 c 0
 21 147 51 176 87 176 c 0
 123 176 152 147 152 111 c 0
 152 86 111 83 111 58 c 0
 111 28 149 21 184 21 c 0
 241 21 253 94 253 161 c 0
 253 226 236 295 180 295 c 0xf4
EndSplineSet
Substitution2: "'ss01' Stilgruppe 1 Nachschlagetabelle 3 Subtabelle" fattened.fixedwidth.five
EndChar

StartChar: fixedwidth.six
Encoding: 57519 57519 119
Width: 391
GlyphClass: 2
Flags: MW
HStem: 0 21<167.5 225 167.5 245.5> 257 21<185 225> 479 21<181 226.5>
VStem: 29 109<259 314> 257 92<381 457.5> 260 102<105.5 172.5>
LayerCount: 2
Fore
SplineSet
196 257 m 0xf4
 139 257 138 205 138 139 c 0
 138 73 139 21 196 21 c 0
 254 21 260 72 260 139 c 0
 260 206 254 257 196 257 c 0xf4
138 259 m 1
 154 271 174 278 196 278 c 0
 295 278 362 232 362 139 c 0xf4
 362 46 295 0 196 0 c 0
 85 0 29 125 29 250 c 0
 29 378 99 500 216 500 c 0
 284 500 349 462 349 399 c 0
 349 363 319 334 283 334 c 0
 247 334 218 363 218 399 c 0
 218 422 257 425 257 448 c 0xf8
 257 467 237 479 216 479 c 0
 146 479 138 408 138 328 c 2
 138 259 l 1
EndSplineSet
Substitution2: "'ss01' Stilgruppe 1 Nachschlagetabelle 3 Subtabelle" fattened.fixedwidth.six
EndChar

StartChar: fixedwidth.seven
Encoding: 57520 57520 120
Width: 391
GlyphClass: 2
Flags: MW
HStem: 367 83<192 315.5> 420 80<39.5 126>
VStem: 30 27<263 350 468.5 473 473 487>
LayerCount: 2
Fore
SplineSet
391 487 m 0x60
 391 465 213 277 213 83 c 0
 213 60 215 38 220 15 c 0
 222 5 214 -3 205 0 c 0
 183 7 162 13 139 13 c 0
 116 13 94 7 72 0 c 0
 62 -3 53 6 57 15 c 0
 114 150 201 267 288 385 c 1
 266 373 244 367 223 367 c 0xa0
 161 367 151 420 101 420 c 0
 88 420 57 415 57 350 c 2
 57 263 l 2
 57 254 50 250 43 250 c 0
 36 250 30 254 30 263 c 2
 30 487 l 2
 30 496 36 500 43 500 c 0
 50 500 57 496 57 487 c 2
 57 473 l 2
 57 464 67 455 70 459 c 0
 89 486 123 500 157 500 c 0x60
 231 500 232 450 287 450 c 0xa0
 344 450 364 500 377 500 c 0
 384 500 391 494 391 487 c 0x60
EndSplineSet
Substitution2: "'ss01' Stilgruppe 1 Nachschlagetabelle 3 Subtabelle" fattened.fixedwidth.seven
Substitution2: "'cv47' Zeichenvarianten 47 Nachschlagetabelle 2 Subtabelle" fixedwidth.seven.alt
EndChar

StartChar: fixedwidth.seven.alt
Encoding: 57521 57521 121
Width: 391
GlyphClass: 2
Flags: MW
HStem: 367 83<192 315.5> 420 80<39.5 126>
VStem: 30 27<350 382.5 468.5 473 473 487>
LayerCount: 2
Fore
SplineSet
391 487 m 0x60
 391 465 213 277 213 83 c 0
 213 60 215 38 220 15 c 0
 222 5 214 -3 205 0 c 0
 183 7 162 13 139 13 c 0
 116 13 94 7 72 0 c 0
 62 -3 53 6 57 15 c 0
 114 150 201 267 288 385 c 1
 266 373 244 367 223 367 c 0xa0
 161 367 151 420 101 420 c 0
 88 420 57 415 57 350 c 0
 57 341 50 337 43 337 c 0
 36 337 30 341 30 350 c 2
 30 487 l 2
 30 496 36 500 43 500 c 0
 50 500 57 496 57 487 c 2
 57 473 l 2
 57 464 67 455 70 459 c 0
 89 486 123 500 157 500 c 0x60
 231 500 232 450 287 450 c 0xa0
 344 450 364 500 377 500 c 0
 384 500 391 494 391 487 c 0x60
EndSplineSet
Substitution2: "'ss01' Stilgruppe 1 Nachschlagetabelle 3 Subtabelle" fattened.fixedwidth.seven.alt
EndChar

StartChar: fixedwidth.eight
Encoding: 57522 57522 122
Width: 391
GlyphClass: 2
Flags: MW
HStem: 0 21<159.5 223.5 159.5 256> 479 21<179 232.5>
VStem: 16 40<103.5 160 103.5 163.5> 32 95<394 401.5> 284 96<106 118.5> 317 40<368 415.5>
LayerCount: 2
Fore
SplineSet
272 283 m 1xd4
 298 314 317 348 317 388 c 0
 317 443 262 479 203 479 c 0
 155 479 127 442 127 405 c 0
 127 383 138 360 161 347 c 2
 272 283 l 1xd4
300 266 m 1
 323 253 380 213 380 142 c 0
 380 70 316 0 196 0 c 0
 104 0 16 53 16 138 c 0xe8
 16 189 53 228 89 264 c 1
 51 292 32 330 32 368 c 0
 32 435 92 500 203 500 c 0
 281 500 357 459 357 388 c 0
 357 341 332 301 300 266 c 1
117 246 m 1
 85 215 56 182 56 138 c 0
 56 69 123 21 196 21 c 0
 251 21 284 64 284 106 c 0
 284 131 272 157 246 172 c 2
 117 246 l 1
EndSplineSet
Substitution2: "'ss01' Stilgruppe 1 Nachschlagetabelle 3 Subtabelle" fattened.fixedwidth.eight
EndChar

StartChar: fixedwidth.nine
Encoding: 57523 57523 123
Width: 391
GlyphClass: 2
Flags: MW
HStem: 0 21<165.5 211 165.5 234.5> 222 21<167 207> 479 21<167 224.5>
VStem: 29 103<327.5 394.5 327.5 407.5> 43 91<42.5 119> 253 109<229.5 241 186 394>
LayerCount: 2
Fore
SplineSet
196 243 m 0xf4
 253 243 253 295 253 361 c 0
 253 427 253 479 196 479 c 0
 138 479 132 428 132 361 c 0
 132 294 138 243 196 243 c 0xf4
253 241 m 1
 237 229 218 222 196 222 c 0
 97 222 29 268 29 361 c 0xf4
 29 454 97 500 196 500 c 0
 307 500 362 375 362 250 c 0
 362 122 293 0 176 0 c 0
 108 0 43 38 43 101 c 0
 43 137 72 166 108 166 c 0
 144 166 173 137 173 101 c 0
 173 78 134 75 134 52 c 0xec
 134 33 155 21 176 21 c 0
 246 21 254 92 254 172 c 0
 254 195 253 218 253 241 c 1
EndSplineSet
Substitution2: "'ss01' Stilgruppe 1 Nachschlagetabelle 3 Subtabelle" fattened.fixedwidth.nine
EndChar

StartChar: fattened.zero
Encoding: 57524 57524 124
Width: 358
GlyphClass: 2
Flags: MW
HStem: 0 40<144.5 213.5 144.5 236.5> 460 40<144.5 213.5>
VStem: 0 109<198.5 239 239 250 250 261 198.5 313.5> 250 109<239 250 250 261 261 301.5>
LayerCount: 2
Fore
SplineSet
179 460 m 0
 110 460 109 342 109 261 c 2
 109 250 l 1
 109 239 l 2
 109 158 110 40 179 40 c 0
 248 40 250 158 250 239 c 2
 250 250 l 1
 250 261 l 2
 250 342 248 460 179 460 c 0
179 500 m 0
 294 500 359 377 359 250 c 0
 359 123 294 0 179 0 c 0
 64 0 0 123 0 250 c 0
 0 377 64 500 179 500 c 0
EndSplineSet
Substitution2: "'tnum' Tabellenziffern Nachschlagetabelle 1 Subtabelle" fattened.fixedwidth.zero
EndChar

StartChar: fattened.one
Encoding: 57525 57525 125
Width: 302
GlyphClass: 2
Flags: MW
HStem: 0 32<35.5 60.5 35.5 61.5 266.5 291.5> 481 20G<196.5 205.5>
VStem: -2 38<234 242.5> 109 109<109 301 301 309>
LayerCount: 2
Fore
SplineSet
164 487 m 0
 180 487 192 501 201 501 c 0
 210 501 218 490 218 477 c 2
 218 109 l 2
 218 68 247 32 286 32 c 0
 297 32 302 24 302 16 c 0
 302 8 297 0 286 0 c 0
 245 0 205 13 164 13 c 0
 123 13 82 0 41 0 c 0
 30 0 25 8 25 16 c 0
 25 24 30 32 41 32 c 0
 80 32 109 68 109 109 c 2
 109 301 l 2
 109 317 97 326 87 326 c 0
 81 326 76 323 73 317 c 2
 36 234 l 2
 32 225 26 222 19 222 c 0
 9 222 -2 230 -2 241 c 0
 -2 244 -1 247 0 250 c 2
 109 500 l 2
 116 516 145 487 164 487 c 0
EndSplineSet
Substitution2: "'tnum' Tabellenziffern Nachschlagetabelle 1 Subtabelle" fattened.fixedwidth.one
EndChar

StartChar: fattened.two
Encoding: 57526 57526 126
Width: 358
GlyphClass: 2
Flags: MW
HStem: 0 73<265.5 273> 63 70<56.5 163> 468 32<149 185.5>
VStem: 13 102<344 442> 232 109<280 383>
LayerCount: 2
Fore
SplineSet
87 63 m 0x78
 26 63 41 0 16 0 c 0xb8
 8 0 0 6 0 16 c 0
 0 170 232 182 232 355 c 0
 232 411 210 468 161 468 c 0
 137 468 115 453 115 431 c 0
 115 404 150 390 150 363 c 0
 150 325 119 295 81 295 c 0
 43 295 13 325 13 363 c 0
 13 441 81 500 161 500 c 0
 254 500 341 442 341 355 c 0
 341 205 189 197 98 130 c 1
 106 131 114 133 122 133 c 0x78
 204 133 238 73 293 73 c 0
 335 73 320 109 342 109 c 0
 350 109 359 103 359 94 c 0
 359 70 317 0 229 0 c 0xb8
 141 0 138 63 87 63 c 0x78
EndSplineSet
Substitution2: "'tnum' Tabellenziffern Nachschlagetabelle 1 Subtabelle" fattened.fixedwidth.two
EndChar

StartChar: fattened.three
Encoding: 57527 57527 127
Width: 326
GlyphClass: 2
Flags: MW
HStem: 0 32<136 174.5 136 200> 244 40<81.5 163 88 163> 468 32<133.5 171.5>
VStem: 0 90<55 140> 13 79<372 447> 217 95<356 410.5> 217 109<113.5 169.5>
LayerCount: 2
Fore
SplineSet
252 264 m 0xec
 252 222 326 236 326 140 c 0
 326 49 249 0 151 0 c 0
 72 0 0 49 0 122 c 0
 0 158 29 187 65 187 c 0
 101 187 130 158 130 122 c 0
 130 97 90 93 90 68 c 0
 90 42 121 32 151 32 c 0
 198 32 217 87 217 140 c 0xf2
 217 199 214 244 163 244 c 2
 88 244 l 2
 75 244 68 254 68 264 c 0
 68 274 75 284 88 284 c 2
 163 284 l 2
 213 284 217 327 217 385 c 0
 217 436 196 468 147 468 c 0
 120 468 92 459 92 435 c 0
 92 413 127 410 127 388 c 0
 127 356 102 331 70 331 c 0
 38 331 13 356 13 388 c 0
 13 454 77 500 147 500 c 0
 237 500 312 465 312 385 c 0
 312 274 252 310 252 264 c 0xec
EndSplineSet
Substitution2: "'tnum' Tabellenziffern Nachschlagetabelle 1 Subtabelle" fattened.fixedwidth.three
EndChar

StartChar: fattened.four
Encoding: 57528 57528 128
Width: 391
GlyphClass: 2
Flags: MW
HStem: 0 32<126.5 151.5 126.5 152.5 358.5 383.5> 125 40<24 200 40 200 310 371> 481 20G<159 167.5 289 299.5>
VStem: 200 110<109 125 88.5 125 165 265 265 288.5> 265 45
LayerCount: 2
Fore
SplineSet
164 501 m 0xf0
 171 501 200 487 228 487 c 0
 257 487 284 501 294 501 c 0
 305 501 312 493 312 485 c 0
 312 482 312 479 310 477 c 2xe8
 40 165 l 1
 200 165 l 1
 200 265 l 2xf0
 200 312 241 297 265 337 c 0
 278 358 275 382 292 382 c 0
 300 382 310 375 310 363 c 2xe8
 310 165 l 1
 371 165 l 2
 384 165 391 155 391 145 c 0
 391 135 384 125 371 125 c 2
 310 125 l 1
 310 109 l 2
 310 68 339 32 378 32 c 0
 389 32 394 24 394 16 c 0
 394 8 389 0 378 0 c 0
 337 0 296 13 255 13 c 0
 214 13 173 0 132 0 c 0
 121 0 116 8 116 16 c 0
 116 24 121 32 132 32 c 0
 171 32 200 68 200 109 c 2
 200 125 l 1
 40 125 l 2
 8 125 -2 144 -2 156 c 0
 -2 175 146 303 146 477 c 0
 146 490 154 501 164 501 c 0xf0
EndSplineSet
Substitution2: "'cv47' Zeichenvarianten 47 Nachschlagetabelle 2 Subtabelle" fattened.four.alt
Substitution2: "'tnum' Tabellenziffern Nachschlagetabelle 1 Subtabelle" fattened.fixedwidth.four
EndChar

StartChar: fattened.four.alt
Encoding: 57529 57529 129
Width: 391
GlyphClass: 2
Flags: MW
HStem: 0 32<126.5 151.5 126.5 152.5 358.5 383.5> 13 96<234.5 275.5> 125 40<24 200 40 200 310 371> 481 20G<159 167.5 289 299.5>
VStem: 200 110<88.5 109 109 125 88.5 125 165 168 168 191.5> 265 45
LayerCount: 2
Fore
SplineSet
200 109 m 1x78
 310 109 l 1x78
 310 68 339 32 378 32 c 0
 389 32 394 24 394 16 c 0
 394 8 389 0 378 0 c 0xb8
 337 0 296 13 255 13 c 0x78
 214 13 173 0 132 0 c 0
 121 0 116 8 116 16 c 0
 116 24 121 32 132 32 c 0xb8
 171 32 200 68 200 109 c 1x78
164 501 m 0
 171 501 200 487 228 487 c 0
 257 487 284 501 294 501 c 0
 305 501 312 493 312 485 c 0
 312 482 312 479 310 477 c 2x74
 40 165 l 1
 200 165 l 1
 200 168 l 2x78
 200 215 241 199 265 239 c 0
 278 260 275 284 292 284 c 0
 300 284 310 277 310 265 c 2x74
 310 165 l 1
 371 165 l 2
 384 165 391 155 391 145 c 0
 391 135 384 125 371 125 c 2
 310 125 l 1
 310 109 l 1
 200 109 l 1
 200 125 l 1
 40 125 l 2
 8 125 -2 144 -2 156 c 0
 -2 175 146 303 146 477 c 0
 146 490 154 501 164 501 c 0
EndSplineSet
Substitution2: "'tnum' Tabellenziffern Nachschlagetabelle 1 Subtabelle" fattened.fixedwidth.four.alt
EndChar

StartChar: fattened.five
Encoding: 57530 57530 130
Width: 330
GlyphClass: 2
Flags: MW
HStem: 0 32<148 193.5 148 214.5> 290 40<150.5 195> 398 89<147 182.5> 480 20G<44.5 53 306 316>
VStem: 0 90<52.5 140> 30 40<291 375 291 477> 237 109<133 195.5>
LayerCount: 2
Fore
SplineSet
50 500 m 0xd6
 56 500 115 487 179 487 c 0xe6
 244 487 302 500 310 500 c 0xd6
 322 500 330 493 330 485 c 0
 330 482 273 398 92 398 c 0
 80 398 70 387 70 375 c 2
 70 291 l 1xe6
 96 317 132 330 169 330 c 0
 281 330 346 275 346 165 c 0
 346 71 263 0 166 0 c 0
 81 0 0 45 0 122 c 0
 0 158 29 187 65 187 c 0
 101 187 130 158 130 122 c 0
 130 97 90 93 90 68 c 0xea
 90 37 130 32 166 32 c 0
 221 32 237 101 237 165 c 0
 237 226 221 290 169 290 c 0
 79 290 71 238 50 238 c 0
 40 238 30 246 30 258 c 2
 30 477 l 2
 30 489 39 500 50 500 c 0xd6
EndSplineSet
Substitution2: "'tnum' Tabellenziffern Nachschlagetabelle 1 Subtabelle" fattened.fixedwidth.five
EndChar

StartChar: fattened.six
Encoding: 57531 57531 131
Width: 332
GlyphClass: 2
Flags: MW
HStem: 0 32<141 192 141 215> 233 31<155 192> 468 32<150.5 196.5>
VStem: 0 109<246 250 250 309> 228 91<370 446.5> 230 103<102.5 161.5>
LayerCount: 2
Fore
SplineSet
166 233 m 0xf4
 116 233 109 190 109 132 c 0
 109 74 116 32 166 32 c 0
 218 32 230 73 230 132 c 0
 230 191 218 233 166 233 c 0xf4
109 246 m 1
 125 257 144 264 166 264 c 0
 264 264 333 223 333 132 c 0xf4
 333 41 264 0 166 0 c 0
 55 0 0 125 0 250 c 0
 0 378 69 500 186 500 c 0
 256 500 319 454 319 388 c 0
 319 352 290 323 254 323 c 0
 218 323 189 352 189 388 c 0
 189 411 228 414 228 437 c 0xf8
 228 456 207 468 186 468 c 0
 115 468 109 391 109 309 c 2
 109 250 l 1
 109 246 l 1
EndSplineSet
Substitution2: "'tnum' Tabellenziffern Nachschlagetabelle 1 Subtabelle" fattened.fixedwidth.six
EndChar

StartChar: fattened.seven
Encoding: 57532 57532 132
Width: 318
GlyphClass: 2
Flags: MW
HStem: -1 21G<51 60.5 182 191> 366 88<162.5 270.5> 411 42
VStem: 0 40<270 344 461 466 466 480> 38 158<11.5 194>
LayerCount: 2
Fore
SplineSet
349 480 m 0xd0
 349 459 196 291 196 97 c 0
 196 51 204 24 204 18 c 0
 204 7 196 -1 186 -1 c 0
 178 -1 151 13 122 13 c 0
 93 13 65 -1 56 -1 c 0
 46 -1 38 7 38 16 c 0
 38 20 90 157 233 375 c 1
 219 370 205 366 191 366 c 0xc8
 134 366 127 411 86 411 c 0
 51 411 40 359 40 344 c 2
 40 270 l 2
 40 257 30 250 20 250 c 0
 10 250 0 257 0 270 c 2
 0 480 l 2
 0 493 10 500 20 500 c 0
 30 500 40 493 40 480 c 2
 40 466 l 2
 40 456 56 448 60 453 c 0xb0
 82 484 109 500 138 500 c 0
 193 500 201 454 245 454 c 0
 296 454 309 500 328 500 c 0
 339 500 349 491 349 480 c 0xd0
EndSplineSet
Substitution2: "'cv47' Zeichenvarianten 47 Nachschlagetabelle 2 Subtabelle" fattened.seven.alt
Substitution2: "'tnum' Tabellenziffern Nachschlagetabelle 1 Subtabelle" fattened.fixedwidth.seven
EndChar

StartChar: fattened.seven.alt
Encoding: 57533 57533 133
Width: 318
GlyphClass: 2
Flags: MW
HStem: -1 21G<51 60.5 182 191> 366 88<162.5 270.5> 411 42
VStem: 0 40<344 351.5 461 466 466 480> 38 158<11.5 194>
LayerCount: 2
Fore
SplineSet
349 480 m 0xd0
 349 459 196 291 196 97 c 0
 196 51 204 24 204 18 c 0
 204 7 196 -1 186 -1 c 0
 178 -1 151 13 122 13 c 0
 93 13 65 -1 56 -1 c 0
 46 -1 38 7 38 16 c 0
 38 20 90 157 233 375 c 1
 219 370 205 366 191 366 c 0xc8
 134 366 127 411 86 411 c 0
 51 411 40 359 40 344 c 0
 40 331 30 324 20 324 c 0
 10 324 0 331 0 344 c 2
 0 480 l 2
 0 493 10 500 20 500 c 0
 30 500 40 493 40 480 c 2
 40 466 l 2
 40 456 56 448 60 453 c 0xb0
 82 484 109 500 138 500 c 0
 193 500 201 454 245 454 c 0
 296 454 309 500 328 500 c 0
 339 500 349 491 349 480 c 0xd0
EndSplineSet
Substitution2: "'tnum' Tabellenziffern Nachschlagetabelle 1 Subtabelle" fattened.fixedwidth.seven.alt
EndChar

StartChar: fattened.eight
Encoding: 57534 57534 134
Width: 358
GlyphClass: 2
Flags: MW
HStem: 0 32<146.5 205.5 146.5 239> 468 32<164.5 211.5>
VStem: 0 60<113 164.5 113 169.5> 16 99<389 401.5> 264 100<106 123.5> 281 60<375.5 417.5>
LayerCount: 2
Fore
SplineSet
236 294 m 1xd4
 261 324 281 356 281 395 c 0
 281 440 236 468 187 468 c 0
 142 468 115 433 115 399 c 0
 115 379 123 359 144 347 c 2
 236 294 l 1xd4
278 269 m 1
 326 241 364 201 364 142 c 0
 364 70 299 0 179 0 c 0
 86 0 0 58 0 145 c 0xe8
 0 194 34 231 69 266 c 1
 33 294 16 332 16 368 c 0
 16 435 76 500 187 500 c 0
 265 500 341 464 341 395 c 0
 341 346 312 305 278 269 c 1
110 241 m 1
 82 214 60 184 60 145 c 0
 60 81 114 32 179 32 c 0
 232 32 264 73 264 112 c 0
 264 135 253 159 230 172 c 2
 110 241 l 1
EndSplineSet
Substitution2: "'tnum' Tabellenziffern Nachschlagetabelle 1 Subtabelle" fattened.fixedwidth.eight
EndChar

StartChar: fattened.nine
Encoding: 57535 57535 135
Width: 332
GlyphClass: 2
Flags: MW
HStem: 0 32<135.5 181.5 135.5 204.5> 236 31<140 177> 468 32<140 191>
VStem: 0 102<338.5 397.5 338.5 413.5> 13 92<53.5 130> 224 109<191 250 250 254 254 254 186 397>
LayerCount: 2
Fore
SplineSet
166 267 m 0xf4
 216 267 224 310 224 368 c 0
 224 426 216 468 166 468 c 0
 114 468 102 427 102 368 c 0
 102 309 114 267 166 267 c 0xf4
224 254 m 1
 208 243 188 236 166 236 c 0
 68 236 0 277 0 368 c 0xf4
 0 459 68 500 166 500 c 0
 277 500 333 375 333 250 c 0
 333 122 263 0 146 0 c 0
 76 0 13 46 13 112 c 0
 13 148 43 177 79 177 c 0
 115 177 144 148 144 112 c 0
 144 89 105 86 105 63 c 0xec
 105 44 125 32 146 32 c 0
 217 32 224 109 224 191 c 2
 224 250 l 1
 224 254 l 1
EndSplineSet
Substitution2: "'tnum' Tabellenziffern Nachschlagetabelle 1 Subtabelle" fattened.fixedwidth.nine
EndChar

StartChar: fattened.fixedwidth.zero
Encoding: 57536 57536 136
Width: 391
GlyphClass: 2
Flags: MW
HStem: 0 40<161.5 230.5 161.5 253.5> 460 40<161.5 230.5>
VStem: 16 109<198.5 239 239 250 250 261 198.5 313.5> 266 109<239 250 250 261 261 301.5>
LayerCount: 2
Fore
SplineSet
196 460 m 0
 127 460 125 342 125 261 c 2
 125 250 l 1
 125 239 l 2
 125 158 127 40 196 40 c 0
 265 40 266 158 266 239 c 2
 266 250 l 1
 266 261 l 2
 266 342 265 460 196 460 c 0
196 500 m 0
 311 500 375 377 375 250 c 0
 375 123 311 0 196 0 c 0
 81 0 16 123 16 250 c 0
 16 377 81 500 196 500 c 0
EndSplineSet
EndChar

StartChar: fattened.fixedwidth.one
Encoding: 57537 57537 137
Width: 391
GlyphClass: 2
Flags: MW
HStem: 0 32<88.5 113.5 88.5 114.5 320.5 345.5> 481 20G<249.5 258.5>
VStem: 52 38<234 242.5> 163 109<109 301 301 309>
LayerCount: 2
Fore
SplineSet
217 487 m 0
 233 487 245 501 254 501 c 0
 263 501 272 490 272 477 c 2
 272 109 l 2
 272 68 301 32 340 32 c 0
 351 32 356 24 356 16 c 0
 356 8 351 0 340 0 c 0
 299 0 258 13 217 13 c 0
 176 13 135 0 94 0 c 0
 83 0 78 8 78 16 c 0
 78 24 83 32 94 32 c 0
 133 32 163 68 163 109 c 2
 163 301 l 2
 163 317 151 326 141 326 c 0
 135 326 129 323 126 317 c 2
 90 234 l 2
 86 225 79 222 72 222 c 0
 62 222 52 230 52 241 c 0
 52 244 52 247 53 250 c 2
 163 500 l 2
 170 516 198 487 217 487 c 0
EndSplineSet
EndChar

StartChar: fattened.fixedwidth.two
Encoding: 57538 57538 138
Width: 391
GlyphClass: 2
Flags: MW
HStem: 0 73<281.5 289> 63 70<72.5 179> 468 32<166 202.5>
VStem: 31 101<344 442> 248 109<280 383>
LayerCount: 2
Fore
SplineSet
103 63 m 0x78
 42 63 57 0 32 0 c 0xb8
 24 0 16 6 16 16 c 0
 16 170 248 182 248 355 c 0
 248 411 227 468 178 468 c 0
 154 468 132 453 132 431 c 0
 132 404 167 390 167 363 c 0
 167 325 137 295 99 295 c 0
 61 295 31 325 31 363 c 0
 31 441 99 500 178 500 c 0
 271 500 357 442 357 355 c 0
 357 205 205 197 114 130 c 1
 122 131 130 133 138 133 c 0x78
 220 133 254 73 309 73 c 0
 351 73 337 109 359 109 c 0
 367 109 375 103 375 94 c 0
 375 70 333 0 245 0 c 0xb8
 157 0 154 63 103 63 c 0x78
EndSplineSet
EndChar

StartChar: fattened.fixedwidth.three
Encoding: 57539 57539 139
Width: 391
GlyphClass: 2
Flags: MW
HStem: 0 32<168 206.5 168 232> 244 40<114.5 196 121 196> 468 32<166 203.5>
VStem: 33 90<55 140> 49 79<372 446.5> 250 95<356 410.5> 250 109<113.5 169.5>
LayerCount: 2
Fore
SplineSet
284 264 m 0xec
 284 222 359 236 359 140 c 0
 359 49 281 0 183 0 c 0
 104 0 33 49 33 122 c 0
 33 158 62 187 98 187 c 0
 134 187 163 158 163 122 c 0
 163 97 123 93 123 68 c 0
 123 42 153 32 183 32 c 0
 230 32 250 87 250 140 c 0xf2
 250 199 247 244 196 244 c 2
 121 244 l 2
 108 244 101 254 101 264 c 0
 101 274 108 284 121 284 c 2
 196 284 l 2
 246 284 250 327 250 385 c 0
 250 436 228 468 179 468 c 0
 153 468 128 458 128 435 c 0
 128 413 163 410 163 388 c 0
 163 356 138 331 106 331 c 0
 74 331 49 356 49 388 c 0
 49 453 110 500 179 500 c 0
 269 500 345 465 345 385 c 0
 345 274 284 310 284 264 c 0xec
EndSplineSet
EndChar

StartChar: fattened.fixedwidth.four
Encoding: 57540 57540 140
Width: 391
GlyphClass: 2
Flags: MW
HStem: 0 32<126.5 151.5 126.5 152.5 358.5 383.5> 125 40<24 200 40 200 310 371> 481 20G<159 167.5 289 299.5>
VStem: 200 110<109 125 88.5 125 165 265 265 288.5> 265 45
LayerCount: 2
Fore
SplineSet
164 501 m 0xf0
 171 501 200 487 228 487 c 0
 257 487 284 501 294 501 c 0
 305 501 312 493 312 485 c 0
 312 482 312 479 310 477 c 2xe8
 40 165 l 1
 200 165 l 1
 200 265 l 2xf0
 200 312 241 297 265 337 c 0
 278 358 275 382 292 382 c 0
 300 382 310 375 310 363 c 2xe8
 310 165 l 1
 371 165 l 2
 384 165 391 155 391 145 c 0
 391 135 384 125 371 125 c 2
 310 125 l 1
 310 109 l 2
 310 68 339 32 378 32 c 0
 389 32 394 24 394 16 c 0
 394 8 389 0 378 0 c 0
 337 0 296 13 255 13 c 0
 214 13 173 0 132 0 c 0
 121 0 116 8 116 16 c 0
 116 24 121 32 132 32 c 0
 171 32 200 68 200 109 c 2
 200 125 l 1
 40 125 l 2
 8 125 -2 144 -2 156 c 0
 -2 175 146 303 146 477 c 0
 146 490 154 501 164 501 c 0xf0
EndSplineSet
Substitution2: "'cv47' Zeichenvarianten 47 Nachschlagetabelle 2 Subtabelle" fattened.fixedwidth.four.alt
EndChar

StartChar: fattened.fixedwidth.four.alt
Encoding: 57541 57541 141
Width: 391
GlyphClass: 2
Flags: MW
HStem: 0 32<126.5 151.5 126.5 152.5 358.5 383.5> 13 96<234.5 275.5> 125 40<24 200 40 200 310 371> 481 20G<159 167.5 289 299.5>
VStem: 200 110<88.5 109 109 125 88.5 125 165 168 168 191.5> 265 45
LayerCount: 2
Fore
SplineSet
200 109 m 1x78
 310 109 l 1x78
 310 68 339 32 378 32 c 0
 389 32 394 24 394 16 c 0
 394 8 389 0 378 0 c 0xb8
 337 0 296 13 255 13 c 0x78
 214 13 173 0 132 0 c 0
 121 0 116 8 116 16 c 0
 116 24 121 32 132 32 c 0xb8
 171 32 200 68 200 109 c 1x78
164 501 m 0
 171 501 200 487 228 487 c 0
 257 487 284 501 294 501 c 0
 305 501 312 493 312 485 c 0
 312 482 312 479 310 477 c 2x74
 40 165 l 1
 200 165 l 1
 200 168 l 2x78
 200 215 241 199 265 239 c 0
 278 260 275 284 292 284 c 0
 300 284 310 277 310 265 c 2x74
 310 165 l 1
 371 165 l 2
 384 165 391 155 391 145 c 0
 391 135 384 125 371 125 c 2
 310 125 l 1
 310 109 l 1
 200 109 l 1
 200 125 l 1
 40 125 l 2
 8 125 -2 144 -2 156 c 0
 -2 175 146 303 146 477 c 0
 146 490 154 501 164 501 c 0
EndSplineSet
EndChar

StartChar: fattened.fixedwidth.five
Encoding: 57542 57542 142
Width: 391
GlyphClass: 2
Flags: MW
HStem: 0 32<169 214.5 169 235.5> 290 40<172.5 217> 398 89<168 204.5> 480 20G<65.5 74 327 337>
VStem: 21 90<52.5 140> 52 39<291 375 291 477> 258 110<133 195.5>
LayerCount: 2
Fore
SplineSet
71 500 m 0xd6
 77 500 136 487 200 487 c 0xe6
 265 487 323 500 331 500 c 0xd6
 343 500 352 493 352 485 c 0
 352 482 295 398 114 398 c 0
 102 398 91 387 91 375 c 2
 91 291 l 1xe6
 117 317 154 330 191 330 c 0
 303 330 368 275 368 165 c 0
 368 71 284 0 187 0 c 0
 102 0 21 45 21 122 c 0
 21 158 51 187 87 187 c 0
 123 187 152 158 152 122 c 0
 152 97 111 93 111 68 c 0xea
 111 37 151 32 187 32 c 0
 242 32 258 101 258 165 c 0
 258 226 243 290 191 290 c 0
 101 290 93 238 72 238 c 0
 62 238 52 246 52 258 c 2
 52 477 l 2
 52 489 60 500 71 500 c 0xd6
EndSplineSet
EndChar

StartChar: fattened.fixedwidth.six
Encoding: 57543 57543 143
Width: 391
GlyphClass: 2
Flags: MW
HStem: 0 32<171 222 171 245> 233 31<185 222> 468 32<180.5 226.5>
VStem: 29 109<246 250 250 309> 257 92<370 446.5> 260 102<102.5 161.5>
LayerCount: 2
Fore
SplineSet
196 233 m 0xf4
 146 233 138 190 138 132 c 0
 138 74 146 32 196 32 c 0
 248 32 260 73 260 132 c 0
 260 191 248 233 196 233 c 0xf4
138 246 m 1
 154 257 174 264 196 264 c 0
 294 264 362 223 362 132 c 0xf4
 362 41 294 0 196 0 c 0
 85 0 29 125 29 250 c 0
 29 378 99 500 216 500 c 0
 286 500 349 454 349 388 c 0
 349 352 319 323 283 323 c 0
 247 323 218 352 218 388 c 0
 218 411 257 414 257 437 c 0xf8
 257 456 237 468 216 468 c 0
 145 468 138 391 138 309 c 2
 138 250 l 1
 138 246 l 1
EndSplineSet
EndChar

StartChar: fattened.fixedwidth.seven
Encoding: 57544 57544 144
Width: 391
GlyphClass: 2
Flags: MW
HStem: -1 21G<87 96.5 218 227> 365 87<206 317.5> 413 40
VStem: 35 40<270 344 461 466 466 480> 74 158<11.5 186>
LayerCount: 2
Fore
SplineSet
398 480 m 0xd0
 398 456 232 281 232 91 c 0
 232 49 239 24 239 18 c 0
 239 7 232 -1 222 -1 c 0
 214 -1 186 13 157 13 c 0
 128 13 101 -1 92 -1 c 0
 82 -1 74 7 74 16 c 0
 74 20 111 130 279 373 c 1
 265 368 250 365 236 365 c 0xc8
 176 365 168 413 124 413 c 0
 86 413 75 358 75 344 c 2
 75 270 l 2
 75 257 65 250 55 250 c 0
 45 250 35 257 35 270 c 2
 35 480 l 2
 35 493 45 500 55 500 c 0
 65 500 75 493 75 480 c 2
 75 466 l 2
 75 456 91 448 95 453 c 0xb0
 117 484 147 500 178 500 c 0
 238 500 243 452 291 452 c 0
 344 452 358 500 377 500 c 0
 388 500 398 491 398 480 c 0xd0
EndSplineSet
Substitution2: "'cv47' Zeichenvarianten 47 Nachschlagetabelle 2 Subtabelle" fattened.fixedwidth.seven.alt
EndChar

StartChar: fattened.fixedwidth.seven.alt
Encoding: 57545 57545 145
Width: 391
GlyphClass: 2
Flags: MW
HStem: -1 21G<87 96.5 218 227> 365 87<206 317.5> 413 40
VStem: 35 40<344 351 461 466 466 480> 74 158<11.5 186>
LayerCount: 2
Fore
SplineSet
398 480 m 0xd0
 398 456 232 281 232 91 c 0
 232 49 239 24 239 18 c 0
 239 7 232 -1 222 -1 c 0
 214 -1 186 13 157 13 c 0
 128 13 101 -1 92 -1 c 0
 82 -1 74 7 74 16 c 0
 74 20 111 130 279 373 c 1
 265 368 250 365 236 365 c 0xc8
 176 365 168 413 124 413 c 0
 86 413 75 358 75 344 c 0
 75 331 65 324 55 324 c 0
 45 324 35 331 35 344 c 2
 35 480 l 2
 35 493 45 500 55 500 c 0
 65 500 75 493 75 480 c 2
 75 466 l 2
 75 456 91 448 95 453 c 0xb0
 117 484 147 500 178 500 c 0
 238 500 243 452 291 452 c 0
 344 452 358 500 377 500 c 0
 388 500 398 491 398 480 c 0xd0
EndSplineSet
EndChar

StartChar: fattened.fixedwidth.eight
Encoding: 57546 57546 146
Width: 391
GlyphClass: 2
Flags: MW
HStem: 0 32<163.5 222.5 163.5 256> 468 32<180.5 227.5>
VStem: 16 60<113 164.5 113 169.5> 32 99<389 401.5> 280 100<106 123.5> 297 60<375.5 417.5>
LayerCount: 2
Fore
SplineSet
253 294 m 1xd4
 278 324 297 356 297 395 c 0
 297 440 252 468 203 468 c 0
 158 468 131 433 131 399 c 0
 131 379 140 359 161 347 c 2
 253 294 l 1xd4
295 269 m 1
 343 241 380 201 380 142 c 0
 380 70 316 0 196 0 c 0
 103 0 16 58 16 145 c 0xe8
 16 194 50 231 85 266 c 1
 49 294 32 332 32 368 c 0
 32 435 92 500 203 500 c 0
 281 500 357 464 357 395 c 0
 357 346 329 305 295 269 c 1
126 241 m 1
 98 214 76 184 76 145 c 0
 76 81 131 32 196 32 c 0
 249 32 280 73 280 112 c 0
 280 135 269 159 246 172 c 2
 126 241 l 1
EndSplineSet
EndChar

StartChar: fattened.fixedwidth.nine
Encoding: 57547 57547 147
Width: 391
GlyphClass: 2
Flags: MW
HStem: 0 32<165.5 211.5 165.5 234.5> 236 31<170 207> 468 32<170 221>
VStem: 29 103<338.5 397.5 338.5 413.5> 43 91<53.5 130> 253 109<191 250 250 254 254 254 186 397>
LayerCount: 2
Fore
SplineSet
196 267 m 0xf4
 246 267 253 310 253 368 c 0
 253 426 246 468 196 468 c 0
 144 468 132 427 132 368 c 0
 132 309 144 267 196 267 c 0xf4
253 254 m 1
 237 243 218 236 196 236 c 0
 98 236 29 277 29 368 c 0xf4
 29 459 98 500 196 500 c 0
 307 500 362 375 362 250 c 0
 362 122 293 0 176 0 c 0
 106 0 43 46 43 112 c 0
 43 148 72 177 108 177 c 0
 144 177 173 148 173 112 c 0
 173 89 134 86 134 63 c 0xec
 134 44 155 32 176 32 c 0
 247 32 253 109 253 191 c 2
 253 250 l 1
 253 254 l 1
EndSplineSet
EndChar

StartChar: figbass.twoplus
Encoding: 57548 57548 148
Width: 551
GlyphClass: 3
Flags: MW
HStem: 0 21G<28 44.5 201 269.5> 30 40<332.5 425 357 425 464 532 357 464> 63 70<72.5 185.5> 468 32<166 202.5>
VStem: 31 101<344 442> 248 109<280 383> 425 39<-38 30 70 137>
LayerCount: 2
Fore
SplineSet
103 63 m 0xbe
 42 63 57 0 32 0 c 0
 24 0 16 6 16 16 c 0
 16 170 248 182 248 355 c 0
 248 411 227 468 178 468 c 0
 154 468 132 453 132 431 c 0
 132 404 167 390 167 363 c 0
 167 325 137 295 99 295 c 0
 61 295 31 325 31 363 c 0
 31 441 99 500 178 500 c 0
 271 500 357 442 357 355 c 0
 357 205 205 197 114 130 c 1
 122 131 130 133 138 133 c 0xbe
 233 133 229 70 357 70 c 2
 425 70 l 1
 425 137 l 2
 425 148 434 157 445 157 c 0
 456 157 464 148 464 137 c 2
 464 70 l 1
 532 70 l 2
 545 70 552 60 552 50 c 0
 552 40 545 30 532 30 c 2
 464 30 l 1
 464 -38 l 2
 464 -49 456 -58 445 -58 c 0
 434 -58 425 -49 425 -38 c 2
 425 30 l 1
 357 30 l 2xde
 308 30 294 0 245 0 c 0
 157 0 154 63 103 63 c 0xbe
EndSplineSet
Ligature2: "'dlig' Beliegige Ligaturen Nachschlagetabelle 0 Subtabelle" two plus
EndChar

StartChar: figbass.fourplus
Encoding: 57549 57549 149
Width: 566
GlyphClass: 3
Flags: MW
HStem: 0 32<126.5 151.5 126.5 152.5 358.5 383.5> 13 96<234.5 275.5> 125 40<24 200 40 200 310 439 479 546> 481 20G<159 167.5 289 299.5>
VStem: 200 110<88.5 109 109 125 88.5 125 165 168 168 191.5> 265 45 439 40<57 125 165 232>
LayerCount: 2
Fore
SplineSet
200 109 m 1x7a
 310 109 l 1x7a
 310 68 339 32 378 32 c 0
 389 32 394 24 394 16 c 0
 394 8 389 0 378 0 c 0xba
 337 0 296 13 255 13 c 0x7a
 214 13 173 0 132 0 c 0
 121 0 116 8 116 16 c 0
 116 24 121 32 132 32 c 0xba
 171 32 200 68 200 109 c 1x7a
164 501 m 0
 171 501 200 487 228 487 c 0
 257 487 284 501 294 501 c 0
 305 501 312 493 312 485 c 0
 312 482 312 479 310 477 c 2x76
 40 165 l 1
 200 165 l 1
 200 168 l 2x7a
 200 215 241 199 265 239 c 0
 278 260 275 284 292 284 c 0
 300 284 310 277 310 265 c 2x76
 310 165 l 1
 439 165 l 1
 439 232 l 2
 439 243 448 252 459 252 c 0
 470 252 479 243 479 232 c 2
 479 165 l 1
 546 165 l 2
 559 165 566 155 566 145 c 0
 566 135 559 125 546 125 c 2
 479 125 l 1
 479 57 l 2
 479 46 470 38 459 38 c 0
 448 38 439 46 439 57 c 2
 439 125 l 1
 310 125 l 1
 310 109 l 1
 200 109 l 1
 200 125 l 1
 40 125 l 2
 8 125 -2 144 -2 156 c 0
 -2 175 146 303 146 477 c 0
 146 490 154 501 164 501 c 0
EndSplineSet
Ligature2: "'dlig' Beliegige Ligaturen Nachschlagetabelle 0 Subtabelle" four.alt plus
Ligature2: "'dlig' Beliegige Ligaturen Nachschlagetabelle 0 Subtabelle" four plus
EndChar

StartChar: figbass.fiveplus
Encoding: 57550 57550 150
Width: 543
GlyphClass: 3
Flags: MW
HStem: 0 32<169 214.5 169 235.5> 290 40<172.5 217> 460 40<349 416 456 524>
VStem: 21 90<52.5 140> 52 39<291 375 291 477> 258 110<133 195.5> 416 40<393 460 500 568>
LayerCount: 2
Fore
SplineSet
71 500 m 0xee
 77 500 136 487 200 487 c 0
 280 487 289 500 349 500 c 2
 416 500 l 1
 416 568 l 2
 416 579 425 588 436 588 c 0
 447 588 456 579 456 568 c 2
 456 500 l 1
 524 500 l 2
 537 500 544 490 544 480 c 0
 544 470 537 460 524 460 c 2
 456 460 l 1
 456 393 l 2
 456 382 447 373 436 373 c 0
 425 373 416 382 416 393 c 2
 416 460 l 1
 349 460 l 2
 294 460 217 398 114 398 c 0
 102 398 91 387 91 375 c 2
 91 291 l 1xee
 117 317 154 330 191 330 c 0
 303 330 368 275 368 165 c 0
 368 71 284 0 187 0 c 0
 102 0 21 45 21 122 c 0
 21 158 51 187 87 187 c 0
 123 187 152 158 152 122 c 0
 152 97 111 93 111 68 c 0xf6
 111 37 151 32 187 32 c 0
 242 32 258 101 258 165 c 0
 258 226 243 290 191 290 c 0
 101 290 93 238 72 238 c 0
 62 238 52 246 52 258 c 2
 52 477 l 2
 52 489 60 500 71 500 c 0xee
EndSplineSet
Ligature2: "'dlig' Beliegige Ligaturen Nachschlagetabelle 0 Subtabelle" five plus
EndChar

StartChar: figbass.sixstroked
Encoding: 57551 57551 151
Width: 411
GlyphClass: 3
Flags: MW
HStem: 0 32<171 222 171 245> 233 31<185 222> 505 40
VStem: 29 109<103 246 246 250 103 308.5> 260 102<102.5 161.5>
LayerCount: 2
Fore
SplineSet
196 233 m 0
 146 233 138 190 138 132 c 0
 138 74 146 32 196 32 c 0
 248 32 260 73 260 132 c 0
 260 191 248 233 196 233 c 0
265 512 m 1
 329 535 389 545 392 545 c 0
 404 545 411 535 411 525 c 0
 411 516 406 507 395 505 c 0
 361 499 328 491 297 480 c 1
 386 389 l 2
 390 385 392 380 392 375 c 0
 392 364 383 355 372 355 c 0
 367 355 362 357 358 361 c 2
 258 463 l 1
 187 426 138 364 138 250 c 2
 138 246 l 1
 154 257 174 264 196 264 c 0
 294 264 362 223 362 132 c 0
 362 41 294 0 196 0 c 0
 85 0 29 125 29 250 c 0
 29 367 114 447 225 496 c 1
 162 561 l 2
 158 565 156 570 156 575 c 0
 156 586 165 595 176 595 c 0
 181 595 186 593 190 589 c 2
 265 512 l 1
EndSplineSet
Ligature2: "'dlig' Beliegige Ligaturen Nachschlagetabelle 0 Subtabelle" six backslash
EndChar

StartChar: figbass.sevenstroked
Encoding: 57552 57552 152
Width: 391
GlyphClass: 3
Flags: MW
HStem: -1 21G<95 104.5 226 235> 362 87<214.5 308.5> 416 37
VStem: 0 40<344 351 461 466 466 480> 82 157<11.5 194>
LayerCount: 2
Fore
SplineSet
393 480 m 0xd8
 393 459 239 291 239 97 c 0
 239 51 247 24 247 18 c 0
 247 7 240 -1 230 -1 c 0
 222 -1 194 13 165 13 c 0
 136 13 109 -1 100 -1 c 0
 90 -1 82 7 82 16 c 0
 82 20 133 156 276 374 c 1
 258 367 240 362 222 362 c 0xd8
 207 362 192 365 178 372 c 1
 168 298 l 2
 166 286 158 281 149 281 c 0
 138 281 127 289 129 303 c 2
 142 399 l 1
 128 410 111 416 96 416 c 0
 51 416 40 358 40 344 c 0
 40 331 30 324 20 324 c 0
 10 324 0 331 0 344 c 2
 0 480 l 2
 0 493 10 500 20 500 c 0
 30 500 40 493 40 480 c 2
 40 466 l 2
 40 456 56 448 60 453 c 0xb8
 82 484 116 500 151 500 c 2
 155 500 l 1
 162 552 l 2
 164 564 172 569 181 569 c 0
 192 569 203 561 201 547 c 2
 194 492 l 1
 230 477 236 449 279 449 c 0
 338 449 353 500 372 500 c 0
 383 500 393 491 393 480 c 0xd8
EndSplineSet
Ligature2: "'dlig' Beliegige Ligaturen Nachschlagetabelle 0 Subtabelle" seven.alt backslash
Ligature2: "'dlig' Beliegige Ligaturen Nachschlagetabelle 0 Subtabelle" seven backslash
EndChar

StartChar: figbass.ninestroked
Encoding: 57553 57553 153
Width: 391
GlyphClass: 3
Flags: MW
HStem: -45 40 236 31<170 207> 468 32<170 221>
VStem: 29 103<338.5 397.5 338.5 413.5> 253 109<250 254 254 254 191.5 397>
LayerCount: 2
Fore
SplineSet
196 267 m 0
 246 267 253 310 253 368 c 0
 253 426 246 468 196 468 c 0
 144 468 132 427 132 368 c 0
 132 309 144 267 196 267 c 0
126 -12 m 1
 62 -35 2 -45 -1 -45 c 0
 -13 -45 -20 -35 -20 -25 c 0
 -20 -16 -14 -7 -3 -5 c 0
 31 1 64 9 95 20 c 1
 5 111 l 2
 1 115 -1 120 -1 125 c 0
 -1 136 9 145 20 145 c 0
 25 145 30 143 34 139 c 2
 134 37 l 1
 205 74 253 136 253 250 c 2
 253 254 l 1
 237 243 218 236 196 236 c 0
 98 236 29 277 29 368 c 0
 29 459 98 500 196 500 c 0
 307 500 362 375 362 250 c 0
 362 133 277 53 166 4 c 1
 229 -61 l 2
 233 -65 235 -70 235 -75 c 0
 235 -86 226 -95 215 -95 c 0
 210 -95 205 -93 201 -89 c 2
 126 -12 l 1
EndSplineSet
Ligature2: "'dlig' Beliegige Ligaturen Nachschlagetabelle 0 Subtabelle" nine backslash
EndChar

StartChar: flags.u3
Encoding: 57554 57554 154
Width: 206
GlyphClass: 2
Flags: MW
HStem: -20 20G<-14 0 0 0 0 0>
VStem: -14 14<-250 0 -250 0> 168 39<-567.5 -482>
LayerCount: 2
Fore
SplineSet
0 0 m 1
 0 -250 l 1
 -14 -250 l 1
 -14 0 l 1
 0 0 l 1
0 0 m 1
 0 -198 207 -336 207 -534 c 0
 207 -605 191 -676 165 -742 c 0
 161 -749 155 -753 148 -753 c 0
 136 -753 124 -743 127 -728 c 0
 153 -666 168 -601 168 -534 c 0
 168 -430 72 -325 0 -250 c 1
 0 0 l 1
EndSplineSet
EndChar

StartChar: flags.u4
Encoding: 57555 57555 155
Width: 206
GlyphClass: 2
Flags: MW
HStem: -20 20G<-14 0 0 0 0 0>
VStem: -14 14<-500 0 -500 0> 168 39<-713.5 -663 -715.5 -635>
LayerCount: 2
Fore
SplineSet
0 0 m 1
 0 -500 l 1
 -14 -500 l 1
 -14 0 l 1
 0 0 l 1
0 0 m 1
 0 -178 201 -293 201 -471 c 0
 201 -504 192 -536 178 -566 c 1
 196 -603 207 -642 207 -684 c 0
 207 -747 191 -809 165 -867 c 0
 161 -874 155 -878 148 -878 c 0
 136 -878 124 -868 127 -853 c 0
 153 -800 168 -743 168 -684 c 0
 168 -586 72 -492 0 -425 c 1
 0 -213 l 1
 0 -332 92 -422 153 -522 c 1
 159 -506 162 -488 162 -471 c 0
 162 -374 70 -281 0 -213 c 1
 0 0 l 1
EndSplineSet
EndChar

StartChar: flags.u5
Encoding: 57556 57556 156
Width: 206
GlyphClass: 2
Flags: MW
HStem: -20 20G<-14 0 0 0>
VStem: -14 14<-750 -213 -87.5 0> 152 39<-474.5 -421> 168 39<-909 -860.5 -917 -835>
LayerCount: 2
Fore
SplineSet
207 -881 m 0xd0
 207 -953 177 -1065 148 -1065 c 0
 136 -1065 124 -1056 127 -1041 c 1
 153 -992 168 -937 168 -881 c 0xd0
 168 -789 72 -705 0 -647 c 1
 0 -435 l 1
 0 -549 91 -632 152 -725 c 1
 159 -705 162 -685 162 -664 c 0
 162 -573 70 -489 0 -430 c 1
 0 -218 l 1
 0 -330 87 -414 146 -507 c 1
 149 -495 152 -481 152 -468 c 0
 152 -374 65 -281 0 -213 c 1
 0 -750 l 1
 -14 -750 l 1
 -14 0 l 1
 0 0 l 1
 0 -175 191 -293 191 -468 c 0xe0
 191 -497 183 -526 172 -552 c 1
 189 -587 201 -624 201 -664 c 0
 201 -700 192 -736 177 -769 c 1
 195 -804 207 -840 207 -881 c 0xd0
EndSplineSet
EndChar

StartChar: flags.u6
Encoding: 57557 57557 157
Width: 206
GlyphClass: 2
Flags: MW
HStem: -20 20G<-14 0 0 0 0 0>
VStem: -14 14<-1000 -662 -507.5 -450 -450 -437 -281.5 -225 -225 0> 152 39<-483 -428> 162 39<-913 -882.5 -919.5 -857 -690 -657.5>
LayerCount: 2
Fore
SplineSet
207 -1128 m 0xd0
 207 -1200 177 -1315 148 -1315 c 0
 136 -1315 124 -1306 127 -1291 c 1
 153 -1241 168 -1185 168 -1128 c 0
 168 -1034 72 -948 0 -887 c 1
 0 -675 l 1
 0 -786 84 -868 145 -959 c 1
 156 -942 162 -923 162 -903 c 0xd0
 162 -811 70 -723 0 -662 c 1
 0 -1000 l 1
 -14 -1000 l 1
 -14 0 l 1
 0 0 l 1
 0 -225 l 2
 0 -338 87 -424 146 -518 c 1
 150 -504 152 -490 152 -476 c 0
 152 -380 65 -283 0 -213 c 1
 0 0 l 1
 0 -177 191 -299 191 -476 c 0xe0
 191 -507 184 -537 172 -565 c 1
 189 -600 201 -637 201 -678 c 0
 201 -717 190 -755 172 -790 c 1
 189 -825 201 -862 201 -903 c 0
 201 -936 187 -968 166 -994 c 1
 190 -1035 207 -1079 207 -1128 c 0xd0
0 -437 m 1
 0 -450 l 2
 0 -565 89 -651 148 -747 c 1
 157 -725 162 -702 162 -678 c 0
 162 -586 70 -498 0 -437 c 1
EndSplineSet
EndChar

StartChar: flags.u7
Encoding: 57558 57558 158
Width: 206
GlyphClass: 2
Flags: MW
HStem: -20 20G<-14 0 0 0>
VStem: -14 14<-1250 -1142 -985 -930 -930 -910 -754 -697 -697 -677 -522 -465 -465 -445 -288 -232 -232 -213 -88 0> 152 39<-480.5 -424.5> 162 39<-1158.5 -1126.5 -1165 -1101.5 -928 -894.5 -695 -661.5>
LayerCount: 2
Fore
SplineSet
0 -213 m 1xe0
 0 -232 l 2
 0 -344 86 -429 145 -522 c 1
 149 -506 152 -489 152 -472 c 0
 152 -377 65 -282 0 -213 c 1xe0
207 -1380 m 0
 207 -1452 177 -1565 148 -1565 c 0
 136 -1565 124 -1556 127 -1541 c 1
 153 -1491 168 -1436 168 -1380 c 0
 168 -1287 72 -1201 0 -1142 c 1
 0 -1250 l 1
 -14 -1250 l 1
 -14 0 l 1
 0 0 l 1
 0 -176 191 -296 191 -472 c 0xe0
 191 -505 184 -538 172 -569 c 1
 189 -604 201 -641 201 -682 c 0
 201 -724 190 -764 172 -802 c 1
 189 -837 201 -874 201 -915 c 0
 201 -957 190 -997 172 -1035 c 1
 189 -1070 201 -1106 201 -1147 c 0xd0
 201 -1183 187 -1217 166 -1246 c 1
 190 -1287 207 -1331 207 -1380 c 0
0 -445 m 1
 0 -465 l 2
 0 -579 89 -664 148 -758 c 1
 157 -734 162 -708 162 -682 c 0xd0
 162 -591 70 -505 0 -445 c 1
0 -677 m 1
 0 -697 l 2
 0 -811 89 -897 148 -991 c 1
 157 -967 162 -941 162 -915 c 0
 162 -824 70 -737 0 -677 c 1
0 -910 m 1
 0 -930 l 2
 0 -1040 83 -1122 144 -1211 c 1
 155 -1192 162 -1170 162 -1147 c 0
 162 -1056 70 -970 0 -910 c 1
EndSplineSet
EndChar

StartChar: flags.u8
Encoding: 57559 57559 159
Width: 206
GlyphClass: 2
Flags: MW
HStem: -20 20G<-14 0 0 0>
VStem: -14 14<-1500 -213 -90 0> 152 39<-493 -436> 162 39<-1402.5 -1371.5 -1409.5 -1345 -1172.5 -1139.5 -939.5 -906.5 -707.5 -674>
LayerCount: 2
Fore
SplineSet
0 -445 m 1xd0
 0 -232 l 1
 0 -347 87 -435 146 -531 c 1
 150 -516 152 -501 152 -485 c 0
 152 -387 65 -286 0 -213 c 1
 0 -1500 l 1
 -14 -1500 l 1
 -14 0 l 1
 0 0 l 1
 0 -180 191 -305 191 -485 c 0xe0
 191 -517 184 -549 172 -579 c 1
 189 -615 201 -653 201 -695 c 0
 201 -736 190 -775 172 -812 c 1
 189 -848 201 -886 201 -927 c 0
 201 -968 190 -1008 172 -1045 c 1
 189 -1081 201 -1119 201 -1160 c 0
 201 -1201 190 -1240 172 -1277 c 1
 189 -1313 201 -1351 201 -1392 c 0
 201 -1427 187 -1460 166 -1488 c 1
 190 -1530 207 -1575 207 -1625 c 0
 207 -1687 191 -1748 165 -1805 c 0
 161 -1812 155 -1815 148 -1815 c 0
 136 -1815 124 -1806 127 -1791 c 1
 153 -1739 168 -1683 168 -1625 c 0
 168 -1529 72 -1439 0 -1375 c 1
 0 -1162 l 1
 0 -1274 84 -1360 145 -1452 c 1
 156 -1434 162 -1413 162 -1392 c 0
 162 -1298 70 -1206 0 -1142 c 1
 0 -930 l 1
 0 -1046 89 -1135 148 -1233 c 1
 157 -1210 162 -1185 162 -1160 c 0
 162 -1066 70 -974 0 -910 c 1
 0 -697 l 1
 0 -813 89 -902 148 -1000 c 1
 157 -977 162 -952 162 -927 c 0
 162 -833 70 -742 0 -678 c 1
 0 -465 l 1
 0 -581 89 -670 148 -768 c 1
 157 -745 162 -720 162 -695 c 0
 162 -601 70 -509 0 -445 c 1xd0
EndSplineSet
EndChar

StartChar: flags.u9
Encoding: 57560 57560 160
Width: 206
GlyphClass: 2
Flags: MW
HStem: -20 20G<-14 0 0 0>
VStem: -14 14<-1750 -212 -92 0> 152 39<-506 -448> 162 39<-1647 -1616 -1654 -1588 -1417 -1384 -1184 -1151 -952 -919 -719 -686>
LayerCount: 2
Fore
SplineSet
0 -445 m 1xd0
 0 -232 l 1
 0 -350 87 -442 146 -541 c 1
 149 -527 152 -513 152 -499 c 0
 152 -397 65 -290 0 -212 c 1
 0 -1750 l 1
 -14 -1750 l 1
 -14 0 l 1
 0 0 l 1
 0 -184 191 -315 191 -499 c 0xe0
 191 -530 184 -560 172 -589 c 1
 189 -626 201 -665 201 -707 c 0
 201 -747 190 -786 172 -822 c 1
 189 -859 201 -898 201 -940 c 0
 201 -980 190 -1019 172 -1055 c 1
 189 -1092 201 -1130 201 -1172 c 0
 201 -1212 190 -1251 172 -1287 c 1
 189 -1324 201 -1363 201 -1405 c 0
 201 -1445 190 -1484 172 -1520 c 1
 189 -1557 201 -1595 201 -1637 c 0
 201 -1671 187 -1704 166 -1730 c 1
 190 -1773 207 -1819 207 -1870 c 0
 207 -1934 191 -1997 165 -2055 c 0
 161 -2062 155 -2065 148 -2065 c 0
 136 -2065 124 -2056 127 -2041 c 0
 153 -1988 168 -1929 168 -1870 c 0
 168 -1771 72 -1675 0 -1607 c 1
 0 -1395 l 1
 0 -1510 84 -1598 145 -1694 c 1
 155 -1677 162 -1657 162 -1637 c 0
 162 -1539 70 -1444 0 -1375 c 1
 0 -1162 l 1
 0 -1281 90 -1374 149 -1475 c 1
 157 -1453 162 -1429 162 -1405 c 0
 162 -1307 70 -1211 0 -1142 c 1
 0 -930 l 1
 0 -1049 90 -1141 149 -1242 c 1
 157 -1220 162 -1196 162 -1172 c 0
 162 -1074 70 -979 0 -910 c 1
 0 -697 l 1
 0 -816 90 -909 149 -1010 c 1
 157 -988 162 -964 162 -940 c 0
 162 -842 70 -746 0 -677 c 1
 0 -465 l 1
 0 -584 90 -676 149 -777 c 1
 157 -755 162 -731 162 -707 c 0
 162 -609 70 -514 0 -445 c 1xd0
EndSplineSet
EndChar

StartChar: flags.u10
Encoding: 57561 57561 161
Width: 206
GlyphClass: 2
Flags: MW
HStem: -20 20G<-14 0 0 0>
VStem: -14 14<-2000 -213 -94 0> 152 39<-518.5 -459.5> 162 39<-1891.5 -1860.5 -1898.5 -1831.5 -1661.5 -1628.5 -1428.5 -1395.5 -1196.5 -1163.5 -963.5 -930.5 -731.5 -698.5>
LayerCount: 2
Fore
SplineSet
0 -445 m 1xd0
 0 -232 l 1
 0 -353 88 -447 147 -550 c 1
 150 -538 152 -525 152 -512 c 0
 152 -407 65 -295 0 -213 c 1
 0 -2000 l 1
 -14 -2000 l 1
 -14 0 l 1
 0 0 l 1
 0 -188 191 -324 191 -512 c 0xe0
 191 -542 183 -571 172 -599 c 1
 189 -637 201 -677 201 -720 c 0
 201 -759 190 -797 172 -832 c 1
 189 -870 201 -909 201 -952 c 0
 201 -991 190 -1030 172 -1065 c 1
 189 -1103 201 -1142 201 -1185 c 0
 201 -1224 190 -1262 172 -1297 c 1
 189 -1335 201 -1374 201 -1417 c 0
 201 -1456 190 -1495 172 -1530 c 1
 189 -1568 201 -1607 201 -1650 c 0
 201 -1689 190 -1727 172 -1762 c 1
 189 -1800 201 -1839 201 -1882 c 0
 201 -1915 188 -1946 167 -1971 c 1
 191 -2016 207 -2063 207 -2115 c 0
 207 -2167 196 -2232 165 -2305 c 0
 161 -2312 155 -2315 148 -2315 c 0
 136 -2315 124 -2306 127 -2291 c 0
 153 -2236 168 -2176 168 -2115 c 0
 168 -2013 72 -1912 0 -1840 c 1
 0 -1627 l 1
 0 -1745 85 -1837 146 -1936 c 1
 156 -1920 162 -1901 162 -1882 c 0
 162 -1781 70 -1680 0 -1607 c 1
 0 -1395 l 1
 0 -1517 90 -1613 149 -1717 c 1
 157 -1696 162 -1673 162 -1650 c 0
 162 -1549 70 -1448 0 -1375 c 1
 0 -1162 l 1
 0 -1284 90 -1380 149 -1484 c 1
 157 -1463 162 -1440 162 -1417 c 0
 162 -1316 70 -1215 0 -1142 c 1
 0 -930 l 1
 0 -1052 90 -1148 149 -1252 c 1
 157 -1231 162 -1208 162 -1185 c 0
 162 -1084 70 -983 0 -910 c 1
 0 -697 l 1
 0 -819 90 -915 149 -1019 c 1
 157 -998 162 -975 162 -952 c 0
 162 -851 70 -751 0 -678 c 1
 0 -465 l 1
 0 -587 90 -683 149 -787 c 1
 157 -766 162 -743 162 -720 c 0
 162 -619 70 -518 0 -445 c 1xd0
EndSplineSet
EndChar

StartChar: flags.d3
Encoding: 57562 57562 162
Width: 266
GlyphClass: 2
Flags: MW
HStem: 0 21G<-14 0 -14 -14 0 0>
VStem: -14 14<0 250> 228 39<453 537.5>
LayerCount: 2
Fore
SplineSet
0 0 m 1
 -14 0 l 1
 -14 250 l 1
 0 250 l 1
 0 0 l 1
0 0 m 1
 0 250 l 1
 98 308 228 397 228 509 c 0
 228 566 213 621 188 673 c 0
 185 688 197 698 209 698 c 0
 216 698 223 695 227 688 c 0
 252 632 267 571 267 509 c 0
 267 306 0 203 0 0 c 1
EndSplineSet
EndChar

StartChar: flags.d4
Encoding: 57563 57563 163
Width: 266
GlyphClass: 2
Flags: MW
HStem: 0 21G<-14 0 -14 -14>
VStem: -14 14<0 90.5 205 225 430 500> 214 39<388.5 452.5> 228 39<643 665.5 643 676>
LayerCount: 2
Fore
SplineSet
0 205 m 1xe0
 92 257 214 337 214 440 c 0
 214 465 209 490 200 513 c 1
 121 422 0 350 0 225 c 2
 0 205 l 1xe0
267 665 m 0xd0
 267 621 251 583 228 549 c 1xd0
 244 515 253 478 253 440 c 0xe0
 253 259 0 181 0 0 c 1
 -14 0 l 1
 -14 500 l 1
 0 500 l 1
 0 430 l 1
 98 479 228 559 228 665 c 0
 228 687 223 708 215 728 c 0
 212 743 224 753 236 753 c 0
 267 753 267 666 267 665 c 0xd0
EndSplineSet
EndChar

StartChar: flags.d5
Encoding: 57564 57564 164
Width: 266
GlyphClass: 2
Flags: MW
HStem: 0 21G<-14 0 -14 -14>
VStem: -14 14<0 89.5 205 220 425 750> 209 39<383.5 445.5> 222 39<627 660>
LayerCount: 2
Fore
SplineSet
267 866 m 0xd0
 267 828 254 796 236 766 c 1
 251 728 261 687 261 646 c 0xd0
 261 608 249 575 231 545 c 1
 242 509 248 472 248 434 c 0xe0
 248 255 0 179 0 0 c 1
 -14 0 l 1
 -14 750 l 1
 0 750 l 1
 0 425 l 1
 96 470 222 544 222 646 c 0
 222 674 217 701 208 727 c 1
 130 635 0 566 0 440 c 1
 0 645 l 1
 98 689 228 762 228 866 c 0
 228 895 218 913 218 920 c 0
 218 932 229 940 240 940 c 0
 264 940 267 893 267 866 c 0xd0
0 205 m 1
 90 255 209 333 209 434 c 0xe0
 209 457 206 481 201 504 c 1
 124 414 0 344 0 220 c 2
 0 205 l 1
EndSplineSet
EndChar

StartChar: flags.d6
Encoding: 57565 57565 165
Width: 266
GlyphClass: 2
Flags: MW
HStem: 0 21G<-14 -14 -14 0>
VStem: -14 14<0 4 204 225 425 1000> 202 39<406 468> 217 39<642.5 672> 228 39<1027 1054.5 1027 1059.5>
LayerCount: 2
Fore
SplineSet
-14 0 m 1xe0
 -14 1000 l 1
 0 1000 l 1
 0 425 l 1
 94 477 217 557 217 661 c 0xd0
 217 683 214 705 209 727 c 1
 133 638 0 574 0 450 c 1
 0 650 l 1
 96 688 222 755 222 854 c 0
 222 878 219 901 213 924 c 1
 135 844 0 794 0 675 c 1
 0 875 l 1
 99 898 228 949 228 1042 c 0
 228 1077 221 1101 221 1107 c 0
 221 1119 231 1128 242 1128 c 0
 249 1128 256 1124 260 1117 c 0
 264 1092 267 1067 267 1042 c 0xc8
 267 1012 258 986 244 963 c 1
 255 928 261 891 261 854 c 0
 261 823 253 795 239 770 c 1
 250 735 256 698 256 661 c 0xd0
 256 624 246 593 229 563 c 1
 236 529 241 493 241 458 c 0
 241 276 0 186 0 4 c 2
 0 0 l 1
 -14 0 l 1xe0
0 204 m 1
 87 264 202 354 202 458 c 0xe0
 202 478 200 497 197 516 c 1
 121 423 0 350 0 225 c 2
 0 204 l 1
EndSplineSet
EndChar

StartChar: flags.d7
Encoding: 57566 57566 166
Width: 266
GlyphClass: 2
Flags: MW
HStem: 0 21G<-14 0 -14 -14>
VStem: -14 14<0 9 209 235 435 1250> 192 39<451 515> 209 39<693 722.5> 217 39<893.5 922.5> 222 39<1092.5 1120>
LayerCount: 2
Fore
SplineSet
267 1300 m 0xc4
 267 1270 259 1244 245 1221 c 1
 255 1184 261 1146 261 1108 c 0xc4
 261 1077 253 1049 240 1024 c 1
 250 987 256 949 256 911 c 0xc8
 256 876 247 845 232 816 c 1
 242 783 248 748 248 713 c 0xd0
 248 673 237 637 220 603 c 1
 227 571 231 539 231 507 c 0xe0
 231 315 0 201 0 9 c 2
 0 0 l 1
 -14 0 l 1
 -14 1250 l 1
 0 1250 l 1
 0 435 l 1
 90 503 209 601 209 713 c 0xd0
 209 732 207 751 203 770 c 1
 128 670 0 591 0 460 c 1
 0 660 l 1
 94 717 217 804 217 911 c 0xc8
 217 934 215 957 210 979 c 1
 134 885 0 817 0 690 c 1
 0 890 l 1
 96 934 222 1006 222 1108 c 0
 222 1132 219 1156 214 1180 c 1
 136 1096 0 1042 0 920 c 1
 0 1120 l 1
 99 1148 228 1204 228 1300 c 0
 228 1331 222 1352 222 1357 c 0
 222 1369 233 1378 244 1378 c 0
 255 1378 267 1378 267 1300 c 0xc4
0 209 m 1
 83 286 192 395 192 507 c 0xe0
 192 523 191 538 189 553 c 1
 116 451 0 365 0 235 c 2
 0 209 l 1
EndSplineSet
EndChar

StartChar: flags.d8
Encoding: 57567 57567 167
Width: 266
GlyphClass: 2
Flags: MW
HStem: 0 21G<-14 0 -14 -14>
VStem: -14 14<0 9 209 240 440 1500> 192 39<450.5 518> 209 39<719 748.5> 217 39<931 961 1139.5 1169> 222 39<1342.5 1371>
LayerCount: 2
Fore
SplineSet
267 1555 m 0xc4
 267 1525 259 1499 245 1476 c 1
 255 1438 261 1398 261 1358 c 0xc4
 261 1327 253 1299 240 1274 c 1
 250 1236 256 1197 256 1157 c 0
 256 1122 247 1091 232 1062 c 1
 247 1026 256 988 256 949 c 0xc8
 256 913 247 880 232 849 c 1
 242 813 248 776 248 738 c 0xd0
 248 700 239 665 224 632 c 1
 229 591 231 549 231 507 c 0xe0
 231 315 0 201 0 9 c 2
 0 0 l 1
 -14 0 l 1
 -14 1500 l 1
 0 1500 l 1
 0 440 l 1
 90 515 209 622 209 738 c 0xd0
 209 759 207 780 203 800 c 1
 128 693 0 606 0 470 c 1
 0 670 l 1
 94 737 217 836 217 949 c 0
 217 973 213 996 206 1019 c 1
 131 917 0 837 0 705 c 1
 0 905 l 1
 94 962 217 1050 217 1157 c 0xc8
 217 1181 214 1205 209 1229 c 1xd0
 133 1136 0 1067 0 940 c 1
 0 1140 l 1
 96 1184 222 1256 222 1358 c 0
 222 1384 220 1410 214 1435 c 1
 136 1352 0 1296 0 1175 c 1
 0 1375 l 1
 99 1403 228 1459 228 1555 c 0
 228 1578 222 1606 222 1607 c 0
 222 1619 233 1628 244 1628 c 0
 254 1628 267 1627 267 1555 c 0xc4
0 209 m 1
 83 286 192 394 192 507 c 0xe0
 192 529 192 551 190 573 c 1
 117 466 0 374 0 240 c 2
 0 209 l 1
EndSplineSet
EndChar

StartChar: flags.d9
Encoding: 57568 57568 168
Width: 266
GlyphClass: 2
Flags: MW
HStem: 0 21G<-14 0 -14 -14>
VStem: -14 14<0 10 210 242 442 1750> 192 39<456 523.5> 209 39<725 758> 217 39<958 991.5 1179 1209 1389.5 1419.5> 222 39<1595.5 1624>
LayerCount: 2
Fore
SplineSet
267 1810 m 0xc4
 267 1780 259 1754 245 1730 c 1
 255 1691 261 1651 261 1611 c 0xc4
 261 1580 253 1552 240 1526 c 1
 250 1487 256 1447 256 1407 c 0
 256 1372 247 1341 232 1312 c 1
 247 1275 256 1236 256 1197 c 0
 256 1161 247 1128 232 1097 c 1
 247 1059 256 1020 256 979 c 0xc8
 256 937 245 900 227 865 c 1
 240 827 248 786 248 746 c 0xd0
 248 704 237 666 219 630 c 1
 226 591 231 552 231 513 c 0xe0
 231 319 0 204 0 10 c 2
 0 0 l 1
 -14 0 l 1
 -14 1750 l 1
 0 1750 l 1
 0 442 l 1
 90 519 209 628 209 746 c 0xd0
 209 770 206 795 200 818 c 1
 125 707 0 614 0 475 c 1
 0 675 l 1
 94 751 217 860 217 979 c 0
 217 1004 213 1028 206 1051 c 1
 131 940 0 851 0 712 c 1
 0 912 l 1
 94 981 217 1082 217 1197 c 0
 217 1221 213 1245 206 1268 c 1
 131 1164 0 1083 0 950 c 1
 0 1150 l 1
 94 1209 217 1298 217 1407 c 0xc8
 217 1432 214 1456 209 1480 c 1xd0
 133 1385 0 1315 0 1187 c 1
 0 1387 l 1
 96 1433 222 1508 222 1611 c 0
 222 1637 220 1662 214 1688 c 1
 136 1603 0 1547 0 1425 c 1
 0 1625 l 1
 99 1655 228 1713 228 1810 c 0
 228 1836 222 1851 222 1857 c 0
 222 1869 233 1878 244 1878 c 0
 254 1878 267 1878 267 1810 c 0xc4
0 210 m 1
 83 289 192 399 192 513 c 0xe0
 192 534 191 556 188 577 c 1
 114 469 0 376 0 242 c 2
 0 210 l 1
EndSplineSet
EndChar

StartChar: flags.d10
Encoding: 57569 57569 169
Width: 266
GlyphClass: 2
Flags: MW
HStem: 0 21G<-14 0 -14 -14>
VStem: -14 14<0 10 210 245 445 2000> 192 39<456 524> 209 39<728 761.5> 217 39<963 999 1205 1236.5 1426 1456.5 1639.5 1669.5> 222 39<1847.5 1876.5>
LayerCount: 2
Fore
SplineSet
267 2065 m 0xc4
 267 2035 259 2009 245 1985 c 1
 255 1945 261 1904 261 1863 c 0xc4
 261 1832 253 1804 240 1778 c 1
 250 1738 256 1698 256 1657 c 0
 256 1622 247 1591 232 1562 c 1
 247 1525 256 1484 256 1444 c 0
 256 1408 247 1375 232 1344 c 1
 247 1305 256 1265 256 1224 c 0
 256 1186 247 1152 232 1120 c 1
 247 1076 256 1030 256 984 c 0xc8
 256 942 245 904 227 869 c 1
 240 830 248 790 248 749 c 0xd0
 248 707 237 669 219 633 c 1
 226 594 231 553 231 513 c 0xe0
 231 319 0 204 0 10 c 2
 0 0 l 1
 -14 0 l 1
 -14 2000 l 1
 0 2000 l 1
 0 445 l 1
 90 522 209 631 209 749 c 0xd0
 209 774 205 799 199 823 c 1
 124 712 0 619 0 480 c 1
 0 680 l 1
 94 756 217 865 217 984 c 0
 217 1014 213 1042 205 1071 c 1
 130 956 0 862 0 720 c 1
 0 920 l 1
 94 996 217 1105 217 1224 c 0
 217 1249 213 1274 206 1298 c 1
 131 1188 0 1099 0 960 c 1
 0 1160 l 1
 94 1229 217 1329 217 1444 c 0
 217 1469 212 1494 205 1518 c 1
 130 1415 0 1333 0 1200 c 1
 0 1400 l 1
 94 1459 217 1548 217 1657 c 0xc8
 217 1682 214 1707 209 1732 c 1xd0
 133 1637 0 1568 0 1440 c 1
 0 1640 l 1
 96 1686 222 1760 222 1863 c 0
 222 1890 219 1917 213 1943 c 1
 135 1859 0 1802 0 1680 c 1
 0 1880 l 1
 99 1910 228 1968 228 2065 c 0
 228 2088 222 2101 222 2107 c 0
 222 2119 233 2128 244 2128 c 0
 267 2128 267 2090 267 2065 c 0xc4
0 210 m 1
 83 289 192 399 192 513 c 0xe0
 192 535 191 557 188 579 c 1
 114 471 0 379 0 245 c 2
 0 210 l 1
EndSplineSet
EndChar

StartChar: flags.ugrace
Encoding: 57570 57570 170
Width: 206
GlyphClass: 2
Flags: W
LayerCount: 2
Fore
SplineSet
-162 -524 m 2
 193 -234 l 2
 214 -216 242 -249 220 -266 c 2
 -136 -556 l 2
 -157 -574 -184 -541 -162 -524 c 2
EndSplineSet
EndChar

StartChar: flags.dgrace
Encoding: 57571 57571 171
Width: 266
GlyphClass: 2
Flags: MW
HStem: 229 302
LayerCount: 2
Fore
SplineSet
-202 495 m 2
 -226 508 -204 545 -181 531 c 2
 277 266 l 2
 301 253 279 215 256 229 c 2
 -202 495 l 2
EndSplineSet
EndChar

StartChar: noteheads.s0diamond
Encoding: 57579 57579 172
Width: 485
GlyphClass: 2
Flags: MW
HStem: -135 60<219 286.5> 75 60<199.5 267>
VStem: 0 179<-21 28.5> 306 179<-28.5 21>
LayerCount: 2
Fore
SplineSet
206 75 m 0
 193 75 179 75 179 1 c 0
 179 -43 193 -51 240 -66 c 0
 253 -70 268 -75 280 -75 c 0
 293 -75 306 -75 306 -1 c 0
 306 43 292 51 245 66 c 0
 232 70 218 75 206 75 c 0
485 0 m 0
 485 -57 407 -42 363 -67 c 0
 322 -90 291 -135 243 -135 c 0
 195 -135 163 -90 122 -67 c 0
 78 -42 0 -57 0 0 c 0
 0 57 78 42 122 67 c 0
 163 90 195 135 243 135 c 0
 291 135 322 90 363 67 c 0
 407 42 485 57 485 0 c 0
EndSplineSet
EndChar

StartChar: noteheads.s1diamond
Encoding: 57580 57580 173
Width: 356
GlyphClass: 2
Flags: MW
HStem: -102 20 82 20
VStem: 0 67<-103 -51> 290 67<51 103>
LayerCount: 2
Fore
SplineSet
290 55 m 0
 290 70 278 82 260 82 c 0
 226 82 100 -5 77 -31 c 0
 71 -38 67 -47 67 -55 c 0
 67 -70 78 -82 96 -82 c 0
 130 -82 257 5 280 31 c 0
 286 38 290 47 290 55 c 0
316 135 m 0
 343 135 357 111 357 95 c 0
 357 67 324 41 315 11 c 0
 304 -25 318 -73 285 -95 c 0
 270 -105 252 -108 234 -108 c 0
 209 -108 184 -102 158 -102 c 0
 110 -102 76 -135 40 -135 c 0
 13 -135 0 -111 0 -95 c 0
 0 -67 33 -41 42 -11 c 0
 53 25 39 73 72 95 c 0
 87 105 104 108 122 108 c 0
 147 108 173 102 199 102 c 0
 247 102 280 135 316 135 c 0
EndSplineSet
EndChar

StartChar: noteheads.s2diamond
Encoding: 57581 57581 174
Width: 361
GlyphClass: 2
Flags: MW
HStem: -134 269<165.5 340>
LayerCount: 2
Fore
SplineSet
325 135 m 0
 355 135 361 105 361 97 c 0
 361 61 300 35 277 -3 c 0
 252 -44 245 -98 205 -126 c 0
 196 -132 187 -134 177 -134 c 0
 154 -134 128 -122 105 -122 c 0
 82 -122 58 -135 37 -135 c 0
 7 -135 0 -105 0 -97 c 0
 0 -61 61 -35 84 3 c 0
 109 44 117 98 157 126 c 0
 166 132 174 134 184 134 c 0
 207 134 233 122 256 122 c 0
 279 122 304 135 325 135 c 0
EndSplineSet
EndChar

StartChar: noteheads.s0triangle
Encoding: 57582 57582 175
Width: 563
GlyphClass: 2
Flags: MW
VStem: 101 69<-94.5 -52.5 -94.5 -23.5>
LayerCount: 2
Fore
SplineSet
124 84 m 1
 146 45 170 -14 170 -91 c 0
 170 -98 169 -104 169 -111 c 1
 234 -56 309 -12 392 19 c 1
 328 27 233 44 124 84 c 1
101 -105 m 0
 101 58 0 147 0 157 c 0
 0 177 40 181 47 177 c 0
 124 136 293 58 524 58 c 2
 531 58 l 2
 548 58 563 50 563 36 c 0
 563 2 477 19 320 -73 c 0
 178 -156 160 -216 126 -213 c 0
 109 -211 91 -206 91 -192 c 0
 91 -191 101 -154 101 -105 c 0
EndSplineSet
EndChar

StartChar: noteheads.s1triangle
Encoding: 57583 57583 176
Width: 406
GlyphClass: 2
Flags: MW
VStem: 72 56<-89 -53 -89 -22.5>
LayerCount: 2
Fore
SplineSet
96 70 m 1
 109 38 128 -17 128 -89 c 1
 170 -47 220 -11 275 16 c 1
 234 23 169 37 96 70 c 1
72 -92 m 0
 72 47 0 124 0 139 c 0
 0 159 30 166 42 158 c 0
 121 105 233 55 380 55 c 0
 394 55 407 45 407 32 c 0
 407 0 342 12 232 -67 c 0
 128 -142 125 -193 93 -192 c 0
 78 -191 65 -183 65 -170 c 0
 65 -165 72 -136 72 -92 c 0
EndSplineSet
EndChar

StartChar: noteheads.s2triangle
Encoding: 57584 57584 177
Width: 338
GlyphClass: 2
Flags: MW
HStem: -192 247<70.5 323>
VStem: 61 278<-113 38>
LayerCount: 2
Fore
SplineSet
61 -91 m 0
 61 45 0 123 0 138 c 0
 0 157 23 168 39 155 c 0
 83 118 180 55 317 55 c 0
 329 55 339 44 339 32 c 0
 339 0 286 10 194 -67 c 0
 107 -140 104 -192 77 -192 c 0
 64 -192 54 -182 54 -169 c 0
 54 -163 61 -135 61 -91 c 0
EndSplineSet
EndChar

StartChar: noteheads.s0slash
Encoding: 57585 57585 178
Width: 751
GlyphClass: 2
Flags: MW
HStem: -261 72<122 401 122 437> 189 72<351 630 351 351>
LayerCount: 2
Fore
SplineSet
122 -189 m 1
 401 -189 l 1
 630 189 l 1
 351 189 l 1
 122 -189 l 1
8 -261 m 2
 2 -261 -2 -254 1 -249 c 2
 308 257 l 2
 309 259 312 261 315 261 c 2
 744 261 l 2
 750 261 754 254 751 249 c 2
 444 -257 l 2
 443 -259 440 -261 437 -261 c 2
 8 -261 l 2
EndSplineSet
EndChar

StartChar: noteheads.s1slash
Encoding: 57586 57586 179
Width: 584
GlyphClass: 2
Flags: MW
HStem: -261 72<122 233 122 270> 189 72<351 462 351 351>
LayerCount: 2
Fore
SplineSet
122 -189 m 1
 233 -189 l 1
 462 189 l 1
 351 189 l 1
 122 -189 l 1
8 -261 m 2
 2 -261 -2 -254 1 -249 c 2
 308 257 l 2
 309 259 312 261 315 261 c 2
 576 261 l 2
 582 261 586 254 583 249 c 2
 276 -257 l 2
 275 -259 273 -261 270 -261 c 2
 8 -261 l 2
EndSplineSet
EndChar

StartChar: noteheads.s2slash
Encoding: 57587 57587 180
Width: 426
GlyphClass: 2
Flags: W
LayerCount: 2
Fore
SplineSet
8 -261 m 2
 2 -261 -2 -254 1 -249 c 2
 308 257 l 2
 309 259 312 261 315 261 c 2
 419 261 l 2
 425 261 429 254 426 249 c 2
 119 -257 l 2
 118 -259 115 -261 112 -261 c 2
 8 -261 l 2
EndSplineSet
EndChar

StartChar: noteheads.s0cross
Encoding: 57588 57588 181
Width: 412
GlyphClass: 2
Flags: MW
HStem: -143 286<77 77 77 92 77 321 77 336>
LayerCount: 2
Fore
SplineSet
214 38 m 2
 212 37 209 36 206 36 c 0
 203 36 201 37 199 38 c 2
 85 117 l 1
 36 83 l 1
 142 11 l 2
 146 9 148 4 148 0 c 0
 148 -4 146 -9 142 -11 c 2
 36 -83 l 1
 85 -117 l 1
 199 -38 l 2
 201 -37 203 -36 206 -36 c 0
 209 -36 212 -37 214 -38 c 2
 328 -117 l 1
 377 -83 l 1
 271 -11 l 2
 267 -9 265 -4 265 0 c 0
 265 4 267 9 271 11 c 2
 377 83 l 1
 328 117 l 1
 214 38 l 2
206 65 m 1
 321 143 l 2
 323 144 325 146 328 146 c 0
 331 146 334 144 336 143 c 2
 407 94 l 2
 411 92 413 87 413 83 c 0
 413 79 411 75 407 73 c 2
 301 0 l 1
 407 -73 l 2
 411 -75 413 -79 413 -83 c 0
 413 -87 411 -92 407 -94 c 2
 336 -143 l 2
 334 -144 331 -146 328 -146 c 0
 325 -146 323 -144 321 -143 c 2
 206 -65 l 1
 92 -143 l 2
 90 -144 88 -146 85 -146 c 0
 82 -146 79 -144 77 -143 c 2
 6 -94 l 2
 2 -92 0 -87 0 -83 c 0
 0 -79 2 -75 6 -73 c 2
 112 0 l 1
 6 73 l 2
 2 75 0 79 0 83 c 0
 0 87 2 92 6 94 c 2
 77 143 l 2
 79 144 82 146 85 146 c 0
 88 146 90 144 92 143 c 2
 206 65 l 1
EndSplineSet
EndChar

StartChar: noteheads.s1cross
Encoding: 57589 57589 182
Width: 369
GlyphClass: 2
Flags: MW
HStem: -138 276<60 60 60 75 60 294 60 310>
LayerCount: 2
Fore
SplineSet
193 30 m 2
 191 28 188 27 185 27 c 0
 182 27 179 28 177 30 c 2
 67 111 l 1
 35 87 l 1
 138 10 l 2
 141 8 143 4 143 0 c 0
 143 -4 141 -8 138 -10 c 2
 35 -87 l 1
 67 -111 l 1
 177 -30 l 2
 179 -28 182 -27 185 -27 c 0
 188 -27 191 -28 193 -30 c 2
 302 -111 l 1
 335 -87 l 1
 232 -10 l 2
 229 -8 226 -4 226 0 c 0
 226 4 229 8 232 10 c 2
 335 87 l 1
 302 111 l 1
 193 30 l 2
185 56 m 1
 294 138 l 2
 296 140 299 140 302 140 c 0
 305 140 308 140 310 138 c 2
 364 97 l 2
 367 95 370 91 370 87 c 0
 370 83 367 78 364 76 c 2
 261 0 l 1
 364 -76 l 2
 367 -78 370 -83 370 -87 c 0
 370 -91 367 -95 364 -97 c 2
 310 -138 l 2
 308 -140 305 -140 302 -140 c 0
 299 -140 296 -140 294 -138 c 2
 185 -56 l 1
 75 -138 l 2
 73 -140 70 -140 67 -140 c 0
 64 -140 62 -140 60 -138 c 2
 5 -97 l 2
 2 -95 0 -91 0 -87 c 0
 0 -83 2 -78 5 -76 c 2
 109 0 l 1
 5 76 l 2
 2 78 0 83 0 87 c 0
 0 91 2 95 5 97 c 2
 60 138 l 2
 62 140 64 140 67 140 c 0
 70 140 73 140 75 138 c 2
 185 56 l 1
EndSplineSet
EndChar

StartChar: noteheads.s2cross
Encoding: 57590 57590 183
Width: 326
GlyphClass: 2
Flags: MW
HStem: -135 270<28.5 31.5 294.5 297.5>
VStem: 0 326<-110 -106 106 110>
LayerCount: 2
Fore
SplineSet
163 31 m 1
 288 132 l 2
 290 134 293 135 296 135 c 0
 299 135 302 134 304 132 c 2
 322 118 l 2
 325 116 326 112 326 108 c 0
 326 104 325 100 322 98 c 2
 201 0 l 1
 322 -98 l 2
 325 -100 326 -104 326 -108 c 0
 326 -112 325 -116 322 -118 c 2
 304 -132 l 2
 302 -134 299 -135 296 -135 c 0
 293 -135 290 -134 288 -132 c 2
 163 -31 l 1
 38 -132 l 2
 36 -134 33 -135 30 -135 c 0
 27 -135 24 -134 22 -132 c 2
 5 -118 l 2
 2 -116 0 -112 0 -108 c 0
 0 -104 2 -100 5 -98 c 2
 125 0 l 1
 5 98 l 2
 2 100 0 104 0 108 c 0
 0 112 2 116 5 118 c 2
 22 132 l 2
 24 134 27 135 30 135 c 0
 33 135 36 134 38 132 c 2
 163 31 l 1
EndSplineSet
EndChar

StartChar: noteheads.s2xcircle
Encoding: 57591 57591 184
Width: 388
GlyphClass: 2
Flags: MW
HStem: -168 31<175.5 212.5 175.5 247.5> 137 31<175.5 212.5>
VStem: 0 31<-16 16 -16 46.5> 357 31<-16 16>
LayerCount: 2
Fore
SplineSet
194 168 m 0
 301 168 388 93 388 0 c 0
 388 -93 301 -168 194 -168 c 0
 87 -168 0 -93 0 0 c 0
 0 93 87 168 194 168 c 0
170 0 m 1
 68 87 l 1
 44 63 31 32 31 0 c 0
 31 -32 44 -63 68 -87 c 1
 170 0 l 1
194 21 m 1
 295 107 l 1
 266 126 231 137 194 137 c 0
 157 137 122 126 93 107 c 1
 194 21 l 1
194 -21 m 1
 93 -107 l 1
 122 -126 157 -137 194 -137 c 0
 231 -137 266 -126 295 -107 c 1
 194 -21 l 1
218 0 m 1
 320 -87 l 1
 344 -63 357 -32 357 0 c 0
 357 32 344 63 320 87 c 1
 218 0 l 1
EndSplineSet
EndChar

StartChar: noteheads.s0do
Encoding: 57592 57592 185
Width: 326
GlyphClass: 2
Flags: MW
HStem: -114 56<82 263 82 312>
VStem: 0 326<-104 -98.5>
LayerCount: 2
Fore
SplineSet
82 -58 m 1
 263 -58 l 1
 173 64 l 1
 82 -58 l 1
14 -114 m 2
 6 -114 0 -108 0 -100 c 0
 0 -97 1 -94 3 -92 c 2
 152 109 l 2
 155 113 159 114 163 114 c 0
 167 114 171 113 174 109 c 2
 324 -92 l 2
 326 -94 326 -97 326 -100 c 0
 326 -108 320 -114 312 -114 c 2
 14 -114 l 2
EndSplineSet
EndChar

StartChar: noteheads.s1do
Encoding: 57593 57593 186
Width: 326
GlyphClass: 2
Flags: MW
HStem: -114 56<82 263 82 312>
VStem: 0 326<-104 -98.5>
LayerCount: 2
Fore
SplineSet
82 -58 m 1
 263 -58 l 1
 173 64 l 1
 82 -58 l 1
14 -114 m 2
 6 -114 0 -108 0 -100 c 0
 0 -97 1 -94 3 -92 c 2
 152 109 l 2
 155 113 159 114 163 114 c 0
 167 114 171 113 174 109 c 2
 324 -92 l 2
 326 -94 326 -97 326 -100 c 0
 326 -108 320 -114 312 -114 c 2
 14 -114 l 2
EndSplineSet
EndChar

StartChar: noteheads.s2do
Encoding: 57594 57594 187
Width: 326
GlyphClass: 2
Flags: MW
HStem: -114 228<10 165 161 165 161 312>
VStem: 0 326<-104 -98.5>
LayerCount: 2
Fore
SplineSet
14 -114 m 2
 6 -114 0 -108 0 -100 c 0
 0 -97 1 -94 3 -92 c 2
 152 109 l 2
 155 113 159 114 163 114 c 0
 167 114 171 113 174 109 c 2
 324 -92 l 2
 326 -94 326 -97 326 -100 c 0
 326 -108 320 -114 312 -114 c 2
 14 -114 l 2
EndSplineSet
EndChar

StartChar: noteheads.s0doThin
Encoding: 57595 57595 188
Width: 326
GlyphClass: 2
Flags: MW
HStem: -114 28<42 284 42 312>
VStem: 0 326<-104 -98.5>
LayerCount: 2
Fore
SplineSet
42 -86 m 1
 284 -86 l 1
 163 77 l 1
 42 -86 l 1
14 -114 m 2
 6 -114 0 -108 0 -100 c 0
 0 -97 1 -94 3 -92 c 2
 152 109 l 2
 155 113 159 114 163 114 c 0
 167 114 171 113 174 109 c 2
 324 -92 l 2
 326 -94 326 -97 326 -100 c 0
 326 -108 320 -114 312 -114 c 2
 14 -114 l 2
EndSplineSet
EndChar

StartChar: noteheads.s1doThin
Encoding: 57596 57596 189
Width: 326
GlyphClass: 2
Flags: MW
HStem: -114 28<42 284 42 312>
VStem: 0 326<-104 -98.5>
LayerCount: 2
Fore
SplineSet
42 -86 m 1
 284 -86 l 1
 163 77 l 1
 42 -86 l 1
14 -114 m 2
 6 -114 0 -108 0 -100 c 0
 0 -97 1 -94 3 -92 c 2
 152 109 l 2
 155 113 159 114 163 114 c 0
 167 114 171 113 174 109 c 2
 324 -92 l 2
 326 -94 326 -97 326 -100 c 0
 326 -108 320 -114 312 -114 c 2
 14 -114 l 2
EndSplineSet
EndChar

StartChar: noteheads.s2doThin
Encoding: 57597 57597 190
Width: 326
GlyphClass: 2
Flags: MW
HStem: -114 228<10 165 161 165 161 312>
VStem: 0 326<-104 -98.5>
LayerCount: 2
Fore
SplineSet
14 -114 m 2
 6 -114 0 -108 0 -100 c 0
 0 -97 1 -94 3 -92 c 2
 152 109 l 2
 155 113 159 114 163 114 c 0
 167 114 171 113 174 109 c 2
 324 -92 l 2
 326 -94 326 -97 326 -100 c 0
 326 -108 320 -114 312 -114 c 2
 14 -114 l 2
EndSplineSet
EndChar

StartChar: noteheads.s0re
Encoding: 57598 57598 191
Width: 326
GlyphClass: 2
Flags: MW
HStem: -114 70<129.5 196.5 129.5 207.5> 58 56<28 28 28 298>
VStem: 0 28<40 58 10.5 100> 298 28<40 58 58 58>
LayerCount: 2
Fore
SplineSet
28 58 m 1
 28 40 l 2
 28 -19 96 -44 163 -44 c 0
 230 -44 298 -19 298 40 c 2
 298 58 l 1
 28 58 l 1
0 100 m 2
 0 108 6 114 14 114 c 2
 312 114 l 2
 320 114 326 108 326 100 c 2
 326 40 l 2
 326 -47 252 -114 163 -114 c 0
 74 -114 0 -47 0 40 c 2
 0 100 l 2
EndSplineSet
EndChar

StartChar: noteheads.s1re
Encoding: 57599 57599 192
Width: 326
GlyphClass: 2
Flags: MW
HStem: -114 70<129.5 196.5 129.5 207.5> 58 56<28 28 28 298>
VStem: 0 28<40 58 10.5 100> 298 28<40 58 58 58>
LayerCount: 2
Fore
SplineSet
28 58 m 1
 28 40 l 2
 28 -19 96 -44 163 -44 c 0
 230 -44 298 -19 298 40 c 2
 298 58 l 1
 28 58 l 1
0 100 m 2
 0 108 6 114 14 114 c 2
 312 114 l 2
 320 114 326 108 326 100 c 2
 326 40 l 2
 326 -47 252 -114 163 -114 c 0
 74 -114 0 -47 0 40 c 2
 0 100 l 2
EndSplineSet
EndChar

StartChar: noteheads.s2re
Encoding: 57600 57600 193
Width: 326
GlyphClass: 2
Flags: MW
HStem: -114 228<118.5 207.5>
VStem: 0 326<40 100 -3.5 104>
LayerCount: 2
Fore
SplineSet
0 100 m 2
 0 108 6 114 14 114 c 2
 312 114 l 2
 320 114 326 108 326 100 c 2
 326 40 l 2
 326 -47 252 -114 163 -114 c 0
 74 -114 0 -47 0 40 c 2
 0 100 l 2
EndSplineSet
EndChar

StartChar: noteheads.s0reThin
Encoding: 57601 57601 194
Width: 326
GlyphClass: 2
Flags: MW
HStem: -114 42<127.5 198.5 127.5 207.5> 86 28<28 28 28 298>
VStem: 0 28<40 86> 298 28<40 86 86 86>
LayerCount: 2
Fore
SplineSet
28 86 m 1
 28 40 l 2
 28 -27 92 -72 163 -72 c 0
 234 -72 298 -27 298 40 c 2
 298 86 l 1
 28 86 l 1
0 100 m 2
 0 108 6 114 14 114 c 2
 312 114 l 2
 320 114 326 108 326 100 c 2
 326 40 l 2
 326 -47 252 -114 163 -114 c 0
 74 -114 0 -47 0 40 c 2
 0 100 l 2
EndSplineSet
EndChar

StartChar: noteheads.s1reThin
Encoding: 57602 57602 195
Width: 326
GlyphClass: 2
Flags: MW
HStem: -114 42<127.5 198.5 127.5 207.5> 86 28<28 28 28 298>
VStem: 0 28<40 86> 298 28<40 86 86 86>
LayerCount: 2
Fore
SplineSet
28 86 m 1
 28 40 l 2
 28 -27 92 -72 163 -72 c 0
 234 -72 298 -27 298 40 c 2
 298 86 l 1
 28 86 l 1
0 100 m 2
 0 108 6 114 14 114 c 2
 312 114 l 2
 320 114 326 108 326 100 c 2
 326 40 l 2
 326 -47 252 -114 163 -114 c 0
 74 -114 0 -47 0 40 c 2
 0 100 l 2
EndSplineSet
EndChar

StartChar: noteheads.s2reThin
Encoding: 57603 57603 196
Width: 326
GlyphClass: 2
Flags: MW
HStem: -114 228<118.5 207.5>
VStem: 0 326<40 100 -3.5 104>
LayerCount: 2
Fore
SplineSet
0 100 m 2
 0 108 6 114 14 114 c 2
 312 114 l 2
 320 114 326 108 326 100 c 2
 326 40 l 2
 326 -47 252 -114 163 -114 c 0
 74 -114 0 -47 0 40 c 2
 0 100 l 2
EndSplineSet
EndChar

StartChar: noteheads.s0mi
Encoding: 57604 57604 197
Width: 326
GlyphClass: 2
Flags: MW
HStem: -114 228<161.5 164.5>
VStem: 0 326<-2.5 2.5>
LayerCount: 2
Fore
SplineSet
262 -17 m 1
 138 66 l 1
 64 17 l 1
 188 -66 l 1
 262 -17 l 1
6 -12 m 2
 2 -9 0 -5 0 0 c 0
 0 5 2 9 6 12 c 2
 155 112 l 2
 157 114 160 114 163 114 c 0
 166 114 169 114 171 112 c 2
 320 12 l 2
 324 9 326 5 326 0 c 0
 326 -5 324 -9 320 -12 c 2
 171 -112 l 2
 169 -114 166 -114 163 -114 c 0
 160 -114 157 -114 155 -112 c 2
 6 -12 l 2
EndSplineSet
EndChar

StartChar: noteheads.s1mi
Encoding: 57605 57605 198
Width: 326
GlyphClass: 2
Flags: MW
HStem: -114 228<161.5 164.5>
VStem: 0 326<-2.5 2.5>
LayerCount: 2
Fore
SplineSet
262 -17 m 1
 138 66 l 1
 64 17 l 1
 188 -66 l 1
 262 -17 l 1
6 -12 m 2
 2 -9 0 -5 0 0 c 0
 0 5 2 9 6 12 c 2
 155 112 l 2
 157 114 160 114 163 114 c 0
 166 114 169 114 171 112 c 2
 320 12 l 2
 324 9 326 5 326 0 c 0
 326 -5 324 -9 320 -12 c 2
 171 -112 l 2
 169 -114 166 -114 163 -114 c 0
 160 -114 157 -114 155 -112 c 2
 6 -12 l 2
EndSplineSet
EndChar

StartChar: noteheads.s2mi
Encoding: 57606 57606 199
Width: 326
GlyphClass: 2
Flags: MW
HStem: -114 228<161.5 164.5>
VStem: 0 326<-2.5 2.5>
LayerCount: 2
Fore
SplineSet
6 -12 m 2
 2 -9 0 -5 0 0 c 0
 0 5 2 9 6 12 c 2
 155 112 l 2
 157 114 160 114 163 114 c 0
 166 114 169 114 171 112 c 2
 320 12 l 2
 324 9 326 5 326 0 c 0
 326 -5 324 -9 320 -12 c 2
 171 -112 l 2
 169 -114 166 -114 163 -114 c 0
 160 -114 157 -114 155 -112 c 2
 6 -12 l 2
EndSplineSet
EndChar

StartChar: noteheads.s0miMirror
Encoding: 57607 57607 200
Width: 326
GlyphClass: 2
Flags: MW
HStem: -114 228<161.5 164.5>
VStem: 0 326<-2.5 2.5>
LayerCount: 2
Fore
SplineSet
64 -17 m 1
 138 -66 l 1
 262 17 l 1
 188 66 l 1
 64 -17 l 1
6 -12 m 2
 2 -9 0 -5 0 0 c 0
 0 5 2 9 6 12 c 2
 155 112 l 2
 157 114 160 114 163 114 c 0
 166 114 169 114 171 112 c 2
 320 12 l 2
 324 9 326 5 326 0 c 0
 326 -5 324 -9 320 -12 c 2
 171 -112 l 2
 169 -114 166 -114 163 -114 c 0
 160 -114 157 -114 155 -112 c 2
 6 -12 l 2
EndSplineSet
EndChar

StartChar: noteheads.s1miMirror
Encoding: 57608 57608 201
Width: 326
GlyphClass: 2
Flags: MW
HStem: -114 228<161.5 164.5>
VStem: 0 326<-2.5 2.5>
LayerCount: 2
Fore
SplineSet
64 -17 m 1
 138 -66 l 1
 262 17 l 1
 188 66 l 1
 64 -17 l 1
6 -12 m 2
 2 -9 0 -5 0 0 c 0
 0 5 2 9 6 12 c 2
 155 112 l 2
 157 114 160 114 163 114 c 0
 166 114 169 114 171 112 c 2
 320 12 l 2
 324 9 326 5 326 0 c 0
 326 -5 324 -9 320 -12 c 2
 171 -112 l 2
 169 -114 166 -114 163 -114 c 0
 160 -114 157 -114 155 -112 c 2
 6 -12 l 2
EndSplineSet
EndChar

StartChar: noteheads.s2miMirror
Encoding: 57609 57609 202
Width: 326
GlyphClass: 2
Flags: MW
HStem: -114 228<161.5 164.5>
VStem: 0 326<-2.5 2.5>
LayerCount: 2
Fore
SplineSet
6 -12 m 2
 2 -9 0 -5 0 0 c 0
 0 5 2 9 6 12 c 2
 155 112 l 2
 157 114 160 114 163 114 c 0
 166 114 169 114 171 112 c 2
 320 12 l 2
 324 9 326 5 326 0 c 0
 326 -5 324 -9 320 -12 c 2
 171 -112 l 2
 169 -114 166 -114 163 -114 c 0
 160 -114 157 -114 155 -112 c 2
 6 -12 l 2
EndSplineSet
EndChar

StartChar: noteheads.s0miThin
Encoding: 57610 57610 203
Width: 326
GlyphClass: 2
Flags: MW
HStem: -114 228<161.5 164.5>
VStem: 0 326<-2.5 2.5>
LayerCount: 2
Fore
SplineSet
287 0 m 1
 163 83 l 1
 39 0 l 1
 163 -83 l 1
 287 0 l 1
6 -12 m 2
 2 -9 0 -5 0 0 c 0
 0 5 2 9 6 12 c 2
 155 112 l 2
 157 114 160 114 163 114 c 0
 166 114 169 114 171 112 c 2
 320 12 l 2
 324 9 326 5 326 0 c 0
 326 -5 324 -9 320 -12 c 2
 171 -112 l 2
 169 -114 166 -114 163 -114 c 0
 160 -114 157 -114 155 -112 c 2
 6 -12 l 2
EndSplineSet
EndChar

StartChar: noteheads.s1miThin
Encoding: 57611 57611 204
Width: 326
GlyphClass: 2
Flags: MW
HStem: -114 228<161.5 164.5>
VStem: 0 326<-2.5 2.5>
LayerCount: 2
Fore
SplineSet
287 0 m 1
 163 83 l 1
 39 0 l 1
 163 -83 l 1
 287 0 l 1
6 -12 m 2
 2 -9 0 -5 0 0 c 0
 0 5 2 9 6 12 c 2
 155 112 l 2
 157 114 160 114 163 114 c 0
 166 114 169 114 171 112 c 2
 320 12 l 2
 324 9 326 5 326 0 c 0
 326 -5 324 -9 320 -12 c 2
 171 -112 l 2
 169 -114 166 -114 163 -114 c 0
 160 -114 157 -114 155 -112 c 2
 6 -12 l 2
EndSplineSet
EndChar

StartChar: noteheads.s2miThin
Encoding: 57612 57612 205
Width: 326
GlyphClass: 2
Flags: MW
HStem: -114 228<161.5 164.5>
VStem: 0 326<-2.5 2.5>
LayerCount: 2
Fore
SplineSet
6 -12 m 2
 2 -9 0 -5 0 0 c 0
 0 5 2 9 6 12 c 2
 155 112 l 2
 157 114 160 114 163 114 c 0
 166 114 169 114 171 112 c 2
 320 12 l 2
 324 9 326 5 326 0 c 0
 326 -5 324 -9 320 -12 c 2
 171 -112 l 2
 169 -114 166 -114 163 -114 c 0
 160 -114 157 -114 155 -112 c 2
 6 -12 l 2
EndSplineSet
EndChar

StartChar: noteheads.u0fa
Encoding: 57613 57613 206
Width: 326
GlyphClass: 2
Flags: MW
HStem: 65 49<92 298 92 92>
VStem: 298 28<-74 65 65 65>
LayerCount: 2
Fore
SplineSet
298 65 m 1
 92 65 l 1
 298 -74 l 1
 298 65 l 1
0 100 m 0
 0 108 6 114 14 114 c 2
 312 114 l 2
 320 114 326 108 326 100 c 2
 326 -100 l 2
 326 -108 320 -114 312 -114 c 0
 309 -114 307 -114 305 -112 c 2
 6 88 l 2
 2 91 0 95 0 100 c 0
EndSplineSet
EndChar

StartChar: noteheads.d0fa
Encoding: 57614 57614 207
Width: 326
GlyphClass: 2
Flags: MW
HStem: -114 49<10 235 28 235 28 312>
VStem: 0 28<-65 -65 -65 74>
LayerCount: 2
Fore
SplineSet
28 -65 m 1
 235 -65 l 1
 28 74 l 1
 28 -65 l 1
326 -100 m 0
 326 -108 320 -114 312 -114 c 2
 14 -114 l 2
 6 -114 0 -108 0 -100 c 2
 0 100 l 2
 0 108 6 114 14 114 c 0
 17 114 20 114 22 112 c 2
 320 -88 l 2
 324 -91 326 -95 326 -100 c 0
EndSplineSet
EndChar

StartChar: noteheads.u1fa
Encoding: 57615 57615 208
Width: 326
GlyphClass: 2
Flags: MW
HStem: 65 49<92 298 92 92>
VStem: 298 28<-74 65 65 65>
LayerCount: 2
Fore
SplineSet
298 65 m 1
 92 65 l 1
 298 -74 l 1
 298 65 l 1
0 100 m 0
 0 108 6 114 14 114 c 2
 312 114 l 2
 320 114 326 108 326 100 c 2
 326 -100 l 2
 326 -108 320 -114 312 -114 c 0
 309 -114 307 -114 305 -112 c 2
 6 88 l 2
 2 91 0 95 0 100 c 0
EndSplineSet
EndChar

StartChar: noteheads.d1fa
Encoding: 57616 57616 209
Width: 326
GlyphClass: 2
Flags: MW
HStem: -114 49<10 235 28 235 28 312>
VStem: 0 28<-65 -65 -65 74>
LayerCount: 2
Fore
SplineSet
28 -65 m 1
 235 -65 l 1
 28 74 l 1
 28 -65 l 1
326 -100 m 0
 326 -108 320 -114 312 -114 c 2
 14 -114 l 2
 6 -114 0 -108 0 -100 c 2
 0 100 l 2
 0 108 6 114 14 114 c 0
 17 114 20 114 22 112 c 2
 320 -88 l 2
 324 -91 326 -95 326 -100 c 0
EndSplineSet
EndChar

StartChar: noteheads.u2fa
Encoding: 57617 57617 210
Width: 326
GlyphClass: 2
Flags: MW
HStem: -114 228<310.5 312 312 316>
VStem: 0 326<97.5 100 -104 104>
LayerCount: 2
Fore
SplineSet
0 100 m 0
 0 108 6 114 14 114 c 2
 312 114 l 2
 320 114 326 108 326 100 c 2
 326 -100 l 2
 326 -108 320 -114 312 -114 c 0
 309 -114 307 -114 305 -112 c 2
 6 88 l 2
 2 91 0 95 0 100 c 0
EndSplineSet
EndChar

StartChar: noteheads.d2fa
Encoding: 57618 57618 211
Width: 326
GlyphClass: 2
Flags: MW
HStem: -114 228<10 14 14 15.5 10 312>
VStem: 0 326<-100 -97.5 -104 100 -104 104>
LayerCount: 2
Fore
SplineSet
326 -100 m 0
 326 -108 320 -114 312 -114 c 2
 14 -114 l 2
 6 -114 0 -108 0 -100 c 2
 0 100 l 2
 0 108 6 114 14 114 c 0
 17 114 20 114 22 112 c 2
 320 -88 l 2
 324 -91 326 -95 326 -100 c 0
EndSplineSet
EndChar

StartChar: noteheads.u0faThin
Encoding: 57619 57619 212
Width: 326
GlyphClass: 2
Flags: MW
HStem: 86 28<60 298 60 60>
VStem: 298 28<-74 86 86 86>
LayerCount: 2
Fore
SplineSet
298 86 m 1
 60 86 l 1
 298 -74 l 1
 298 86 l 1
0 100 m 0
 0 108 6 114 14 114 c 2
 312 114 l 2
 320 114 326 108 326 100 c 2
 326 -100 l 2
 326 -108 320 -114 312 -114 c 0
 309 -114 307 -114 305 -112 c 2
 6 88 l 2
 2 91 0 95 0 100 c 0
EndSplineSet
EndChar

StartChar: noteheads.d0faThin
Encoding: 57620 57620 213
Width: 326
GlyphClass: 2
Flags: MW
HStem: -114 28<10 266 28 266 28 312>
VStem: 0 28<-86 -86 -86 74>
LayerCount: 2
Fore
SplineSet
28 -86 m 1
 266 -86 l 1
 28 74 l 1
 28 -86 l 1
326 -100 m 0
 326 -108 320 -114 312 -114 c 2
 14 -114 l 2
 6 -114 0 -108 0 -100 c 2
 0 100 l 2
 0 108 6 114 14 114 c 0
 17 114 20 114 22 112 c 2
 320 -88 l 2
 324 -91 326 -95 326 -100 c 0
EndSplineSet
EndChar

StartChar: noteheads.u1faThin
Encoding: 57621 57621 214
Width: 326
GlyphClass: 2
Flags: MW
HStem: 86 28<60 298 60 60>
VStem: 298 28<-74 86 86 86>
LayerCount: 2
Fore
SplineSet
298 86 m 1
 60 86 l 1
 298 -74 l 1
 298 86 l 1
0 100 m 0
 0 108 6 114 14 114 c 2
 312 114 l 2
 320 114 326 108 326 100 c 2
 326 -100 l 2
 326 -108 320 -114 312 -114 c 0
 309 -114 307 -114 305 -112 c 2
 6 88 l 2
 2 91 0 95 0 100 c 0
EndSplineSet
EndChar

StartChar: noteheads.d1faThin
Encoding: 57622 57622 215
Width: 326
GlyphClass: 2
Flags: MW
HStem: -114 28<10 266 28 266 28 312>
VStem: 0 28<-86 -86 -86 74>
LayerCount: 2
Fore
SplineSet
28 -86 m 1
 266 -86 l 1
 28 74 l 1
 28 -86 l 1
326 -100 m 0
 326 -108 320 -114 312 -114 c 2
 14 -114 l 2
 6 -114 0 -108 0 -100 c 2
 0 100 l 2
 0 108 6 114 14 114 c 0
 17 114 20 114 22 112 c 2
 320 -88 l 2
 324 -91 326 -95 326 -100 c 0
EndSplineSet
EndChar

StartChar: noteheads.u2faThin
Encoding: 57623 57623 216
Width: 326
GlyphClass: 2
Flags: MW
HStem: -114 228<310.5 312 312 316>
VStem: 0 326<97.5 100 -104 104>
LayerCount: 2
Fore
SplineSet
0 100 m 0
 0 108 6 114 14 114 c 2
 312 114 l 2
 320 114 326 108 326 100 c 2
 326 -100 l 2
 326 -108 320 -114 312 -114 c 0
 309 -114 307 -114 305 -112 c 2
 6 88 l 2
 2 91 0 95 0 100 c 0
EndSplineSet
EndChar

StartChar: noteheads.d2faThin
Encoding: 57624 57624 217
Width: 326
GlyphClass: 2
Flags: MW
HStem: -114 228<10 14 14 15.5 10 312>
VStem: 0 326<-100 -97.5 -104 100 -104 104>
LayerCount: 2
Fore
SplineSet
326 -100 m 0
 326 -108 320 -114 312 -114 c 2
 14 -114 l 2
 6 -114 0 -108 0 -100 c 2
 0 100 l 2
 0 108 6 114 14 114 c 0
 17 114 20 114 22 112 c 2
 320 -88 l 2
 324 -91 326 -95 326 -100 c 0
EndSplineSet
EndChar

StartChar: noteheads.s0sol
Encoding: 57625 57625 218
Width: 326
GlyphClass: 2
Flags: MW
HStem: -135 37<73 112 44.5 158.5> 98 37<214 254 168.5 281.5>
VStem: 0 23<-69 -38 -69 -4.5> 303 23<38 69>
LayerCount: 2
Fore
SplineSet
303 66 m 0
 303 72 301 98 262 98 c 0
 166 98 23 -10 23 -66 c 0
 23 -72 25 -98 64 -98 c 0
 160 -98 303 10 303 66 c 0
222 135 m 0
 286 135 326 100 326 49 c 0
 326 -40 212 -135 105 -135 c 0
 41 -135 0 -100 0 -49 c 0
 0 40 115 135 222 135 c 0
EndSplineSet
EndChar

StartChar: noteheads.s1sol
Encoding: 57626 57626 219
Width: 326
GlyphClass: 2
Flags: MW
HStem: -135 37<73 112 44.5 158.5> 98 37<214 254 168.5 281.5>
VStem: 0 23<-69 -38 -69 -4.5> 303 23<38 69>
LayerCount: 2
Fore
SplineSet
303 66 m 0
 303 72 301 98 262 98 c 0
 166 98 23 -10 23 -66 c 0
 23 -72 25 -98 64 -98 c 0
 160 -98 303 10 303 66 c 0
222 135 m 0
 286 135 326 100 326 49 c 0
 326 -40 212 -135 105 -135 c 0
 41 -135 0 -100 0 -49 c 0
 0 40 115 135 222 135 c 0
EndSplineSet
EndChar

StartChar: noteheads.s2sol
Encoding: 57627 57627 220
Width: 326
GlyphClass: 2
Flags: MW
HStem: -135 270<73 254>
VStem: 0 326<-74.5 74.5>
LayerCount: 2
Fore
SplineSet
222 135 m 0
 286 135 326 100 326 49 c 0
 326 -40 212 -135 105 -135 c 0
 41 -135 0 -100 0 -49 c 0
 0 40 115 135 222 135 c 0
EndSplineSet
EndChar

StartChar: noteheads.s0la
Encoding: 57628 57628 221
Width: 326
GlyphClass: 2
Flags: MW
HStem: -114 56<10 298 28 298 28 312> 58 56<28 28 28 298>
VStem: 0 28<-58 58 -58 100> 298 28<-58 58 58 58>
LayerCount: 2
Fore
SplineSet
28 58 m 1
 28 -58 l 1
 298 -58 l 1
 298 58 l 1
 28 58 l 1
14 114 m 2
 312 114 l 2
 320 114 326 108 326 100 c 2
 326 -100 l 2
 326 -108 320 -114 312 -114 c 2
 14 -114 l 2
 6 -114 0 -108 0 -100 c 2
 0 100 l 2
 0 108 6 114 14 114 c 2
EndSplineSet
EndChar

StartChar: noteheads.s1la
Encoding: 57629 57629 222
Width: 326
GlyphClass: 2
Flags: MW
HStem: -114 56<10 298 28 298 28 312> 58 56<28 28 28 298>
VStem: 0 28<-58 58 -58 100> 298 28<-58 58 58 58>
LayerCount: 2
Fore
SplineSet
28 58 m 1
 28 -58 l 1
 298 -58 l 1
 298 58 l 1
 28 58 l 1
14 114 m 2
 312 114 l 2
 320 114 326 108 326 100 c 2
 326 -100 l 2
 326 -108 320 -114 312 -114 c 2
 14 -114 l 2
 6 -114 0 -108 0 -100 c 2
 0 100 l 2
 0 108 6 114 14 114 c 2
EndSplineSet
EndChar

StartChar: noteheads.s2la
Encoding: 57630 57630 223
Width: 326
GlyphClass: 2
Flags: MW
HStem: -114 228<10 312 14 312>
VStem: 0 326<-100 100 -104 104>
LayerCount: 2
Fore
SplineSet
14 114 m 2
 312 114 l 2
 320 114 326 108 326 100 c 2
 326 -100 l 2
 326 -108 320 -114 312 -114 c 2
 14 -114 l 2
 6 -114 0 -108 0 -100 c 2
 0 100 l 2
 0 108 6 114 14 114 c 2
EndSplineSet
EndChar

StartChar: noteheads.s0laThin
Encoding: 57631 57631 224
Width: 326
GlyphClass: 2
Flags: MW
HStem: -114 28<10 298 28 298 28 312> 86 28<28 28 28 298>
VStem: 0 28<-86 86 -86 100 -86 104> 298 28<-86 86 86 86>
LayerCount: 2
Fore
SplineSet
28 86 m 1
 28 -86 l 1
 298 -86 l 1
 298 86 l 1
 28 86 l 1
14 114 m 2
 312 114 l 2
 320 114 326 108 326 100 c 2
 326 -100 l 2
 326 -108 320 -114 312 -114 c 2
 14 -114 l 2
 6 -114 0 -108 0 -100 c 2
 0 100 l 2
 0 108 6 114 14 114 c 2
EndSplineSet
EndChar

StartChar: noteheads.s1laThin
Encoding: 57632 57632 225
Width: 326
GlyphClass: 2
Flags: MW
HStem: -114 28<10 298 28 298 28 312> 86 28<28 28 28 298>
VStem: 0 28<-86 86 -86 100 -86 104> 298 28<-86 86 86 86>
LayerCount: 2
Fore
SplineSet
28 86 m 1
 28 -86 l 1
 298 -86 l 1
 298 86 l 1
 28 86 l 1
14 114 m 2
 312 114 l 2
 320 114 326 108 326 100 c 2
 326 -100 l 2
 326 -108 320 -114 312 -114 c 2
 14 -114 l 2
 6 -114 0 -108 0 -100 c 2
 0 100 l 2
 0 108 6 114 14 114 c 2
EndSplineSet
EndChar

StartChar: noteheads.s2laThin
Encoding: 57633 57633 226
Width: 326
GlyphClass: 2
Flags: MW
HStem: -114 228<10 312 14 312>
VStem: 0 326<-100 100 -104 104>
LayerCount: 2
Fore
SplineSet
14 114 m 2
 312 114 l 2
 320 114 326 108 326 100 c 2
 326 -100 l 2
 326 -108 320 -114 312 -114 c 2
 14 -114 l 2
 6 -114 0 -108 0 -100 c 2
 0 100 l 2
 0 108 6 114 14 114 c 2
EndSplineSet
EndChar

StartChar: noteheads.s0ti
Encoding: 57634 57634 227
Width: 326
GlyphClass: 2
Flags: MW
HStem: 86 28<137.5 188.5>
LayerCount: 2
Fore
SplineSet
163 -58 m 1
 278 8 l 1
 259 55 214 86 163 86 c 0
 112 86 68 55 49 8 c 1
 163 -58 l 1
172 -111 m 2
 169 -113 166 -114 163 -114 c 0
 160 -114 157 -113 154 -111 c 2
 5 17 l 2
 -17 35 63 114 163 114 c 0
 263 114 344 35 322 17 c 2
 172 -111 l 2
EndSplineSet
EndChar

StartChar: noteheads.s1ti
Encoding: 57635 57635 228
Width: 326
GlyphClass: 2
Flags: MW
HStem: 86 28<137.5 188.5>
LayerCount: 2
Fore
SplineSet
163 -58 m 1
 278 8 l 1
 259 55 214 86 163 86 c 0
 112 86 68 55 49 8 c 1
 163 -58 l 1
172 -111 m 2
 169 -113 166 -114 163 -114 c 0
 160 -114 157 -113 154 -111 c 2
 5 17 l 2
 -17 35 63 114 163 114 c 0
 263 114 344 35 322 17 c 2
 172 -111 l 2
EndSplineSet
EndChar

StartChar: noteheads.s2ti
Encoding: 57636 57636 229
Width: 326
GlyphClass: 2
Flags: MW
HStem: -114 228<161.5 164.5>
LayerCount: 2
Fore
SplineSet
172 -111 m 2
 169 -113 166 -114 163 -114 c 0
 160 -114 157 -113 154 -111 c 2
 5 17 l 2
 -17 35 63 114 163 114 c 0
 263 114 344 35 322 17 c 2
 172 -111 l 2
EndSplineSet
EndChar

StartChar: noteheads.s0tiThin
Encoding: 57637 57637 230
Width: 326
GlyphClass: 2
Flags: MW
HStem: 86 28<136 190>
LayerCount: 2
Fore
SplineSet
163 -86 m 1
 301 20 l 1
 268 62 217 86 163 86 c 0
 109 86 58 62 25 20 c 1
 163 -86 l 1
172 -111 m 2
 169 -113 166 -114 163 -114 c 0
 160 -114 157 -113 154 -111 c 2
 5 17 l 2
 -17 35 63 114 163 114 c 0
 263 114 344 35 322 17 c 2
 172 -111 l 2
EndSplineSet
EndChar

StartChar: noteheads.s1tiThin
Encoding: 57638 57638 231
Width: 326
GlyphClass: 2
Flags: MW
HStem: 86 28<136 190>
LayerCount: 2
Fore
SplineSet
163 -86 m 1
 301 20 l 1
 268 62 217 86 163 86 c 0
 109 86 58 62 25 20 c 1
 163 -86 l 1
172 -111 m 2
 169 -113 166 -114 163 -114 c 0
 160 -114 157 -113 154 -111 c 2
 5 17 l 2
 -17 35 63 114 163 114 c 0
 263 114 344 35 322 17 c 2
 172 -111 l 2
EndSplineSet
EndChar

StartChar: noteheads.s2tiThin
Encoding: 57639 57639 232
Width: 326
GlyphClass: 2
Flags: MW
HStem: -114 228<161.5 164.5>
LayerCount: 2
Fore
SplineSet
172 -111 m 2
 169 -113 166 -114 163 -114 c 0
 160 -114 157 -113 154 -111 c 2
 5 17 l 2
 -17 35 63 114 163 114 c 0
 263 114 344 35 322 17 c 2
 172 -111 l 2
EndSplineSet
EndChar

StartChar: noteheads.u0doFunk
Encoding: 57640 57640 233
Width: 244
GlyphClass: 2
Flags: MW
HStem: -114 48<28 69> 66 48<28 69 10 71>
VStem: 0 28<-66 66 -66 100> 217 28<-33 33>
LayerCount: 2
Fore
SplineSet
28 66 m 1
 28 -66 l 1
 114 -66 217 -66 217 0 c 0
 217 66 114 66 28 66 c 1
14 114 m 0
 124 114 245 95 245 0 c 0
 245 -95 124 -114 14 -114 c 0
 6 -114 0 -108 0 -100 c 2
 0 100 l 2
 0 108 6 114 14 114 c 0
EndSplineSet
EndChar

StartChar: noteheads.d0doFunk
Encoding: 57641 57641 234
Width: 244
GlyphClass: 2
Flags: MW
HStem: -114 48<176 217 174 235> 66 48<176 217>
VStem: 0 28<-33 33 -33 47.5> 217 28<-66 66 66 66>
LayerCount: 2
Fore
SplineSet
217 -66 m 1
 217 66 l 1
 131 66 28 66 28 0 c 0
 28 -66 131 -66 217 -66 c 1
231 -114 m 0
 121 -114 0 -95 0 0 c 0
 0 95 121 114 231 114 c 0
 239 114 245 108 245 100 c 2
 245 -100 l 2
 245 -108 239 -114 231 -114 c 0
EndSplineSet
EndChar

StartChar: noteheads.u1doFunk
Encoding: 57642 57642 235
Width: 244
GlyphClass: 2
Flags: MW
HStem: -114 48<28 69> 66 48<28 69 10 71>
VStem: 0 28<-66 66 -66 100> 217 28<-33 33>
LayerCount: 2
Fore
SplineSet
28 66 m 1
 28 -66 l 1
 114 -66 217 -66 217 0 c 0
 217 66 114 66 28 66 c 1
14 114 m 0
 124 114 245 95 245 0 c 0
 245 -95 124 -114 14 -114 c 0
 6 -114 0 -108 0 -100 c 2
 0 100 l 2
 0 108 6 114 14 114 c 0
EndSplineSet
EndChar

StartChar: noteheads.d1doFunk
Encoding: 57643 57643 236
Width: 244
GlyphClass: 2
Flags: MW
HStem: -114 48<176 217 174 235> 66 48<176 217>
VStem: 0 28<-33 33 -33 47.5> 217 28<-66 66 66 66>
LayerCount: 2
Fore
SplineSet
217 -66 m 1
 217 66 l 1
 131 66 28 66 28 0 c 0
 28 -66 131 -66 217 -66 c 1
231 -114 m 0
 121 -114 0 -95 0 0 c 0
 0 95 121 114 231 114 c 0
 239 114 245 108 245 100 c 2
 245 -100 l 2
 245 -108 239 -114 231 -114 c 0
EndSplineSet
EndChar

StartChar: noteheads.u2doFunk
Encoding: 57644 57644 237
Width: 244
GlyphClass: 2
Flags: MW
HStem: -114 228<10 69>
VStem: 0 245<-47.5 47.5 -47.5 100 -47.5 104>
LayerCount: 2
Fore
SplineSet
14 114 m 0
 124 114 245 95 245 0 c 0
 245 -95 124 -114 14 -114 c 0
 6 -114 0 -108 0 -100 c 2
 0 100 l 2
 0 108 6 114 14 114 c 0
EndSplineSet
EndChar

StartChar: noteheads.d2doFunk
Encoding: 57645 57645 238
Width: 244
GlyphClass: 2
Flags: MW
HStem: -114 228<176 235>
VStem: 0 245<-47.5 47.5>
LayerCount: 2
Fore
SplineSet
231 -114 m 0
 121 -114 0 -95 0 0 c 0
 0 95 121 114 231 114 c 0
 239 114 245 108 245 100 c 2
 245 -100 l 2
 245 -108 239 -114 231 -114 c 0
EndSplineSet
EndChar

StartChar: noteheads.u0reFunk
Encoding: 57646 57646 239
Width: 244
GlyphClass: 2
Flags: MW
HStem: -114 228<10 15>
VStem: 22 28<-9 9 -9 23>
LayerCount: 2
Fore
SplineSet
190 0 m 1
 44 53 l 1
 48 35 50 18 50 0 c 0
 50 -18 48 -35 44 -53 c 1
 190 0 l 1
22 0 m 0
 22 46 0 92 0 100 c 0
 0 108 6 114 14 114 c 0
 16 114 18 114 20 113 c 2
 237 13 l 2
 242 11 245 5 245 0 c 0
 245 -5 242 -11 237 -13 c 2
 20 -113 l 2
 18 -114 16 -114 14 -114 c 0
 6 -114 0 -108 0 -100 c 0
 0 -92 22 -46 22 0 c 0
EndSplineSet
EndChar

StartChar: noteheads.d0reFunk
Encoding: 57647 57647 240
Width: 244
GlyphClass: 2
Flags: MW
HStem: -114 228<230 235>
VStem: 195 28<-9 9>
LayerCount: 2
Fore
SplineSet
55 0 m 1
 201 -53 l 1
 197 -35 195 -18 195 0 c 0
 195 18 197 35 201 53 c 1
 55 0 l 1
223 0 m 0
 223 -46 245 -92 245 -100 c 0
 245 -108 239 -114 231 -114 c 0
 229 -114 227 -114 225 -113 c 2
 8 -13 l 2
 3 -11 0 -5 0 0 c 0
 0 5 3 11 8 13 c 2
 225 113 l 2
 227 114 229 114 231 114 c 0
 239 114 245 108 245 100 c 0
 245 92 223 46 223 0 c 0
EndSplineSet
EndChar

StartChar: noteheads.u1reFunk
Encoding: 57648 57648 241
Width: 244
GlyphClass: 2
Flags: MW
HStem: -114 228<10 15>
VStem: 22 28<-9 9 -9 23>
LayerCount: 2
Fore
SplineSet
190 0 m 1
 44 53 l 1
 48 35 50 18 50 0 c 0
 50 -18 48 -35 44 -53 c 1
 190 0 l 1
22 0 m 0
 22 46 0 92 0 100 c 0
 0 108 6 114 14 114 c 0
 16 114 18 114 20 113 c 2
 237 13 l 2
 242 11 245 5 245 0 c 0
 245 -5 242 -11 237 -13 c 2
 20 -113 l 2
 18 -114 16 -114 14 -114 c 0
 6 -114 0 -108 0 -100 c 0
 0 -92 22 -46 22 0 c 0
EndSplineSet
EndChar

StartChar: noteheads.d1reFunk
Encoding: 57649 57649 242
Width: 244
GlyphClass: 2
Flags: MW
HStem: -114 228<230 235>
VStem: 195 28<-9 9>
LayerCount: 2
Fore
SplineSet
55 0 m 1
 201 -53 l 1
 197 -35 195 -18 195 0 c 0
 195 18 197 35 201 53 c 1
 55 0 l 1
223 0 m 0
 223 -46 245 -92 245 -100 c 0
 245 -108 239 -114 231 -114 c 0
 229 -114 227 -114 225 -113 c 2
 8 -13 l 2
 3 -11 0 -5 0 0 c 0
 0 5 3 11 8 13 c 2
 225 113 l 2
 227 114 229 114 231 114 c 0
 239 114 245 108 245 100 c 0
 245 92 223 46 223 0 c 0
EndSplineSet
EndChar

StartChar: noteheads.u2reFunk
Encoding: 57650 57650 243
Width: 244
GlyphClass: 2
Flags: MW
HStem: -114 228<10 15>
VStem: 0 245<-104 2.5 -2.5 104>
LayerCount: 2
Fore
SplineSet
22 0 m 0
 22 46 0 92 0 100 c 0
 0 108 6 114 14 114 c 0
 16 114 18 114 20 113 c 2
 237 13 l 2
 242 11 245 5 245 0 c 0
 245 -5 242 -11 237 -13 c 2
 20 -113 l 2
 18 -114 16 -114 14 -114 c 0
 6 -114 0 -108 0 -100 c 0
 0 -92 22 -46 22 0 c 0
EndSplineSet
EndChar

StartChar: noteheads.d2reFunk
Encoding: 57651 57651 244
Width: 244
GlyphClass: 2
Flags: MW
HStem: -114 228<230 235>
VStem: 0 245<-104 2.5>
LayerCount: 2
Fore
SplineSet
223 0 m 0
 223 -46 245 -92 245 -100 c 0
 245 -108 239 -114 231 -114 c 0
 229 -114 227 -114 225 -113 c 2
 8 -13 l 2
 3 -11 0 -5 0 0 c 0
 0 5 3 11 8 13 c 2
 225 113 l 2
 227 114 229 114 231 114 c 0
 239 114 245 108 245 100 c 0
 245 92 223 46 223 0 c 0
EndSplineSet
EndChar

StartChar: noteheads.u0miFunk
Encoding: 57652 57652 245
Width: 244
GlyphClass: 2
Flags: MW
HStem: -114 228<120.5 123.5>
VStem: 0 245<-2 2>
LayerCount: 2
Fore
SplineSet
195 -16 m 1
 105 67 l 1
 50 16 l 1
 140 -67 l 1
 195 -16 l 1
4 -10 m 2
 1 -7 0 -4 0 0 c 0
 0 4 1 7 4 10 c 2
 113 111 l 2
 115 113 119 114 122 114 c 0
 125 114 129 113 131 111 c 2
 241 10 l 2
 244 7 245 4 245 0 c 0
 245 -4 244 -7 241 -10 c 2
 131 -111 l 2
 129 -113 125 -114 122 -114 c 0
 119 -114 115 -113 113 -111 c 2
 4 -10 l 2
EndSplineSet
EndChar

StartChar: noteheads.d0miFunk
Encoding: 57653 57653 246
Width: 244
GlyphClass: 2
Flags: MW
HStem: -114 228<120.5 123.5>
VStem: 0 245<-2 2>
LayerCount: 2
Fore
SplineSet
50 -16 m 1
 105 -67 l 1
 195 16 l 1
 140 67 l 1
 50 -16 l 1
4 -10 m 2
 1 -7 0 -4 0 0 c 0
 0 4 1 7 4 10 c 2
 113 111 l 2
 115 113 119 114 122 114 c 0
 125 114 129 113 131 111 c 2
 241 10 l 2
 244 7 245 4 245 0 c 0
 245 -4 244 -7 241 -10 c 2
 131 -111 l 2
 129 -113 125 -114 122 -114 c 0
 119 -114 115 -113 113 -111 c 2
 4 -10 l 2
EndSplineSet
EndChar

StartChar: noteheads.u1miFunk
Encoding: 57654 57654 247
Width: 244
GlyphClass: 2
Flags: MW
HStem: -114 228<120.5 123.5>
VStem: 0 245<-2 2>
LayerCount: 2
Fore
SplineSet
195 -16 m 1
 105 67 l 1
 50 16 l 1
 140 -67 l 1
 195 -16 l 1
4 -10 m 2
 1 -7 0 -4 0 0 c 0
 0 4 1 7 4 10 c 2
 113 111 l 2
 115 113 119 114 122 114 c 0
 125 114 129 113 131 111 c 2
 241 10 l 2
 244 7 245 4 245 0 c 0
 245 -4 244 -7 241 -10 c 2
 131 -111 l 2
 129 -113 125 -114 122 -114 c 0
 119 -114 115 -113 113 -111 c 2
 4 -10 l 2
EndSplineSet
EndChar

StartChar: noteheads.d1miFunk
Encoding: 57655 57655 248
Width: 244
GlyphClass: 2
Flags: MW
HStem: -114 228<120.5 123.5>
VStem: 0 245<-2 2>
LayerCount: 2
Fore
SplineSet
50 -16 m 1
 105 -67 l 1
 195 16 l 1
 140 67 l 1
 50 -16 l 1
4 -10 m 2
 1 -7 0 -4 0 0 c 0
 0 4 1 7 4 10 c 2
 113 111 l 2
 115 113 119 114 122 114 c 0
 125 114 129 113 131 111 c 2
 241 10 l 2
 244 7 245 4 245 0 c 0
 245 -4 244 -7 241 -10 c 2
 131 -111 l 2
 129 -113 125 -114 122 -114 c 0
 119 -114 115 -113 113 -111 c 2
 4 -10 l 2
EndSplineSet
EndChar

StartChar: noteheads.s2miFunk
Encoding: 57656 57656 249
Width: 244
GlyphClass: 2
Flags: MW
HStem: -114 228<120.5 123.5>
VStem: 0 245<-2 2>
LayerCount: 2
Fore
SplineSet
4 -10 m 2
 1 -7 0 -4 0 0 c 0
 0 4 1 7 4 10 c 2
 113 111 l 2
 115 113 119 114 122 114 c 0
 125 114 129 113 131 111 c 2
 241 10 l 2
 244 7 245 4 245 0 c 0
 245 -4 244 -7 241 -10 c 2
 131 -111 l 2
 129 -113 125 -114 122 -114 c 0
 119 -114 115 -113 113 -111 c 2
 4 -10 l 2
EndSplineSet
EndChar

StartChar: noteheads.u0faFunk
Encoding: 57657 57657 250
Width: 244
GlyphClass: 2
Flags: MW
HStem: 61 53<77 217 77 77>
VStem: 217 28<-68 61 61 61>
LayerCount: 2
Fore
SplineSet
217 61 m 1
 77 61 l 1
 217 -68 l 1
 217 61 l 1
0 100 m 0
 0 108 6 114 14 114 c 2
 231 114 l 2
 239 114 245 108 245 100 c 2
 245 -100 l 2
 245 -108 239 -114 231 -114 c 0
 227 -114 224 -112 221 -110 c 2
 5 90 l 2
 2 93 0 96 0 100 c 0
EndSplineSet
EndChar

StartChar: noteheads.d0faFunk
Encoding: 57658 57658 251
Width: 244
GlyphClass: 2
Flags: MW
HStem: -114 53<10 168 28 168 28 231>
VStem: 0 28<-61 -61 -61 68>
LayerCount: 2
Fore
SplineSet
28 -61 m 1
 168 -61 l 1
 28 68 l 1
 28 -61 l 1
245 -100 m 0
 245 -108 239 -114 231 -114 c 2
 14 -114 l 2
 6 -114 0 -108 0 -100 c 2
 0 100 l 2
 0 108 6 114 14 114 c 0
 18 114 21 112 24 110 c 2
 240 -90 l 2
 243 -93 245 -96 245 -100 c 0
EndSplineSet
EndChar

StartChar: noteheads.u1faFunk
Encoding: 57659 57659 252
Width: 244
GlyphClass: 2
Flags: MW
HStem: 61 53<77 217 77 77>
VStem: 217 28<-68 61 61 61>
LayerCount: 2
Fore
SplineSet
217 61 m 1
 77 61 l 1
 217 -68 l 1
 217 61 l 1
0 100 m 0
 0 108 6 114 14 114 c 2
 231 114 l 2
 239 114 245 108 245 100 c 2
 245 -100 l 2
 245 -108 239 -114 231 -114 c 0
 227 -114 224 -112 221 -110 c 2
 5 90 l 2
 2 93 0 96 0 100 c 0
EndSplineSet
EndChar

StartChar: noteheads.d1faFunk
Encoding: 57660 57660 253
Width: 244
GlyphClass: 2
Flags: MW
HStem: -114 53<10 168 28 168 28 231>
VStem: 0 28<-61 -61 -61 68>
LayerCount: 2
Fore
SplineSet
28 -61 m 1
 168 -61 l 1
 28 68 l 1
 28 -61 l 1
245 -100 m 0
 245 -108 239 -114 231 -114 c 2
 14 -114 l 2
 6 -114 0 -108 0 -100 c 2
 0 100 l 2
 0 108 6 114 14 114 c 0
 18 114 21 112 24 110 c 2
 240 -90 l 2
 243 -93 245 -96 245 -100 c 0
EndSplineSet
EndChar

StartChar: noteheads.u2faFunk
Encoding: 57661 57661 254
Width: 244
GlyphClass: 2
Flags: MW
HStem: -114 228<229 231 231 235>
VStem: 0 245<98 100 -104 104>
LayerCount: 2
Fore
SplineSet
0 100 m 0
 0 108 6 114 14 114 c 2
 231 114 l 2
 239 114 245 108 245 100 c 2
 245 -100 l 2
 245 -108 239 -114 231 -114 c 0
 227 -114 224 -112 221 -110 c 2
 5 90 l 2
 2 93 0 96 0 100 c 0
EndSplineSet
EndChar

StartChar: noteheads.d2faFunk
Encoding: 57662 57662 255
Width: 244
GlyphClass: 2
Flags: MW
HStem: -114 228<10 14 14 16 10 231>
VStem: 0 245<-100 -98 -104 100 -104 104>
LayerCount: 2
Fore
SplineSet
245 -100 m 0
 245 -108 239 -114 231 -114 c 2
 14 -114 l 2
 6 -114 0 -108 0 -100 c 2
 0 100 l 2
 0 108 6 114 14 114 c 0
 18 114 21 112 24 110 c 2
 240 -90 l 2
 243 -93 245 -96 245 -100 c 0
EndSplineSet
EndChar

StartChar: noteheads.s0solFunk
Encoding: 57663 57663 256
Width: 243
GlyphClass: 2
Flags: MW
HStem: -114 38<73 95.5 61 137.5> 76 38<148.5 171 106.5 183>
VStem: 0 28<-45.5 -8 -46.5 17.5> 216 28<8 45.5 -17.5 46.5>
LayerCount: 2
Fore
SplineSet
216 34 m 0
 216 59 196 76 170 76 c 0
 127 76 28 18 28 -34 c 0
 28 -59 48 -76 74 -76 c 0
 117 -76 216 -18 216 34 c 0
142 114 m 0
 200 114 244 73 244 18 c 0
 244 -53 173 -114 102 -114 c 0
 44 -114 0 -73 0 -18 c 0
 0 53 71 114 142 114 c 0
EndSplineSet
EndChar

StartChar: noteheads.s1solFunk
Encoding: 57664 57664 257
Width: 243
GlyphClass: 2
Flags: MW
HStem: -114 38<73 95.5 61 137.5> 76 38<148.5 171 106.5 183>
VStem: 0 28<-45.5 -8 -46.5 17.5> 216 28<8 45.5 -17.5 46.5>
LayerCount: 2
Fore
SplineSet
216 34 m 0
 216 59 196 76 170 76 c 0
 127 76 28 18 28 -34 c 0
 28 -59 48 -76 74 -76 c 0
 117 -76 216 -18 216 34 c 0
142 114 m 0
 200 114 244 73 244 18 c 0
 244 -53 173 -114 102 -114 c 0
 44 -114 0 -73 0 -18 c 0
 0 53 71 114 142 114 c 0
EndSplineSet
EndChar

StartChar: noteheads.s2solFunk
Encoding: 57665 57665 258
Width: 243
GlyphClass: 2
Flags: MW
HStem: -114 228<106.5 137.5>
VStem: 0 244<-17.5 17.5>
LayerCount: 2
Fore
SplineSet
142 114 m 0
 200 114 244 73 244 18 c 0
 244 -53 173 -114 102 -114 c 0
 44 -114 0 -73 0 -18 c 0
 0 53 71 114 142 114 c 0
EndSplineSet
EndChar

StartChar: noteheads.s0laFunk
Encoding: 57666 57666 259
Width: 244
GlyphClass: 2
Flags: MW
HStem: -114 21<10 217 28 217 28 231> 93 21<28 28 28 217>
VStem: 0 28<-93 93 -93 100 -93 104> 217 28<-93 93 93 93>
LayerCount: 2
Fore
SplineSet
28 93 m 1
 28 -93 l 1
 217 -93 l 1
 217 93 l 1
 28 93 l 1
14 114 m 2
 231 114 l 2
 239 114 245 108 245 100 c 2
 245 -100 l 2
 245 -108 239 -114 231 -114 c 2
 14 -114 l 2
 6 -114 0 -108 0 -100 c 2
 0 100 l 2
 0 108 6 114 14 114 c 2
EndSplineSet
EndChar

StartChar: noteheads.s1laFunk
Encoding: 57667 57667 260
Width: 244
GlyphClass: 2
Flags: MW
HStem: -114 21<10 217 28 217 28 231> 93 21<28 28 28 217>
VStem: 0 28<-93 93 -93 100 -93 104> 217 28<-93 93 93 93>
LayerCount: 2
Fore
SplineSet
28 93 m 1
 28 -93 l 1
 217 -93 l 1
 217 93 l 1
 28 93 l 1
14 114 m 2
 231 114 l 2
 239 114 245 108 245 100 c 2
 245 -100 l 2
 245 -108 239 -114 231 -114 c 2
 14 -114 l 2
 6 -114 0 -108 0 -100 c 2
 0 100 l 2
 0 108 6 114 14 114 c 2
EndSplineSet
EndChar

